<svg width="152" height="138" viewBox="0 0 152 138" fill="none" xmlns="http://www.w3.org/2000/svg">
<g clip-path="url(#clip0_19_48121)">
<path d="M11.4368 131.855L10.9849 131.245C7.50858 126.555 5.21424 120.975 4.17136 114.68C3.00681 107.653 3.00681 100.313 4.17136 92.8497C5.26518 85.8477 7.28168 79.0226 10.1679 72.5536L9.88983 72.17V72.1002C5.9095 65.3871 2.9199 54.6985 1.8944 43.5042C1.49463 39.2672 0.5908 25.1435 5.37067 21.4993C6.90023 20.331 9.22934 19.7556 12.4623 19.7556C24.4902 19.7556 46.6514 28.0031 52.3003 30.2001C56.3132 28.5969 60.4852 27.4278 64.7454 26.7128C67.8475 26.1934 70.9863 25.9252 74.1313 25.9107C75.7999 24.5158 82.1268 19.2151 89.3922 14.0016C100.881 5.71919 109.259 1.49954 114.265 1.49954C115.037 1.50191 115.804 1.61944 116.542 1.84827C122.226 3.7663 125.91 17.4191 126.884 21.5516C129.421 32.1007 130.065 42.8068 128.657 50.4091C139.955 62.0044 147.463 76.285 149.827 90.6876C151.252 99.2664 150.071 107.217 146.334 114.332C142.927 120.835 137.382 126.642 129.856 131.611L129.474 131.855H11.4368Z" fill="#5959FF"/>
<path d="M114.264 3.03396C114.877 3.01663 115.489 3.1051 116.072 3.29551C123.024 5.63201 130.429 34.7511 127.022 50.9148C137.972 61.9696 145.863 75.9886 148.332 90.9492C151.165 108.142 143.03 121.114 129.004 130.356H12.1834C8.95044 125.979 6.69087 120.713 5.66537 114.436C3.35364 100.4 5.89132 85.5961 11.94 72.2746C11.647 71.9956 11.3848 71.6858 11.1579 71.3505C2.7453 57.1222 0.416195 27.1662 6.23895 22.7199C7.57732 21.6911 9.7326 21.2726 12.4267 21.2726C24.5763 21.2726 47.4154 29.9212 52.2648 31.8217C59.3045 28.8886 66.8554 27.3891 74.4782 27.4103H74.652C74.652 27.4103 102.984 3.01653 114.247 3.01653L114.264 3.03396ZM114.247 8.29805e-07C108.859 8.29805e-07 100.429 4.16734 88.4702 12.7636C81.5698 17.7156 75.6775 22.5978 73.5396 24.3938C66.25 24.4862 59.037 25.898 52.2474 28.5611C49.084 27.3405 42.8962 25.0564 35.9611 22.9291C25.793 19.8254 17.8845 18.2387 12.4267 18.2387C8.84615 18.2387 6.22157 18.9187 4.41391 20.2962C2.31076 21.9178 0.989779 25.004 0.36405 29.7991C-0.122628 33.6526 -0.140009 38.4302 0.346669 43.6437C1.38955 54.9426 4.41391 65.7882 8.44638 72.7105C5.69591 79.0782 3.75707 85.7686 2.67577 92.6231C1.49384 100.243 1.49384 107.758 2.67577 114.942C3.75342 121.463 6.13466 127.27 9.76737 132.152L10.6712 133.372H129.925L130.672 132.867C138.424 127.775 144.143 121.76 147.671 115.046C151.565 107.636 152.781 99.3536 151.321 90.4609C150.07 82.8063 147.428 75.2562 143.534 68.0201C139.945 61.4165 135.484 55.3286 130.272 49.9209C131.541 42.1791 130.846 31.5951 128.36 21.2029C127.144 16.1288 125.597 11.5953 123.893 8.10801C121.773 3.7663 119.531 1.25543 117.028 0.418479C116.134 0.133545 115.202 -0.00769556 114.264 8.29805e-07H114.247Z" fill="black"/>
<path d="M88.3323 117.244C86.8087 117.24 85.3161 116.812 84.0217 116.006C82.8652 115.293 81.9006 114.307 81.2127 113.134C80.5248 111.96 80.1345 110.635 80.0762 109.275C80.0969 108.971 80.2286 108.686 80.4461 108.473C80.6636 108.26 80.9515 108.136 81.2549 108.123C81.5583 108.11 81.8558 108.209 82.0904 108.403C82.3251 108.596 82.4805 108.869 82.5269 109.17C82.5679 110.129 82.843 111.063 83.3279 111.89C83.8128 112.717 84.4927 113.411 85.308 113.913C85.9606 114.318 86.6873 114.588 87.4454 114.708C88.2034 114.828 88.9777 114.795 89.7228 114.611C90.468 114.436 91.1705 114.113 91.7887 113.661C92.4068 113.209 92.9279 112.636 93.3208 111.978C93.7239 111.325 93.9944 110.598 94.1165 109.84C94.2386 109.082 94.2099 108.307 94.0322 107.559C93.8545 106.812 93.5312 106.108 93.081 105.486C92.6308 104.865 92.0625 104.339 91.4088 103.939C91.2696 103.857 91.1481 103.747 91.0515 103.617C90.955 103.487 90.8852 103.339 90.8464 103.182C90.8075 103.024 90.8004 102.86 90.8253 102.7C90.8503 102.54 90.9068 102.386 90.9917 102.248C91.077 102.109 91.1888 101.989 91.3207 101.893C91.4526 101.798 91.602 101.73 91.7603 101.692C91.9185 101.655 92.0826 101.65 92.243 101.676C92.4034 101.703 92.5571 101.761 92.695 101.847C94.0901 102.708 95.1999 103.964 95.8842 105.456C96.5685 106.949 96.7968 108.612 96.5402 110.235C96.2836 111.857 95.5537 113.368 94.4425 114.575C93.3312 115.782 91.8886 116.631 90.2964 117.017C89.6514 117.161 88.9931 117.237 88.3323 117.244V117.244Z" fill="black"/>
<path d="M74.3401 119.336C72.8524 119.34 71.3917 118.936 70.1165 118.168C69.0622 117.545 68.1591 116.694 67.4726 115.678C66.7861 114.662 66.3334 113.506 66.147 112.292C65.9607 111.079 66.0456 109.84 66.3954 108.664C66.7452 107.487 67.3513 106.404 68.1698 105.491C68.277 105.371 68.4069 105.273 68.5518 105.203C68.6968 105.133 68.8541 105.093 69.0147 105.084C69.1753 105.075 69.336 105.098 69.4878 105.151C69.6396 105.205 69.7794 105.288 69.8992 105.395C70.019 105.503 70.1166 105.633 70.1862 105.779C70.2559 105.924 70.2963 106.082 70.3052 106.243C70.3141 106.404 70.2912 106.565 70.238 106.718C70.1847 106.87 70.1021 107.01 69.9948 107.13C69.362 107.847 68.9125 108.707 68.6854 109.636C68.4583 110.566 68.4603 111.537 68.6912 112.466C68.977 113.587 69.5873 114.598 70.4452 115.371C71.303 116.145 72.3699 116.646 73.5114 116.812C74.6529 116.978 75.8178 116.801 76.8592 116.304C77.9007 115.807 78.772 115.011 79.3634 114.018C79.7589 113.36 80.0182 112.628 80.1257 111.867C80.2332 111.106 80.1868 110.331 79.9891 109.589C79.9145 109.272 79.9652 108.939 80.1305 108.66C80.2959 108.38 80.5629 108.175 80.8755 108.089C81.0319 108.048 81.195 108.037 81.3554 108.06C81.5157 108.082 81.6699 108.136 81.8091 108.219C81.9483 108.302 82.0697 108.412 82.166 108.542C82.2624 108.672 82.3318 108.821 82.3703 108.979C82.6444 110.035 82.7056 111.136 82.5504 112.217C82.3952 113.298 82.0267 114.337 81.4665 115.273C80.7407 116.52 79.6994 117.553 78.448 118.266C77.1966 118.979 75.7795 119.349 74.3401 119.336V119.336Z" fill="black"/>
<path d="M97.1968 92.3789C94.6684 92.3657 92.228 91.4465 90.3157 89.7872C88.4034 88.1278 87.1452 85.8375 86.768 83.3294L85.7425 76.4071C85.7104 76.2111 85.7173 76.0107 85.763 75.8175C85.8087 75.6243 85.8921 75.4421 86.0086 75.2815C86.125 75.1209 86.272 74.9851 86.4412 74.882C86.6104 74.7789 86.7982 74.7105 86.994 74.6808C87.3904 74.6208 87.7943 74.7212 88.117 74.9599C88.4397 75.1986 88.6547 75.556 88.7147 75.9537L89.7402 82.8935C90.0892 84.835 91.1786 86.5638 92.7772 87.7129C94.3758 88.8621 96.3578 89.3411 98.3027 89.0485C100.248 88.7558 102.002 87.7145 103.194 86.1454C104.387 84.5763 104.922 82.603 104.688 80.6441L103.663 73.7218C103.633 73.526 103.642 73.3263 103.689 73.134C103.737 72.9418 103.821 72.7607 103.938 72.6013C104.055 72.4418 104.202 72.307 104.371 72.2045C104.54 72.1021 104.728 72.0341 104.923 72.0043C105.118 71.9746 105.317 71.9836 105.509 72.0311C105.7 72.0785 105.881 72.1633 106.04 72.2807C106.199 72.3981 106.333 72.5457 106.435 72.7152C106.537 72.8847 106.605 73.0727 106.635 73.2685L107.678 80.1908C108.091 82.9745 107.386 85.809 105.717 88.0715C104.049 90.3339 101.553 91.8393 98.7785 92.2569C98.2545 92.3322 97.7262 92.373 97.1968 92.3789V92.3789Z" fill="black"/>
<path d="M54.6997 30.8802C54.6997 30.8802 60.0705 33.7398 59.7403 40.4877C59.41 47.5321 54.7866 47.009 55.6556 54.8031C56.5247 62.5973 76.9999 77.4358 67.023 100.068C57.2026 122.387 12.8801 116.529 4.91945 107.758C3.0075 84.1489 18.0945 61.0629 18.0945 61.0629C18.0945 61.0629 36.484 35.187 54.6997 30.8802Z" fill="#6678FF"/>
<path d="M56.889 97.1914C54.3837 97.1906 51.9604 96.2955 50.0529 94.6662C48.1453 93.0369 46.8779 90.7798 46.4776 88.2988V88.2988L45.4347 81.3765C45.4 81.1773 45.4053 80.9733 45.4504 80.7762C45.4954 80.5792 45.5793 80.3932 45.697 80.2291C45.8147 80.065 45.9639 79.9262 46.1359 79.8208C46.3078 79.7154 46.499 79.6456 46.6983 79.6154C46.8975 79.5852 47.1008 79.5952 47.2961 79.6449C47.4914 79.6946 47.6749 79.783 47.8357 79.9048C47.9965 80.0266 48.1314 80.1795 48.2324 80.3543C48.3335 80.5292 48.3988 80.7226 48.4243 80.9231L49.4498 87.8454C49.8055 89.7787 50.8957 91.4979 52.4904 92.6406C54.0851 93.7833 56.0597 94.2602 57.9981 93.9708C59.9365 93.6814 61.6871 92.6482 62.881 91.0892C64.0748 89.5301 64.6186 87.567 64.3978 85.6136L63.3723 78.6912C63.3402 78.4963 63.3473 78.2969 63.3932 78.1048C63.4391 77.9127 63.5228 77.7317 63.6393 77.5725C63.7559 77.4133 63.9031 77.2791 64.0721 77.1778C64.2412 77.0764 64.4287 77.01 64.6237 76.9825C64.8203 76.9503 65.0213 76.958 65.2149 77.0049C65.4085 77.0518 65.5908 77.137 65.7511 77.2556C65.9114 77.3742 66.0465 77.5237 66.1484 77.6954C66.2503 77.8671 66.3169 78.0574 66.3445 78.2553L67.3873 85.1951C67.7534 87.9312 67.0412 90.7027 65.402 92.9202C63.7628 95.1377 61.326 96.6262 58.6098 97.0694C58.04 97.1533 57.4648 97.1941 56.889 97.1914V97.1914Z" fill="black"/>
<path d="M36.5531 43.6089C36.5531 43.6089 29.9134 34.3849 22.9087 29.555C15.904 24.7251 10.5679 22.3886 7.63048 23.8009C3.92825 25.6143 3.71967 37.0876 5.85758 48.8573C7.99549 60.627 11.2979 66.1544 12.7927 69.2058C14.2875 72.2572 36.5531 43.6089 36.5531 43.6089Z" fill="#6678FF"/>
<path opacity="0.2" d="M108.895 35.3091C107.553 39.8589 104.494 43.7041 100.37 46.0269C96.2453 48.3497 91.3803 48.9669 86.8093 47.7472C82.2383 46.5276 78.3219 43.5674 75.8928 39.496C73.4637 35.4246 72.7135 30.5632 73.8019 25.9456V25.9456C73.8019 25.9456 81.0151 19.1802 106.288 4.55095C131.421 -9.346 129.457 49.1014 129.457 49.1014L108.895 35.3091Z" fill="black"/>
<path d="M95.7188 30.2176C95.7188 30.2176 98.0305 21.9875 103.054 15.1001C108.077 8.21262 112.301 4.20221 115.551 4.56838C119.636 5.03916 123.633 15.7975 125.51 27.6021C127.388 39.4066 126.136 45.7361 125.719 49.1014C123.512 45.4397 95.7188 30.2176 95.7188 30.2176Z" fill="#6678FF"/>
<path d="M130.621 133.372H10.1162L9.64695 132.745C6.10115 127.932 3.75467 122.248 2.69441 115.831C0.469592 102.265 2.45107 87.6711 8.46502 73.6346C14.2356 60.1562 23.5347 48.0203 34.6587 39.4241C34.8185 39.3004 35.001 39.2096 35.1958 39.1567C35.3906 39.1038 35.5938 39.0899 35.794 39.1158C35.9941 39.1417 36.1872 39.2069 36.3622 39.3077C36.5372 39.4084 36.6908 39.5428 36.814 39.7031C36.9373 39.8634 37.0279 40.0464 37.0806 40.2418C37.1333 40.4372 37.1472 40.6412 37.1213 40.8419C37.0955 41.0427 37.0305 41.2364 36.9301 41.412C36.8296 41.5876 36.6957 41.7416 36.5359 41.8652C14.1313 59.1797 1.46033 89.3973 5.73614 115.325C6.67474 120.975 8.67359 125.997 11.6806 130.269H129.7C144.631 120.277 150.923 107.357 148.368 91.8559C143.953 65.1256 121.791 40.3134 94.4506 31.5253C94.0912 31.377 93.8006 31.0985 93.6366 30.745C93.4726 30.3916 93.4472 29.9891 93.5655 29.6178C93.6837 29.2464 93.937 28.9333 94.275 28.7408C94.6129 28.5482 95.0107 28.4903 95.3892 28.5785C108.929 32.9377 121.913 41.4467 131.977 52.5538C136.943 58.0133 141.164 64.1115 144.526 70.6879C147.863 77.1807 150.184 84.1496 151.409 91.3502C152.852 100.086 151.635 108.211 147.829 115.482C144.352 122.108 138.686 128.037 131.004 133.111L130.621 133.372Z" fill="black"/>
<path d="M12.8453 136.215C12.1386 136.217 11.4383 136.079 10.7847 135.809C10.131 135.54 9.53691 135.143 9.03634 134.643C8.53577 134.142 8.1386 133.547 7.8676 132.893C7.59661 132.238 7.45711 131.536 7.45712 130.827C7.45411 130.318 7.53035 129.812 7.68307 129.327C8.88239 125.195 11.6113 121.829 15.5742 119.65C19.1548 117.645 23.7608 116.581 28.8536 116.581C33.9463 116.581 38.5524 117.645 42.1503 119.632C46.1133 121.847 48.8421 125.195 50.0414 129.327C50.4334 130.703 50.2656 132.178 49.5749 133.43C48.8841 134.682 47.7268 135.608 46.3566 136.005C45.8704 136.144 45.3673 136.215 44.8618 136.215H12.8453Z" fill="#5959FF"/>
<path d="M28.8523 118.115C38.3252 118.115 46.2858 121.847 48.5976 129.763C48.8765 130.753 48.7532 131.813 48.2548 132.711C47.7565 133.61 46.9235 134.274 45.9382 134.558C45.5885 134.663 45.2255 134.715 44.8606 134.715H12.8441C11.8161 134.715 10.8302 134.305 10.1033 133.576C9.37643 132.847 8.96806 131.858 8.96806 130.827C8.96899 130.466 9.02168 130.108 9.1245 129.763C11.4188 121.847 19.3795 118.115 28.8523 118.115ZM28.8523 115.081C17.2068 115.081 8.74211 120.243 6.22181 128.909C5.71684 130.67 5.92918 132.561 6.81224 134.166C7.6953 135.771 9.17697 136.959 10.9322 137.47C11.5547 137.643 12.1979 137.731 12.8441 137.731H44.8606C45.7659 137.734 46.6628 137.557 47.4999 137.211C48.337 136.865 49.0979 136.357 49.7388 135.715C50.3798 135.074 50.8884 134.312 51.2354 133.473C51.5824 132.634 51.761 131.735 51.761 130.827C51.7638 130.177 51.67 129.53 51.4829 128.909C48.98 120.243 40.5152 115.081 28.8523 115.081Z" fill="black"/>
<path d="M36.3105 129.519C36.3105 129.519 37.3708 131.995 37.0058 134.105Z" fill="#5959FF"/>
<path d="M37.0052 135.622H36.7618C36.3683 135.553 36.0177 135.332 35.7865 135.005C35.5553 134.678 35.4623 134.273 35.5278 133.878C35.7537 132.518 35.1628 130.705 34.9194 130.129C34.7818 129.763 34.7907 129.357 34.9442 128.997C35.0976 128.638 35.3839 128.351 35.743 128.198C36.1021 128.045 36.5063 128.037 36.8711 128.176C37.2359 128.315 37.5331 128.59 37.7004 128.943C37.8221 129.24 38.9171 131.89 38.5 134.366C38.4385 134.719 38.2547 135.038 37.9812 135.268C37.7076 135.498 37.3619 135.623 37.0052 135.622V135.622Z" fill="black"/>
<path d="M23.3433 129.519C23.3433 129.519 21.7442 132.675 22.2308 134.715Z" fill="#5959FF"/>
<path d="M22.2306 136.214C21.8928 136.219 21.5636 136.107 21.2979 135.898C21.0322 135.689 20.8461 135.394 20.7706 135.064C20.1622 132.57 21.8135 129.205 22.0047 128.839C22.1845 128.483 22.4979 128.213 22.876 128.089C23.2541 127.964 23.666 127.996 24.0209 128.176C24.3759 128.357 24.6449 128.671 24.7687 129.05C24.8926 129.43 24.8612 129.843 24.6814 130.199C24.1252 131.315 23.4473 133.337 23.6907 134.349C23.7398 134.542 23.7498 134.744 23.7202 134.941C23.6906 135.139 23.622 135.328 23.5184 135.499C23.4148 135.67 23.2782 135.818 23.1168 135.934C22.9553 136.051 22.7723 136.135 22.5783 136.18C22.4647 136.208 22.3476 136.22 22.2306 136.214V136.214Z" fill="black"/>
<path d="M96.1453 66.6596C100.141 66.2878 103.181 63.8331 102.935 61.177C102.689 58.521 99.2513 56.6692 95.2558 57.041C91.2604 57.4128 88.2206 59.8674 88.4662 62.5235C88.7118 65.1796 92.1499 67.0314 96.1453 66.6596Z" fill="#6678FF"/>
<path d="M52.7848 73.1623C56.7573 72.478 59.6111 69.7824 59.1591 67.1416C58.707 64.5008 55.1203 62.9147 51.1478 63.599C47.1754 64.2833 44.3215 66.9789 44.7736 69.6197C45.2256 72.2605 48.8124 73.8466 52.7848 73.1623Z" fill="#5959FF"/>
<path opacity="0.2" d="M134.984 58.3253C134.984 58.3253 130.916 65.3697 127.04 68.2119C123.164 71.054 115.986 71.6992 115.882 74.489C115.777 77.2789 128.327 82.4575 142.44 69.537L134.984 58.3253Z" fill="black"/>
<path opacity="0.2" d="M143.135 70.5832C143.135 70.5832 137.851 76.7732 133.523 78.8482C129.195 80.9231 122.016 80.2431 121.408 82.9632C120.8 85.6833 132.184 93.0764 148.419 82.9806L143.135 70.5832Z" fill="black"/>
<path d="M80.4757 97.8017C80.4324 97.9195 80.3589 98.0237 80.2627 98.1039C80.1665 98.1841 80.0509 98.2375 79.9276 98.2588C79.8042 98.28 79.6775 98.2682 79.5602 98.2247C79.4428 98.1812 79.3389 98.1075 79.259 98.011C77.9901 96.5637 75.8001 96.0232 74.062 96.7904C71.8719 97.7494 70.7595 100.452 71.5938 102.858C72.4281 105.265 78.9809 109.972 81.2926 109.24C83.7955 108.891 88.6102 102.51 88.8535 100.068C89.0968 97.6274 87.4108 95.2386 85.0817 95.0119C83.2393 94.8201 81.3274 96.0232 80.4757 97.8017Z" fill="black"/>
<path opacity="0.1" d="M127.771 51.1414C127.84 51.3158 145.482 90.1645 127.701 114.419C122.156 121.986 113.153 127.113 103.367 130.565H129.752C143.761 121.324 151.913 108.368 149.08 91.1758C146.612 76.2152 138.721 62.1788 127.771 51.1414Z" fill="black"/>
<path d="M110.303 136.215C109.597 136.217 108.897 136.079 108.244 135.809C107.592 135.539 106.999 135.142 106.5 134.642C106 134.141 105.605 133.546 105.336 132.891C105.067 132.236 104.929 131.535 104.932 130.827C104.931 130.319 105.002 129.815 105.14 129.327C106.34 125.195 109.068 121.829 113.031 119.65C116.612 117.645 121.218 116.581 126.328 116.581C131.438 116.581 136.027 117.645 139.607 119.632C143.57 121.847 146.299 125.195 147.499 129.327C147.695 130.007 147.757 130.719 147.679 131.423C147.601 132.127 147.386 132.809 147.045 133.429C146.704 134.049 146.245 134.596 145.694 135.038C145.142 135.48 144.509 135.809 143.831 136.005C143.345 136.144 142.842 136.215 142.336 136.215H110.303Z" fill="#5959FF"/>
<path d="M126.329 118.115C135.801 118.115 143.762 121.847 146.056 129.763C146.197 130.253 146.239 130.766 146.182 131.273C146.124 131.779 145.967 132.269 145.72 132.715C145.473 133.16 145.14 133.553 144.742 133.869C144.343 134.185 143.886 134.419 143.397 134.558C143.053 134.662 142.696 134.715 142.337 134.715H110.303C109.276 134.71 108.293 134.299 107.567 133.571C106.841 132.843 106.431 131.856 106.427 130.827C106.428 130.466 106.48 130.108 106.583 129.763C108.878 121.847 116.838 118.115 126.311 118.115H126.329ZM126.311 115.081C114.666 115.081 106.201 120.243 103.681 128.909C103.18 130.67 103.395 132.559 104.277 134.163C105.16 135.767 106.638 136.955 108.391 137.47C109.014 137.643 109.657 137.731 110.303 137.731H142.337C144.162 137.731 145.913 137.004 147.204 135.709C148.495 134.414 149.22 132.658 149.22 130.827C149.22 130.178 149.132 129.533 148.959 128.909C146.439 120.243 137.974 115.081 126.329 115.081H126.311Z" fill="black"/>
<path d="M133.768 129.519C133.768 129.519 134.828 131.995 134.463 134.105Z" fill="#5959FF"/>
<path d="M134.462 135.622H134.201C133.808 135.553 133.457 135.332 133.226 135.005C132.995 134.678 132.902 134.273 132.967 133.878C133.211 132.518 132.62 130.705 132.376 130.129C132.239 129.763 132.248 129.357 132.401 128.997C132.555 128.638 132.841 128.351 133.2 128.198C133.559 128.045 133.963 128.037 134.328 128.176C134.693 128.315 134.99 128.59 135.157 128.943C135.279 129.24 136.374 131.89 135.957 134.384C135.889 134.731 135.703 135.045 135.43 135.271C135.158 135.496 134.816 135.62 134.462 135.622V135.622Z" fill="black"/>
<path d="M120.8 129.519C120.8 129.519 119.201 132.675 119.688 134.715Z" fill="#5959FF"/>
<path d="M119.688 136.214C119.35 136.219 119.021 136.107 118.755 135.898C118.489 135.688 118.303 135.394 118.228 135.064C117.619 132.57 119.271 129.205 119.462 128.839C119.55 128.662 119.673 128.504 119.822 128.375C119.971 128.246 120.145 128.148 120.332 128.086C120.52 128.025 120.717 128.001 120.914 128.016C121.111 128.032 121.302 128.086 121.478 128.176C121.656 128.263 121.814 128.385 121.945 128.534C122.075 128.684 122.175 128.857 122.238 129.045C122.301 129.234 122.326 129.432 122.312 129.63C122.298 129.828 122.245 130.022 122.156 130.199V130.199C121.582 131.315 120.922 133.337 121.165 134.349C121.259 134.74 121.195 135.152 120.987 135.495C120.778 135.838 120.442 136.085 120.053 136.18C119.933 136.208 119.81 136.22 119.688 136.214V136.214Z" fill="black"/>
</g>
<defs>
<clipPath id="clip0_19_48121">
<rect width="152" height="138" fill="white"/>
</clipPath>
</defs>
</svg>
