<svg width="43" height="48" viewBox="0 0 43 48" fill="none" xmlns="http://www.w3.org/2000/svg">
<g clip-path="url(#clip0_92_20657)">
<path d="M4.12769 48C3.85891 48.0002 3.59122 47.966 3.33117 47.8981C3.09048 47.8369 2.86323 47.7316 2.66093 47.5876L2.63665 47.5682L2.60751 47.5488C2.38547 47.3649 2.22178 47.1205 2.1364 46.8453C2.07355 46.6718 2.03434 46.4906 2.01984 46.3067V46.2776C2.01498 46.1709 2.01012 46.0204 2.01012 45.8167V37.6897C2.00772 37.4888 2.01745 37.2878 2.03926 37.0881V37.0298C2.07835 36.7921 2.16066 36.5636 2.2821 36.3554C2.48048 36.0058 2.80837 35.7479 3.19518 35.6373C3.46231 35.5549 3.78771 35.516 4.18111 35.516C4.47278 35.5062 4.76426 35.5406 5.04562 35.6179C5.28421 35.6785 5.5097 35.7821 5.71101 35.9236L5.76443 35.9624C5.98784 36.146 6.15318 36.3904 6.2404 36.666C6.29944 36.8419 6.33695 37.0244 6.3521 37.2094V37.2336C6.36182 37.3452 6.36182 37.4956 6.36182 37.6946V44.07H9.4556C9.63902 44.0653 9.82253 44.075 10.0044 44.0991L10.0578 44.1088C10.2522 44.1446 10.4403 44.2084 10.6164 44.298C10.7817 44.3852 10.9276 44.505 11.0453 44.6501C11.163 44.7952 11.25 44.9626 11.3012 45.1423L11.3109 45.1762C11.4468 45.7341 11.4468 46.3165 11.3109 46.8744C11.2627 47.0591 11.1771 47.2319 11.0593 47.3821C10.9415 47.5324 10.794 47.6568 10.6261 47.7477C10.4409 47.8531 10.2387 47.9253 10.0287 47.9612L9.98013 47.9709C9.80109 47.9903 9.62112 48 9.44103 48H4.12769ZM3.78286 46.1951C3.90701 46.2243 4.03414 46.2389 4.16169 46.2388H9.64987C9.65633 46.1808 9.65796 46.1224 9.65473 46.0641V46.0107C9.65803 45.9541 9.65641 45.8973 9.64987 45.8409H4.60365V37.6946C4.60365 37.5053 4.60365 37.3986 4.5988 37.3404C4.5991 37.332 4.59744 37.3237 4.59394 37.3161C4.46995 37.2864 4.34255 37.2734 4.21511 37.2773H4.19568C4.05908 37.2744 3.92251 37.2841 3.78771 37.3064C3.778 37.4229 3.77314 37.549 3.77314 37.6703V45.8167C3.77314 46.0059 3.778 46.1126 3.778 46.1709C3.778 46.2291 3.78286 46.1854 3.78286 46.1951Z" fill="black"/>
<path d="M12.7201 48.0001C12.453 48.0003 12.1869 47.966 11.9285 47.8982C11.6878 47.8369 11.4605 47.7316 11.2582 47.5876L11.2291 47.5682L11.2048 47.5488C10.9813 47.3663 10.8172 47.1214 10.7337 46.8453C10.6713 46.6717 10.6321 46.4906 10.6171 46.3067V46.2776C10.6074 46.1709 10.6074 46.0156 10.6074 45.8167V37.6849C10.6074 36.9328 10.7823 36.3943 11.1465 36.0352C11.5108 35.6762 12.0596 35.5112 12.8221 35.5112H18.5823C18.7834 35.5088 18.9846 35.5185 19.1845 35.5403H19.2428C19.4802 35.5816 19.7086 35.6637 19.9179 35.7829C20.269 35.9799 20.5275 36.3079 20.6367 36.6951C20.7193 36.9668 20.7581 37.287 20.7581 37.68C20.7672 37.9695 20.7345 38.2587 20.661 38.5388C20.5997 38.7793 20.4943 39.0063 20.3502 39.2084L20.3307 39.2375L20.3065 39.2618C20.1236 39.4838 19.8809 39.6488 19.6071 39.7372C19.4325 39.7957 19.2515 39.8332 19.068 39.8488H19.0437C18.9368 39.8585 18.796 39.8585 18.5774 39.8585H18.3249C18.6684 40.0584 18.9209 40.3837 19.0291 40.7658C19.1117 41.0327 19.1505 41.3529 19.1505 41.7459C19.158 42.0372 19.1236 42.328 19.0485 42.6096C18.988 42.8494 18.8843 43.0763 18.7426 43.2791L18.7183 43.3082L18.6989 43.3325C18.5973 43.4536 18.4777 43.5583 18.3443 43.643H18.5823C18.7833 43.639 18.9845 43.6471 19.1845 43.6673L19.2428 43.677C19.4799 43.7166 19.7084 43.797 19.9179 43.9147C20.2693 44.1136 20.5277 44.4433 20.6367 44.8318C20.7193 45.0986 20.7581 45.4188 20.7581 45.8118C20.7672 46.1029 20.7345 46.3937 20.661 46.6755C20.5996 46.9144 20.4942 47.1398 20.3502 47.3402L20.3307 47.3693L20.3113 47.3936C20.1275 47.6168 19.8829 47.7819 19.6071 47.8691C19.4325 47.9275 19.2515 47.965 19.068 47.9806H19.0437L18.5774 47.9903H12.7201V48.0001ZM12.3802 46.1951C12.5027 46.2243 12.6282 46.2389 12.7541 46.2388H18.9563C18.9852 46.1147 18.9998 45.9878 19 45.8604V45.8361C19.0052 45.6996 18.9954 45.5629 18.9708 45.4285C18.8513 45.418 18.7313 45.4148 18.6114 45.4188H13.201V42.1729H17.3098L17.3487 42.1632C17.3786 42.041 17.3917 41.9153 17.3875 41.7896V41.7702C17.3904 41.6337 17.3807 41.4973 17.3584 41.3626C17.2375 41.3481 17.1157 41.3432 16.9941 41.3481H13.201V38.1021H18.9563C18.9854 37.9798 19.0001 37.8544 19 37.7285V37.7043C19.0055 37.5678 18.9957 37.4311 18.9708 37.2967C18.8543 37.287 18.728 37.2822 18.6114 37.2822H12.8076C12.6721 37.2776 12.5366 37.2906 12.4044 37.321C12.3791 37.4438 12.3677 37.5692 12.3704 37.6946V45.8167C12.3704 46.0059 12.3704 46.1127 12.3753 46.1709C12.375 46.1792 12.3767 46.1875 12.3802 46.1951Z" fill="black"/>
<path d="M28.9074 47.9952H28.9025C28.3877 47.9952 28.0429 47.9515 27.7854 47.8448C27.4903 47.7296 27.2331 47.5347 27.0424 47.2819L24.2934 43.6285V45.8215C24.2958 46.0257 24.2861 46.2298 24.2643 46.4329L24.2546 46.4959C24.2149 46.7282 24.1343 46.9516 24.0166 47.1558C23.817 47.5044 23.4896 47.7619 23.1035 47.8739C22.8315 47.9564 22.5061 47.9952 22.1127 47.9952H22.1078C21.7144 47.9952 21.3939 47.9564 21.1268 47.869C20.7433 47.7567 20.4191 47.499 20.2234 47.1509C20.1034 46.9374 20.0228 46.704 19.9854 46.462V46.4183C19.9612 46.2155 19.9514 46.0112 19.9563 45.807V37.6606C19.9523 37.4496 19.9653 37.2387 19.9951 37.0298L20.0049 36.9716C20.0496 36.7575 20.1266 36.5514 20.2331 36.3603C20.3643 36.1225 20.6265 35.812 21.1316 35.6568C21.4557 35.5666 21.7909 35.5225 22.1273 35.5258C22.4353 35.5219 22.7424 35.5594 23.0404 35.6373L23.0695 35.6471C23.3803 35.7441 23.5989 35.8654 23.7689 36.0255L23.7834 36.0401C23.9052 36.1569 24.0173 36.2835 24.1186 36.4185L24.2108 36.5301C25.2162 37.8983 26.0661 39.0434 26.7461 39.9604V37.6606C26.7421 37.4496 26.7551 37.2387 26.7849 37.0298L26.7947 36.9716C26.8395 36.7575 26.9164 36.5514 27.0229 36.3603C27.1541 36.1225 27.4163 35.812 27.9263 35.6568C28.1934 35.5743 28.5237 35.5306 28.9219 35.5258C29.2086 35.5207 29.4946 35.555 29.7719 35.6276C30.0188 35.6864 30.2516 35.7936 30.4567 35.943L30.4907 35.9721L30.5198 35.9964C30.7265 36.1811 30.8807 36.4171 30.9667 36.6805C31.0257 36.8548 31.0632 37.0357 31.0784 37.2191V37.2482C31.0832 37.3598 31.0881 37.515 31.0881 37.714V45.8215C31.0881 46.0253 31.0784 46.2291 31.0589 46.4329L31.0492 46.4959C31.0095 46.7282 30.929 46.9516 30.8112 47.1558C30.6117 47.5044 30.2842 47.7619 29.8982 47.8739C29.6262 47.9564 29.3008 47.9952 28.9074 47.9952ZM28.4411 46.2097C28.5942 46.2277 28.7483 46.2358 28.9025 46.2339C29.0391 46.2368 29.1757 46.2271 29.3105 46.2048C29.3202 46.0835 29.3251 45.9622 29.3251 45.8458V37.714C29.3251 37.5199 29.3202 37.4131 29.3202 37.3598C29.3163 37.3506 29.3146 37.3406 29.3153 37.3307C29.1944 37.3018 29.0705 37.2872 28.9462 37.287H28.9365C28.7966 37.2876 28.657 37.299 28.5188 37.321C28.5091 37.4229 28.5043 37.5247 28.5043 37.6315V45.1811L26.9258 43.1336C26.2313 42.236 24.8422 40.3728 22.7975 37.5927L22.7247 37.4956L22.5984 37.3501L22.5498 37.3355C22.423 37.3024 22.2924 37.2861 22.1613 37.287H22.1418C22.0036 37.2878 21.8656 37.2991 21.729 37.321C21.7168 37.424 21.7119 37.5278 21.7144 37.6315V45.8264C21.7144 45.9525 21.7193 46.0787 21.729 46.2048C21.8546 46.2219 21.9812 46.23 22.1078 46.2291H22.1127C22.2477 46.2321 22.3827 46.2223 22.5158 46.2C22.5255 46.0787 22.5304 45.9574 22.5304 45.8409V38.4321L24.1088 40.4796C24.7985 41.3723 26.2556 43.2985 28.4411 46.2097Z" fill="black"/>
<path d="M32.5943 47.9806C32.2954 47.9815 31.9979 47.9406 31.7103 47.8593H31.6812C31.1907 47.704 30.9284 47.4081 30.7973 47.1849C30.6625 46.969 30.5732 46.728 30.535 46.4765V46.4474C30.509 46.2317 30.4977 46.0145 30.501 45.7972V37.6751C30.497 37.471 30.5051 37.2669 30.5253 37.0638V36.9958C30.5675 36.7651 30.6497 36.5434 30.7681 36.3408C30.8651 36.1667 30.9958 36.0135 31.1525 35.8903C31.3093 35.767 31.489 35.6761 31.6812 35.6228C32.0018 35.5321 32.334 35.4895 32.6671 35.4966H32.6769L34.027 35.5063H35.3821C37.0237 35.5063 38.4856 36.1031 39.7241 37.2773C40.9626 38.4514 41.6085 39.9458 41.6085 41.6828C41.6085 43.4198 40.9917 44.8899 39.7824 46.1223C38.573 47.3547 37.0723 47.9757 35.3384 47.9757H32.5943V47.9806ZM32.2737 46.1854C32.393 46.2135 32.5156 46.2249 32.638 46.2193H35.3432C36.6011 46.2193 37.6454 45.7827 38.5293 44.8899C39.4132 43.9972 39.8503 42.9394 39.8503 41.6877C39.8503 40.4359 39.4132 39.4121 38.5147 38.5582C37.6162 37.7042 36.5769 37.2724 35.3869 37.2724H34.0173L32.6769 37.2627C32.5403 37.26 32.4037 37.2698 32.2689 37.2918C32.2584 37.4128 32.2551 37.5343 32.2592 37.6557V45.8118C32.2566 45.9365 32.2615 46.0612 32.2737 46.1854ZM35.3869 45.3945H33.0848V38.1021H35.3724C36.3486 38.1021 37.2082 38.4514 37.9271 39.1452C38.6459 39.8391 39.0198 40.7221 39.0198 41.7459C39.0198 42.7696 38.641 43.6866 37.8882 44.3805C37.1354 45.0743 36.3146 45.3945 35.3869 45.3945ZM34.8478 43.6333H35.3869C35.8629 43.6333 36.2903 43.4537 36.6934 43.085C37.0965 42.7163 37.2568 42.3038 37.2568 41.7459C37.2568 41.1879 37.082 40.7803 36.7031 40.4116C36.3243 40.0429 35.8921 39.8633 35.3724 39.8633H34.8478V43.6333Z" fill="black"/>
<path d="M5.48883 44.9482H9.47141C9.61587 44.9467 9.76027 44.9548 9.90366 44.9724C10.0126 44.9928 10.1175 45.0305 10.2145 45.084C10.3359 45.1422 10.4185 45.249 10.4671 45.4042C10.5205 45.6101 10.5451 45.8224 10.5399 46.035C10.5448 46.2428 10.5203 46.4502 10.4671 46.6512C10.4485 46.72 10.4161 46.7843 10.3719 46.8402C10.3276 46.8961 10.2724 46.9424 10.2096 46.9763C10.1066 47.0338 9.99517 47.0747 9.87938 47.0976C9.73914 47.1137 9.59796 47.1202 9.45684 47.117H4.18235C3.96955 47.1215 3.75713 47.0971 3.55097 47.0442C3.41487 47.0101 3.28637 46.9509 3.17213 46.8695C3.07787 46.7907 3.00866 46.6862 2.97301 46.5687C2.93442 46.4607 2.90994 46.3482 2.90015 46.2339C2.8953 46.1417 2.8953 46.001 2.8953 45.8166V37.68C2.89216 37.5116 2.89865 37.3431 2.91472 37.1754C2.93967 37.0391 2.98728 36.9079 3.05557 36.7872C3.09718 36.7125 3.15347 36.6468 3.22107 36.5943C3.28866 36.5418 3.36618 36.5034 3.44897 36.4816C3.63353 36.4233 3.88608 36.3942 4.19692 36.3942C4.40974 36.3891 4.62225 36.4136 4.8283 36.467C4.964 36.5022 5.0923 36.5613 5.20713 36.6417C5.30274 36.7192 5.37224 36.8242 5.40626 36.9425C5.44435 37.0506 5.46882 37.1631 5.47912 37.2773C5.48397 37.3743 5.48883 37.5102 5.48883 37.6945V44.9482Z" fill="#8D9EFF"/>
<path d="M14.0799 44.526H18.5918C18.7605 44.5245 18.9292 44.5326 19.0969 44.5503C19.2337 44.5713 19.3654 44.6174 19.4855 44.6861C19.5605 44.7287 19.6262 44.7858 19.6788 44.8541C19.7313 44.9225 19.7696 45.0006 19.7915 45.084C19.8497 45.2684 19.8789 45.5158 19.8789 45.8263C19.884 46.0389 19.8595 46.2512 19.806 46.4571C19.7699 46.5938 19.7108 46.7234 19.6312 46.8404C19.5519 46.933 19.4472 47.0004 19.3301 47.0345C19.2221 47.0745 19.1095 47.1006 18.9949 47.1121H12.7782C12.5654 47.1169 12.353 47.0924 12.1469 47.0393C12.0104 47.0063 11.8817 46.9469 11.768 46.8646C11.6724 46.7871 11.6029 46.6821 11.5689 46.5638C11.5303 46.4558 11.5058 46.3433 11.496 46.229C11.4912 46.1368 11.4863 45.9961 11.4863 45.8118V37.68C11.4863 37.1851 11.5835 36.8454 11.768 36.6611C11.9526 36.4767 12.3023 36.3893 12.8219 36.3942H18.5918C18.7604 36.3911 18.9291 36.3975 19.0969 36.4136C19.2334 36.4385 19.3647 36.4861 19.4855 36.5543C19.5603 36.5959 19.626 36.6521 19.6786 36.7196C19.7312 36.7872 19.7696 36.8646 19.7915 36.9473C19.8497 37.1365 19.8789 37.384 19.8789 37.6945C19.884 37.9071 19.8595 38.1194 19.806 38.3253C19.773 38.4616 19.7136 38.5901 19.6312 38.7037C19.5535 38.7992 19.4484 38.8686 19.3301 38.9026C19.222 38.9412 19.1093 38.9656 18.9949 38.9754L18.5773 38.9851H14.0799V40.4601H16.9794C17.1481 40.4584 17.3167 40.4665 17.4845 40.4844C17.6216 40.5038 17.7537 40.55 17.873 40.6202C17.9486 40.6627 18.015 40.7197 18.0683 40.788C18.1217 40.8563 18.161 40.9345 18.1839 41.0181C18.2421 41.2024 18.2713 41.4499 18.2713 41.7653C18.2759 41.9779 18.2514 42.1901 18.1984 42.396C18.1627 42.5322 18.1017 42.6606 18.0187 42.7745C17.9408 42.8687 17.8356 42.9365 17.7176 42.9685C17.6064 43.0087 17.4905 43.0348 17.3728 43.0462H14.0799V44.526Z" fill="#8D9EFF"/>
<path d="M28.9314 36.4088C29.1411 36.404 29.3503 36.4285 29.5531 36.4816C29.6896 36.5146 29.8183 36.574 29.9319 36.6563C30.0224 36.7365 30.0881 36.8409 30.1214 36.9571C30.1615 37.0649 30.1876 37.1774 30.1991 37.2919C30.2039 37.3889 30.2039 37.5248 30.2039 37.7091V45.8264C30.2073 45.9981 30.2008 46.1698 30.1845 46.3407C30.1595 46.474 30.1119 46.602 30.0437 46.7192C30.0021 46.7945 29.9459 46.8608 29.8783 46.9141C29.8108 46.9674 29.7332 47.0067 29.6503 47.0297C29.4608 47.0879 29.2131 47.117 28.9023 47.117C28.5915 47.117 28.2564 47.0879 28.1106 47.0297C27.9652 46.9718 27.839 46.8743 27.7464 46.7483C25.5479 43.8242 24.1022 41.9141 23.4093 41.0182V45.8264C23.4126 45.9981 23.4061 46.1698 23.3898 46.3407C23.3648 46.474 23.3172 46.602 23.249 46.7192C23.2074 46.7945 23.1512 46.8608 23.0837 46.9141C23.0161 46.9674 22.9386 47.0067 22.8556 47.0297C22.6662 47.0879 22.4185 47.117 22.1076 47.117C21.7968 47.117 21.5637 47.0879 21.384 47.0297C21.2187 46.9812 21.0791 46.8696 20.9954 46.7192C20.9243 46.5981 20.8765 46.4648 20.8546 46.3261C20.8367 46.1553 20.8286 45.9836 20.8303 45.8118V37.6509C20.8295 37.4854 20.8409 37.3199 20.8643 37.156C20.8899 37.0267 20.9358 36.9023 21.0003 36.7873C21.0731 36.6514 21.2043 36.5544 21.3888 36.4962C21.5734 36.4379 21.8259 36.4088 22.1368 36.4088C22.3611 36.4032 22.5852 36.4293 22.8022 36.4865C22.9722 36.5398 23.0936 36.5981 23.1616 36.666C23.2541 36.76 23.3416 36.8588 23.4238 36.962L23.4967 37.0493C25.556 39.8472 26.9321 41.6958 27.625 42.595V37.6509C27.6201 37.4854 27.6299 37.3198 27.6541 37.156C27.6797 37.0267 27.7256 36.9023 27.7901 36.7873C27.863 36.6514 27.9941 36.5544 28.1786 36.4962C28.3632 36.4379 28.6158 36.4088 28.9314 36.4088Z" fill="#8D9EFF"/>
<path d="M40.7294 41.6876C40.7294 43.1723 40.2049 44.4451 39.1558 45.5061C38.1067 46.567 36.8359 47.0991 35.3432 47.1024H32.6623C32.4213 47.1074 32.1809 47.078 31.9483 47.015C31.7589 46.9568 31.6278 46.8598 31.55 46.7288C31.4773 46.6063 31.4279 46.4714 31.4043 46.3309C31.3848 46.1537 31.3751 45.9755 31.3752 45.7972V37.6654C31.3736 37.4953 31.3817 37.3252 31.3995 37.1559C31.422 37.0212 31.468 36.8915 31.5355 36.7726C31.5781 36.6977 31.6352 36.6321 31.7036 36.5796C31.772 36.5271 31.8503 36.4888 31.9337 36.467C32.1183 36.4087 32.366 36.3796 32.6817 36.3796H34.027L35.3869 36.3893C36.8002 36.3893 38.0484 36.8988 39.1218 37.9177C40.1952 38.9366 40.7294 40.1981 40.7294 41.6876ZM38.1407 41.7459C38.1407 40.9696 37.8639 40.3097 37.3151 39.7808C36.7662 39.252 36.1154 38.9803 35.3723 38.9803H33.9687V44.5115H35.3869C36.0912 44.5115 36.7225 44.2543 37.2908 43.7303C37.859 43.2063 38.1407 42.5464 38.1407 41.7459Z" fill="#8D9EFF"/>
<path d="M3.1949 36.6902L3.06863 36.5203C2.09727 35.2152 1.45617 33.6626 1.16476 31.911C0.839354 29.9557 0.839354 27.913 1.16476 25.8364C1.4704 23.888 2.03386 21.9889 2.84036 20.1888L2.76265 20.0821V20.0626C1.65044 18.1947 0.81507 15.2204 0.528519 12.1055C0.416812 10.9265 0.164259 6.99643 1.49988 5.98238C1.92728 5.65731 2.57809 5.49719 3.48145 5.49719C6.84236 5.49719 13.0348 7.79215 14.6132 8.40349C15.7345 7.95737 16.9003 7.63207 18.0907 7.43311C18.9575 7.28858 19.8346 7.21394 20.7134 7.20992C21.1796 6.82176 22.9475 5.34678 24.9777 3.89606C28.188 1.5914 30.529 0.417236 31.9277 0.417236C32.1435 0.417895 32.3579 0.450599 32.564 0.514275C34.1522 1.04799 35.1818 4.84704 35.4538 5.99694C36.1629 8.93235 36.3426 11.9114 35.9492 14.0269C39.1061 17.2534 41.2042 21.2271 41.8648 25.2348C42.263 27.6219 41.9328 29.8344 40.8885 31.814C39.9366 33.6237 38.3873 35.2394 36.2843 36.6222L36.1774 36.6902H3.1949Z" fill="#5959FF"/>
<path d="M31.9291 0.844194C32.1004 0.839372 32.2713 0.863989 32.4342 0.916973C34.3769 1.56713 36.4459 9.66983 35.494 14.1676C38.5538 17.2437 40.7588 21.1446 41.4485 25.3076C42.2401 30.0915 39.9671 33.7014 36.0477 36.2729H3.40513C2.50176 35.055 1.87038 33.5898 1.58382 31.8431C0.93787 27.9373 1.64696 23.818 3.33713 20.1112C3.25526 20.0335 3.18198 19.9473 3.11857 19.854C0.767882 15.8948 0.117071 7.55925 1.7441 6.32201C2.11807 6.03574 2.72032 5.9193 3.47312 5.9193C6.86802 5.9193 13.2499 8.32585 14.6049 8.85471C16.572 8.03854 18.6819 7.62127 20.8119 7.62717H20.8605C20.8605 7.62717 28.7771 0.839342 31.9243 0.839342L31.9291 0.844194ZM31.9243 -3.90439e-05C30.4187 -3.90439e-05 28.0631 1.15957 24.7216 3.55156C22.7935 4.92951 21.147 6.28804 20.5496 6.78779C18.5127 6.81352 16.4972 7.20635 14.6001 7.9474C13.7161 7.60776 11.9871 6.97216 10.0492 6.38023C7.208 5.51659 4.99816 5.07506 3.47312 5.07506C2.47262 5.07506 1.73924 5.26429 1.23414 5.64759C0.646462 6.09882 0.277345 6.95761 0.102501 8.29188C-0.0334898 9.36416 -0.0383466 10.6936 0.0976438 12.1443C0.389052 15.2883 1.23414 18.3062 2.36091 20.2324C1.59236 22.0043 1.0506 23.866 0.748455 25.7733C0.418193 27.8936 0.418193 29.9848 0.748455 31.9838C1.04958 33.7984 1.71496 35.4141 2.73003 36.7726L2.98258 37.1123H36.3051L36.5139 36.9716C38.6801 35.5548 40.278 33.8809 41.2639 32.0129C42.3518 29.9508 42.6918 27.6462 42.2838 25.1717C41.9341 23.0417 41.1959 20.9408 40.108 18.9273C39.1049 17.0898 37.8584 15.3957 36.4022 13.891C36.7568 11.7367 36.5625 8.79163 35.868 5.89989C35.528 4.48798 35.0958 3.22649 34.6198 2.2561C34.0273 1.04797 33.4007 0.349299 32.7014 0.116407C32.4517 0.0371212 32.1911 -0.00218065 31.9291 -3.90439e-05H31.9243Z" fill="black"/>
<path d="M24.682 32.6242C24.2563 32.6234 23.8392 32.5041 23.4775 32.2797C23.1543 32.0816 22.8848 31.8071 22.6926 31.4806C22.5004 31.1541 22.3913 30.7854 22.375 30.4069C22.3808 30.3223 22.4176 30.2429 22.4784 30.1837C22.5391 30.1246 22.6196 30.0899 22.7044 30.0863C22.7891 30.0827 22.8723 30.1104 22.9378 30.1642C23.0034 30.218 23.0468 30.294 23.0598 30.3778C23.0713 30.6445 23.1481 30.9044 23.2836 31.1345C23.4191 31.3646 23.6091 31.5579 23.8369 31.6975C24.0193 31.8102 24.2223 31.8854 24.4341 31.9187C24.646 31.952 24.8623 31.9428 25.0705 31.8916C25.2787 31.8431 25.4751 31.7533 25.6478 31.6274C25.8205 31.5015 25.9661 31.3422 26.0759 31.159C26.1885 30.9772 26.2641 30.7751 26.2982 30.5641C26.3323 30.3531 26.3243 30.1374 26.2747 29.9295C26.225 29.7216 26.1347 29.5256 26.0089 29.3527C25.8831 29.1798 25.7243 29.0335 25.5416 28.9222C25.5027 28.8993 25.4688 28.8688 25.4418 28.8326C25.4148 28.7964 25.3953 28.7552 25.3845 28.7113C25.3736 28.6675 25.3716 28.622 25.3786 28.5774C25.3856 28.5328 25.4014 28.49 25.4251 28.4516C25.4489 28.4129 25.4802 28.3794 25.517 28.3529C25.5539 28.3263 25.5956 28.3073 25.6398 28.297C25.6841 28.2866 25.7299 28.285 25.7747 28.2924C25.8196 28.2998 25.8625 28.316 25.901 28.34C26.2909 28.5795 26.601 28.929 26.7922 29.3444C26.9834 29.7597 27.0472 30.2224 26.9755 30.6739C26.9038 31.1255 26.6998 31.5457 26.3893 31.8816C26.0788 32.2174 25.6757 32.4539 25.2308 32.5612C25.0506 32.6013 24.8666 32.6224 24.682 32.6242Z" fill="black"/>
<path d="M20.7733 33.2065C20.3576 33.2078 19.9494 33.0953 19.5931 32.8814C19.2985 32.7081 19.0462 32.4715 18.8543 32.1887C18.6625 31.906 18.536 31.5842 18.4839 31.2466C18.4319 30.909 18.4556 30.5641 18.5533 30.2368C18.6511 29.9095 18.8204 29.608 19.0491 29.3541C19.0791 29.3206 19.1154 29.2934 19.1559 29.274C19.1964 29.2545 19.2403 29.2432 19.2852 29.2408C19.3301 29.2383 19.375 29.2447 19.4174 29.2595C19.4598 29.2744 19.4989 29.2974 19.5324 29.3274C19.5659 29.3573 19.5931 29.3936 19.6126 29.4341C19.632 29.4745 19.6433 29.5184 19.6458 29.5633C19.6483 29.6081 19.6419 29.653 19.627 29.6953C19.6122 29.7377 19.5891 29.7767 19.5591 29.8102C19.3823 30.0095 19.2567 30.2488 19.1932 30.5075C19.1297 30.7662 19.1303 31.0364 19.1948 31.2948C19.2747 31.6068 19.4452 31.8881 19.6849 32.1033C19.9246 32.3185 20.2228 32.458 20.5417 32.5042C20.8607 32.5504 21.1862 32.5012 21.4772 32.3628C21.7682 32.2245 22.0117 32.0031 22.1769 31.7267C22.2874 31.5435 22.3599 31.34 22.3899 31.1283C22.42 30.9165 22.407 30.7009 22.3518 30.4943C22.3309 30.4062 22.3451 30.3135 22.3913 30.2357C22.4375 30.1579 22.5121 30.101 22.5995 30.077C22.6431 30.0654 22.6887 30.0626 22.7335 30.0688C22.7783 30.075 22.8214 30.09 22.8603 30.1131C22.8992 30.1361 22.9331 30.1667 22.96 30.203C22.987 30.2393 23.0064 30.2806 23.0171 30.3245C23.0937 30.6185 23.1108 30.9249 23.0675 31.2256C23.0241 31.5264 22.9211 31.8155 22.7646 32.076C22.5618 32.423 22.2708 32.7103 21.9211 32.9088C21.5715 33.1073 21.1755 33.21 20.7733 33.2065Z" fill="black"/>
<path d="M27.1593 25.7055C26.4528 25.7018 25.7709 25.446 25.2365 24.9843C24.7022 24.5225 24.3506 23.8852 24.2452 23.1873L23.9587 21.2611C23.9497 21.2066 23.9516 21.1508 23.9644 21.0971C23.9772 21.0433 24.0005 20.9926 24.033 20.9479C24.0655 20.9033 24.1066 20.8655 24.1539 20.8368C24.2012 20.8081 24.2537 20.789 24.3084 20.7808C24.4191 20.7641 24.532 20.792 24.6222 20.8584C24.7123 20.9249 24.7724 21.0243 24.7892 21.135L25.0757 23.066C25.1733 23.6063 25.4777 24.0874 25.9243 24.4071C26.371 24.7269 26.9249 24.8602 27.4683 24.7787C28.0118 24.6973 28.5021 24.4075 28.8352 23.9709C29.1683 23.5343 29.318 22.9852 29.2526 22.4401L28.966 20.5139C28.9577 20.4595 28.9603 20.4039 28.9735 20.3504C28.9867 20.2969 29.0103 20.2465 29.043 20.2021C29.0757 20.1577 29.1168 20.1202 29.164 20.0917C29.2113 20.0632 29.2636 20.0443 29.3182 20.036C29.3727 20.0277 29.4283 20.0303 29.4819 20.0435C29.5354 20.0567 29.5859 20.0803 29.6303 20.1129C29.6747 20.1456 29.7122 20.1867 29.7408 20.2338C29.7693 20.281 29.7883 20.3333 29.7965 20.3878L30.088 22.314C30.2035 23.0886 30.0065 23.8773 29.5402 24.5069C29.0739 25.1364 28.3765 25.5553 27.6013 25.6715C27.4548 25.6925 27.3072 25.7038 27.1593 25.7055Z" fill="black"/>
<path d="M15.2848 8.59277C15.2848 8.59277 16.7856 9.38849 16.6933 11.2662C16.601 13.2264 15.3091 13.0808 15.5519 15.2496C15.7948 17.4184 21.5161 21.5474 18.7283 27.8452C15.9842 34.0556 3.59934 32.4254 1.37493 29.9849C0.840681 23.4154 5.05638 16.9914 5.05638 16.9914C5.05638 16.9914 10.1949 9.7912 15.2848 8.59277Z" fill="#6678FF"/>
<path d="M15.8964 27.0446C15.1963 27.0443 14.5192 26.7953 13.9862 26.3419C13.4532 25.8885 13.099 25.2604 12.9872 24.5701L12.6958 22.6439C12.6861 22.5885 12.6876 22.5317 12.7001 22.4769C12.7127 22.422 12.7362 22.3703 12.7691 22.3246C12.8019 22.279 12.8436 22.2403 12.8917 22.211C12.9397 22.1817 12.9932 22.1622 13.0488 22.1538C13.1045 22.1454 13.1613 22.1482 13.2159 22.1621C13.2705 22.1759 13.3217 22.2005 13.3667 22.2344C13.4116 22.2683 13.4493 22.3108 13.4775 22.3595C13.5058 22.4081 13.524 22.4619 13.5311 22.5177L13.8177 24.4439C13.9171 24.9819 14.2217 25.4603 14.6673 25.7782C15.1129 26.0962 15.6647 26.2289 16.2063 26.1484C16.7479 26.0678 17.2371 25.7804 17.5707 25.3465C17.9043 24.9127 18.0563 24.3665 17.9945 23.8229L17.708 21.8967C17.699 21.8424 17.701 21.787 17.7138 21.7335C17.7266 21.6801 17.75 21.6297 17.7826 21.5854C17.8152 21.5411 17.8563 21.5037 17.9035 21.4755C17.9508 21.4474 18.0032 21.4289 18.0577 21.4212C18.1126 21.4123 18.1688 21.4144 18.2229 21.4274C18.277 21.4405 18.3279 21.4642 18.3727 21.4972C18.4175 21.5302 18.4552 21.5718 18.4837 21.6196C18.5122 21.6673 18.5308 21.7203 18.5385 21.7754L18.8299 23.7064C18.9322 24.4678 18.7332 25.239 18.2751 25.856C17.8171 26.4731 17.1362 26.8873 16.3772 27.0106C16.218 27.0339 16.0573 27.0453 15.8964 27.0446Z" fill="black"/>
<path d="M10.2131 12.1347C10.2131 12.1347 8.35779 9.56801 6.4005 8.22403C4.44321 6.88005 2.95217 6.22989 2.13137 6.6229C1.09687 7.1275 1.03859 10.3201 1.63598 13.5951C2.23336 16.8701 3.15616 18.4082 3.57384 19.2573C3.99153 20.1064 10.2131 12.1347 10.2131 12.1347Z" fill="#6678FF"/>
<path opacity="0.2" d="M30.4284 9.82514C30.0533 11.0912 29.1987 12.1611 28.0463 12.8075C26.8938 13.4538 25.5344 13.6256 24.2571 13.2862C22.9799 12.9468 21.8855 12.1231 21.2068 10.9902C20.528 9.85729 20.3184 8.50456 20.6225 7.21966C20.6225 7.21966 22.6381 5.33712 29.6999 1.26636C36.7228 -2.60062 36.174 13.663 36.174 13.663L30.4284 9.82514Z" fill="black"/>
<path d="M26.7461 8.40836C26.7461 8.40836 27.392 6.11826 28.7957 4.20175C30.1993 2.28525 31.3795 1.1693 32.2877 1.27119C33.429 1.4022 34.5461 4.39583 35.0706 7.68057C35.5952 10.9653 35.2455 12.7266 35.1289 13.663C34.5121 12.6441 26.7461 8.40836 26.7461 8.40836Z" fill="#6678FF"/>
<path d="M36.4994 37.1123H2.82723L2.6961 36.9376C1.70531 35.5985 1.04964 34.0167 0.753378 32.2312C0.131708 28.4564 0.685383 24.3954 2.36584 20.4896C3.97829 16.7391 6.57668 13.3621 9.68504 10.9701C9.72968 10.9357 9.78067 10.9105 9.8351 10.8957C9.88953 10.881 9.94633 10.8771 10.0023 10.8844C10.0582 10.8916 10.1121 10.9097 10.161 10.9377C10.2099 10.9658 10.2528 11.0032 10.2873 11.0478C10.3217 11.0924 10.347 11.1433 10.3618 11.1977C10.3765 11.2521 10.3804 11.3088 10.3732 11.3647C10.3659 11.4205 10.3478 11.4744 10.3197 11.5233C10.2916 11.5721 10.2542 11.615 10.2096 11.6494C3.94915 16.4674 0.408545 24.8757 1.60332 32.0905C1.86559 33.6626 2.42412 35.0599 3.26434 36.2486H36.242C40.414 33.4685 42.1722 29.8732 41.4582 25.5599C40.2246 18.1219 34.0322 11.2176 26.3924 8.77223C26.292 8.73096 26.2108 8.65345 26.165 8.5551C26.1191 8.45675 26.112 8.34477 26.1451 8.24143C26.1782 8.13809 26.2489 8.05097 26.3433 7.99739C26.4378 7.94381 26.5489 7.92769 26.6547 7.95225C30.4381 9.16523 34.0662 11.533 36.8783 14.6236C38.266 16.1428 39.4452 17.8397 40.3849 19.6696C41.3172 21.4763 41.9658 23.4155 42.3082 25.4191C42.7113 27.85 42.3713 30.1109 41.3077 32.1342C40.3363 33.9779 38.753 35.6276 36.6063 37.0395L36.4994 37.1123Z" fill="black"/>
<path d="M3.58962 37.9032C3.39213 37.9038 3.19645 37.8655 3.01381 37.7905C2.83117 37.7154 2.66516 37.6051 2.52528 37.4658C2.38541 37.3265 2.27443 37.161 2.19871 36.9788C2.12299 36.7966 2.08401 36.6013 2.08401 36.404C2.08317 36.2624 2.10447 36.1216 2.14715 35.9867C2.48227 34.8368 3.24478 33.9004 4.35213 33.2939C5.35264 32.7359 6.63969 32.4399 8.06273 32.4399C9.48577 32.4399 10.7728 32.7359 11.7782 33.289C12.8855 33.9052 13.6481 34.8368 13.9832 35.9867C14.0927 36.3695 14.0458 36.7801 13.8528 37.1284C13.6598 37.4768 13.3364 37.7344 12.9535 37.845C12.8177 37.8837 12.6771 37.9033 12.5358 37.9032H3.58962Z" fill="#5959FF"/>
<path d="M8.0627 32.8668C10.7097 32.8668 12.9341 33.9051 13.58 36.1079C13.658 36.3833 13.6235 36.6783 13.4843 36.9283C13.345 37.1784 13.1122 37.3631 12.8369 37.4422C12.7392 37.4713 12.6378 37.486 12.5358 37.4858H3.58958C3.30233 37.4858 3.02685 37.3718 2.82374 37.1689C2.62062 36.966 2.50651 36.6908 2.50651 36.4039C2.50677 36.3036 2.5215 36.2039 2.55023 36.1079C3.19132 33.9051 5.41574 32.8668 8.0627 32.8668ZM8.0627 32.0226C4.80864 32.0226 2.44338 33.4587 1.73914 35.8702C1.59804 36.3604 1.65737 36.8866 1.90412 37.3332C2.15087 37.7798 2.56489 38.1104 3.05533 38.2524C3.2293 38.3007 3.40902 38.3252 3.58958 38.3252H12.5358C12.7888 38.3259 13.0394 38.2766 13.2733 38.1804C13.5072 38.0841 13.7198 37.9427 13.8989 37.7642C14.078 37.5857 14.2201 37.3737 14.3171 37.1403C14.4141 36.9068 14.464 36.6566 14.464 36.4039C14.4647 36.2231 14.4386 36.0432 14.3863 35.8702C13.6869 33.4587 11.3216 32.0226 8.0627 32.0226Z" fill="black"/>
<path d="M10.1465 36.04C10.1465 36.04 10.4427 36.729 10.3408 37.3161L10.1465 36.04Z" fill="#5959FF"/>
<path d="M10.3404 37.7383H10.2724C10.1625 37.7193 10.0645 37.6576 9.99989 37.5667C9.93528 37.4758 9.9093 37.363 9.9276 37.2531C9.99074 36.8746 9.82561 36.37 9.75762 36.2099C9.71916 36.108 9.72164 35.9951 9.76453 35.895C9.80741 35.7949 9.88739 35.7152 9.98774 35.6725C10.0881 35.6299 10.201 35.6277 10.303 35.6664C10.4049 35.705 10.4879 35.7816 10.5347 35.88C10.5687 35.9624 10.8747 36.6999 10.7581 37.3889C10.7409 37.487 10.6896 37.5759 10.6131 37.6398C10.5367 37.7037 10.4401 37.7386 10.3404 37.7383Z" fill="black"/>
<path d="M6.52214 36.04C6.52214 36.04 6.07531 36.9182 6.2113 37.4859L6.52214 36.04Z" fill="#5959FF"/>
<path d="M6.21101 37.9031C6.1166 37.9044 6.02461 37.8733 5.95037 37.8151C5.87613 37.7568 5.82413 37.6748 5.80303 37.5829C5.63305 36.8891 6.09444 35.9527 6.14787 35.8508C6.1981 35.7517 6.28568 35.6766 6.39134 35.642C6.49699 35.6074 6.61207 35.6162 6.71126 35.6664C6.81044 35.7166 6.88561 35.8041 6.92022 35.9096C6.95483 36.0152 6.94605 36.1301 6.89581 36.2292C6.7404 36.5398 6.55098 37.1026 6.61898 37.384C6.63269 37.4378 6.6355 37.4939 6.62724 37.5489C6.61897 37.6038 6.5998 37.6566 6.57084 37.704C6.54189 37.7515 6.50373 37.7927 6.45862 37.8252C6.41351 37.8577 6.36235 37.8809 6.30814 37.8934C6.27642 37.9015 6.24369 37.9047 6.21101 37.9031Z" fill="black"/>
<path d="M26.8657 18.5487C27.9821 18.4452 28.8315 17.7622 28.7629 17.0231C28.6943 16.284 27.7336 15.7688 26.6172 15.8722C25.5007 15.9757 24.6513 16.6587 24.72 17.3978C24.7886 18.1369 25.7493 18.6522 26.8657 18.5487Z" fill="#6678FF"/>
<path d="M14.7485 20.3582C15.8585 20.1678 16.656 19.4177 16.5296 18.6829C16.4033 17.948 15.4011 17.5067 14.2911 17.6971C13.1811 17.8875 12.3836 18.6376 12.51 19.3724C12.6363 20.1072 13.6385 20.5486 14.7485 20.3582Z" fill="#5959FF"/>
<path opacity="0.2" d="M37.7187 16.2296C37.7187 16.2296 36.5822 18.1898 35.4991 18.9807C34.416 19.7715 32.4102 19.951 32.381 20.7273C32.3519 21.5036 35.8585 22.9447 39.8022 19.3494L37.7187 16.2296Z" fill="black"/>
<path opacity="0.2" d="M39.9955 19.6405C39.9955 19.6405 38.519 21.3629 37.3097 21.9403C36.1003 22.5177 34.0945 22.3285 33.9245 23.0854C33.7545 23.8423 36.9357 25.8995 41.4719 23.0902L39.9955 19.6405Z" fill="black"/>
<path d="M22.4871 27.2144C22.475 27.2471 22.4544 27.2761 22.4276 27.2985C22.4007 27.3208 22.3684 27.3357 22.3339 27.3416C22.2995 27.3475 22.264 27.3442 22.2313 27.3321C22.1985 27.32 22.1694 27.2995 22.1471 27.2726C21.7925 26.8699 21.1806 26.7195 20.6949 26.933C20.083 27.1998 19.7721 27.9519 20.0052 28.6214C20.2384 29.291 22.0694 30.601 22.7153 30.3972C23.4147 30.3002 24.7601 28.5244 24.8281 27.8451C24.896 27.1659 24.4249 26.5012 23.7741 26.4381C23.2593 26.3847 22.7251 26.7195 22.4871 27.2144Z" fill="black"/>
<path opacity="0.1" d="M35.7018 14.2307C35.7212 14.2792 40.6508 25.0893 35.6823 31.8383C34.133 33.944 31.6172 35.3705 28.8828 36.3312H36.2554C40.17 33.7597 42.4479 30.1547 41.6562 25.3707C40.9665 21.2078 38.7615 17.302 35.7018 14.2307Z" fill="black"/>
<path d="M30.8211 37.9032C30.6238 37.9038 30.4284 37.8655 30.246 37.7904C30.0636 37.7153 29.8979 37.6049 29.7584 37.4655C29.619 37.3262 29.5084 37.1606 29.4333 36.9785C29.3581 36.7963 29.3197 36.601 29.3203 36.404C29.3202 36.2628 29.3399 36.1224 29.3786 35.9867C29.7137 34.8368 30.4762 33.9004 31.5836 33.2939C32.5841 32.7359 33.8711 32.4399 35.299 32.4399C36.7269 32.4399 38.0091 32.7359 39.0096 33.289C40.117 33.9052 40.8795 34.8368 41.2146 35.9867C41.2696 36.1759 41.2867 36.3741 41.265 36.57C41.2432 36.7658 41.183 36.9555 41.0878 37.1281C40.9927 37.3006 40.8644 37.4528 40.7103 37.5758C40.5562 37.6988 40.3793 37.7903 40.1898 37.845C40.054 37.8837 39.9134 37.9033 39.7722 37.9032H30.8211Z" fill="#5959FF"/>
<path d="M35.2988 32.8668C37.9458 32.8668 40.1702 33.9051 40.8113 36.1079C40.8506 36.2442 40.8625 36.387 40.8463 36.528C40.8302 36.6689 40.7863 36.8053 40.7173 36.9293C40.6483 37.0533 40.5554 37.1624 40.444 37.2504C40.3326 37.3384 40.2049 37.4036 40.0682 37.4422C39.9721 37.4712 39.8723 37.4859 39.7719 37.4858H30.8209C30.534 37.4846 30.2593 37.3702 30.0564 37.1675C29.8536 36.9649 29.7391 36.6904 29.7378 36.4039C29.7381 36.3036 29.7528 36.2039 29.7815 36.1079C30.4226 33.9051 32.647 32.8668 35.294 32.8668H35.2988ZM35.294 32.0226C32.0399 32.0226 29.6747 33.4587 28.9704 35.8702C28.8307 36.3604 28.8906 36.886 29.1371 37.3322C29.3837 37.7785 29.7969 38.1093 30.2866 38.2524C30.4606 38.3007 30.6403 38.3252 30.8209 38.3252H39.7719C40.282 38.3252 40.7712 38.1228 41.1319 37.7625C41.4926 37.4021 41.6952 36.9134 41.6952 36.4039C41.6952 36.2235 41.6707 36.0439 41.6224 35.8702C40.9182 33.4587 38.5529 32.0226 35.2988 32.0226H35.294Z" fill="black"/>
<path d="M37.3789 36.04C37.3789 36.04 37.6752 36.729 37.5732 37.3161L37.3789 36.04Z" fill="#5959FF"/>
<path d="M37.5729 37.7383H37.5C37.39 37.7193 37.2921 37.6576 37.2275 37.5667C37.1628 37.4758 37.1369 37.363 37.1552 37.2531C37.2232 36.8746 37.058 36.37 36.99 36.2099C36.9516 36.108 36.9541 35.9951 36.997 35.895C37.0398 35.7949 37.1198 35.7152 37.2202 35.6725C37.3205 35.6299 37.4335 35.6277 37.5354 35.6664C37.6373 35.705 37.7204 35.7816 37.7671 35.88C37.8011 35.9624 38.1071 36.6999 37.9905 37.3938C37.9715 37.4905 37.9194 37.5777 37.8433 37.6405C37.7672 37.7033 37.6716 37.7379 37.5729 37.7383Z" fill="black"/>
<path d="M33.7546 36.04C33.7546 36.04 33.3077 36.9182 33.4437 37.4859L33.7546 36.04Z" fill="#5959FF"/>
<path d="M33.4434 37.9032C33.349 37.9045 33.257 37.8734 33.1828 37.8151C33.1086 37.7568 33.0566 37.6749 33.0355 37.5829C32.8655 36.8891 33.3269 35.9527 33.3803 35.8508C33.405 35.8016 33.4392 35.7578 33.481 35.7219C33.5227 35.6859 33.5712 35.6586 33.6236 35.6415C33.6759 35.6243 33.7312 35.6177 33.7861 35.622C33.8411 35.6263 33.8946 35.6414 33.9437 35.6664C33.9934 35.6907 34.0377 35.7246 34.0742 35.7661C34.1106 35.8076 34.1385 35.856 34.1561 35.9083C34.1737 35.9607 34.1808 36.016 34.1768 36.0711C34.1729 36.1262 34.158 36.18 34.1331 36.2293C33.9728 36.5398 33.7883 37.1026 33.8563 37.384C33.8826 37.4928 33.8647 37.6075 33.8064 37.703C33.7481 37.7985 33.6542 37.867 33.5454 37.8935C33.5121 37.9015 33.4777 37.9048 33.4434 37.9032Z" fill="black"/>
</g>
<defs>
<clipPath id="clip0_92_20657">
<rect width="42.4727" height="48" fill="white"/>
</clipPath>
</defs>
</svg>
