<svg width="33" height="33" viewBox="0 0 33 33" fill="none" xmlns="http://www.w3.org/2000/svg">
<path d="M16.0972 29.8886L3.11719 26.573L3.15385 8.67969L16.1339 11.9864L16.0972 29.8886Z" fill="#3F3FB4"/>
<path d="M16.1343 11.9863L3.1543 8.6796L17.5185 5.03516L29.866 8.35071L16.1343 11.9863Z" fill="#5959FF"/>
<path d="M29.866 8.34961L29.8293 26.2429L16.0977 29.8874L16.1343 11.9852L29.866 8.34961Z" fill="#4E4EDE"/>
<path d="M6.77539 27.5239L10.4421 28.4128V10.5461L6.77539 9.56836V27.5239Z" fill="#6678FF"/>
<path d="M25.1999 27.434L21.5332 28.4118V10.634L25.1999 9.65625V27.434Z" fill="#6678FF"/>
<path d="M10.4421 10.6349L23.9171 6.72383L20.8004 5.92383L6.77539 9.65716L10.4421 10.6349Z" fill="#8DA3FF"/>
<path d="M21.5335 10.6349L9.3418 7.0793L12.5501 6.2793L25.2001 9.65707L21.5335 10.6349Z" fill="#8DA3FF"/>
<path d="M16.0797 8.59848C17.4272 8.42959 18.8114 8.26959 20.0764 7.78959C20.6375 7.58538 21.1607 7.29418 21.6255 6.92736C22.0289 6.59848 22.3772 6.14514 22.4689 5.6207C22.6705 4.4207 21.6164 3.35403 20.4339 3.19403C19.2514 3.03403 17.9955 3.76292 17.2072 4.6607C16.4189 5.55848 15.9239 6.80292 16.1714 8.03848C16.1908 8.10684 16.2375 8.16492 16.3011 8.19992C16.3647 8.23493 16.44 8.244 16.5105 8.22514C16.581 8.20628 16.6409 8.16104 16.677 8.09936C16.7131 8.03768 16.7225 7.96462 16.703 7.89625C16.5289 6.99848 16.813 6.07403 17.3722 5.31848C17.9314 4.56292 18.8847 3.76292 19.9297 3.7007C20.4399 3.67148 20.9421 3.83382 21.3322 4.15403C21.6989 4.45625 21.9555 4.88292 21.9464 5.33625C21.9372 5.78959 21.6897 6.13625 21.378 6.4207C20.9985 6.76044 20.5571 7.02872 20.0764 7.21181C18.8297 7.73625 17.4272 7.89625 16.0797 8.06514C16.0075 8.06737 15.9389 8.09618 15.8878 8.14571C15.8367 8.19525 15.807 8.26179 15.8047 8.33181C15.8047 8.46514 15.933 8.61625 16.0797 8.59848Z" fill="#CCE1FF"/>
<path d="M16.171 8.06607C14.9518 7.91496 13.7051 7.75496 12.541 7.35496C12.0338 7.18319 11.5552 6.94064 11.1201 6.63496C10.781 6.37718 10.4693 6.05718 10.3501 5.6394C10.295 5.42942 10.295 5.20939 10.3501 4.99941C10.4098 4.77297 10.5227 4.56302 10.6801 4.38607C10.9949 4.02031 11.4398 3.7824 11.9268 3.7194C13.0085 3.57718 13.9985 4.2794 14.6585 5.03496C15.0197 5.4358 15.2913 5.90494 15.456 6.41274C15.6136 6.89243 15.6451 7.40269 15.5476 7.89718C15.5304 7.96547 15.5407 8.03756 15.5765 8.0987C15.6123 8.15984 15.6708 8.20541 15.7401 8.22607C15.7751 8.23551 15.8115 8.23817 15.8475 8.23388C15.8835 8.2296 15.9182 8.21847 15.9497 8.20112C15.9813 8.18377 16.0089 8.16056 16.0312 8.1328C16.0534 8.10505 16.0698 8.07331 16.0793 8.0394C16.2993 6.96385 15.9876 5.87052 15.3185 4.99052C14.6493 4.11052 13.531 3.22163 12.2935 3.16829C11.056 3.11496 9.83681 4.00385 9.75431 5.22163C9.67181 6.4394 10.7901 7.17718 11.7526 7.61274C13.1368 8.23496 14.6768 8.41274 16.171 8.5994C16.3176 8.61718 16.446 8.46607 16.446 8.33274C16.4437 8.26272 16.414 8.19618 16.3629 8.14664C16.3118 8.09711 16.2432 8.0683 16.171 8.06607Z" fill="#CCE1FF"/>
</svg>
