<svg width="92" height="89" viewBox="0 0 92 89" fill="none" xmlns="http://www.w3.org/2000/svg">
<path d="M71.9519 16.9025C71.7347 13.758 70.658 10.7336 68.8393 8.15926C66.0559 4.19675 61.8198 1.49423 57.0534 0.640074C52.2445 -0.295722 47.2599 0.65611 43.1341 3.29802C41.1231 4.57191 39.3774 6.22262 37.9931 8.15926C36.654 10.0827 35.7254 12.2613 35.2652 14.5593C34.7773 16.8449 34.771 19.2071 35.2467 21.4952C35.7224 23.7834 36.6696 25.9473 38.0281 27.8491C40.8168 31.806 45.0503 34.5069 49.814 35.3682C50.9647 35.6039 52.1366 35.7211 53.3113 35.718H53.4861C54.0938 35.7179 54.701 35.6829 55.3047 35.6131C58.307 35.3386 61.1986 34.3428 63.7332 32.7103C64.2228 32.3955 64.7125 32.0808 65.1671 31.7311L65.9015 31.1365L66.7409 30.3671L66.9857 30.0873C69.3319 27.7131 70.9464 24.7147 71.6371 21.449C71.8109 20.5725 71.9161 19.6839 71.9519 18.791C71.9869 18.162 71.9869 17.5315 71.9519 16.9025ZM69.6786 21.0643C69.2438 23.1294 68.3973 25.0857 67.1895 26.8162C65.9817 28.5468 64.4375 30.0161 62.649 31.1365C58.9622 33.4758 54.5239 34.3259 50.2336 33.5147C41.2806 31.801 35.4401 23.4774 37.2237 14.944C37.6508 12.8761 38.4943 10.9167 39.7028 9.18509C40.9113 7.45351 42.4595 5.98597 44.2533 4.8718C47.9388 2.52922 52.3784 1.67882 56.6687 2.49364C60.9187 3.27436 64.6959 5.68373 67.1955 9.20845C68.3955 10.9111 69.2348 12.8411 69.6618 14.8799C70.0888 16.9187 70.0945 19.0232 69.6786 21.0643Z" fill="#A49FDA"/>
<path d="M69.6778 21.0637C69.2431 23.1288 68.3965 25.085 67.1887 26.8156C65.9809 28.5462 64.4367 30.0155 62.6483 31.1359C58.9614 33.4751 54.5232 34.3253 50.2329 33.514C41.2798 31.8004 35.4393 23.4768 37.2229 14.9434C37.65 12.8755 38.4935 10.9161 39.702 9.18447C40.9105 7.45289 42.4588 5.98535 44.2525 4.87118C47.938 2.5286 52.3776 1.6782 56.6679 2.49302C60.9179 3.27374 64.6951 5.68311 67.1948 9.20783C68.3948 10.9105 69.234 12.8405 69.661 14.8792C70.088 16.918 70.0938 19.0226 69.6778 21.0637Z" fill="#C8C5E9"/>
<path d="M64.1523 11.1317C62.2109 8.37479 59.2552 6.50071 55.9336 5.9207C55.1165 5.75448 54.2844 5.67245 53.4505 5.67588C47.4002 5.67588 41.9794 9.73275 40.7553 15.6082C39.3914 22.288 43.9379 28.793 50.9325 30.122C51.7646 30.2613 52.6068 30.3315 53.4505 30.3318C55.9878 30.3388 58.4746 29.6231 60.62 28.2684C62.0167 27.3927 63.2227 26.2446 64.1661 24.8927C65.1094 23.5407 65.7708 22.0126 66.1108 20.3995C66.4368 18.803 66.4311 17.1564 66.0942 15.5621C65.7573 13.9679 65.0963 12.4598 64.1523 11.1317ZM65.3064 20.2596C64.0124 26.5198 57.6123 30.6116 51.0724 29.3526C44.5324 28.0936 40.2657 22.0083 41.5597 15.7481C42.8537 9.48794 49.2538 5.3961 55.7937 6.65513C62.3337 7.91416 66.6353 13.9995 65.3064 20.2596Z" fill="#A49FDA"/>
<path d="M55.7934 6.65539C49.2535 5.39636 42.8534 9.4882 41.5594 15.7484C40.2654 22.0085 44.5321 28.1288 51.0721 29.3529C57.612 30.5769 64.0121 26.52 65.3061 20.2599C66.6001 13.9997 62.3334 7.87944 55.7934 6.65539ZM54.8142 12.356C55.2511 12.149 55.7516 12.1209 56.209 12.2777C56.6663 12.4345 57.0443 12.7638 57.2623 13.1953C57.3589 13.408 57.4111 13.6381 57.4155 13.8716C57.42 14.1051 57.3767 14.3371 57.2883 14.5532C57.1998 14.7694 57.0682 14.9652 56.9013 15.1286C56.7345 15.292 56.536 15.4196 56.318 15.5036C55.876 15.7122 55.3702 15.7413 54.9072 15.5848C54.4441 15.4282 54.0597 15.0983 53.8349 14.6642C53.7443 14.4487 53.6978 14.2173 53.6982 13.9835C53.6985 13.7498 53.7457 13.5184 53.837 13.3033C53.9283 13.0881 54.0618 12.8934 54.2297 12.7307C54.3975 12.568 54.5963 12.4406 54.8142 12.356ZM50.1278 12.356C50.5647 12.149 51.0653 12.1209 51.5226 12.2777C51.98 12.4345 52.3579 12.7638 52.5759 13.1953C52.6717 13.4102 52.7222 13.6424 52.7244 13.8776C52.7265 14.1128 52.6802 14.3459 52.5883 14.5624C52.4965 14.779 52.361 14.9743 52.1904 15.1362C52.0198 15.2981 51.8177 15.4231 51.5967 15.5036C51.1598 15.7106 50.6592 15.7387 50.2019 15.5819C49.7445 15.4251 49.3666 15.0958 49.1486 14.6642C49.0528 14.4494 49.0023 14.2171 49.0001 13.9819C48.998 13.7468 49.0443 13.5136 49.1362 13.2971C49.228 13.0806 49.3635 12.8853 49.5341 12.7234C49.7047 12.5615 49.9068 12.4364 50.1278 12.356ZM46.001 17.6719C45.9104 17.4564 45.8638 17.225 45.8642 16.9912C45.8646 16.7574 45.9118 16.5261 46.0031 16.3109C46.0944 16.0957 46.2279 15.901 46.3957 15.7383C46.5636 15.5756 46.7623 15.4482 46.9802 15.3637C47.4172 15.1566 47.9177 15.1286 48.375 15.2854C48.8324 15.4422 49.2104 15.7715 49.4284 16.203C49.5241 16.4178 49.5747 16.6501 49.5768 16.8853C49.5789 17.1205 49.5326 17.3536 49.4408 17.5701C49.3489 17.7866 49.2135 17.9819 49.0429 18.1438C48.8722 18.3058 48.6701 18.4308 48.4491 18.5112C48.0109 18.7093 47.5136 18.7328 47.0587 18.5768C46.6038 18.4208 46.2255 18.0972 46.001 17.6719ZM53.2404 24.1069C50.3726 24.1069 48.0644 22.743 48.0644 21.0293C48.0644 19.9101 49.1136 18.9309 50.6174 18.4063C50.7522 17.8111 51.0851 17.2793 51.5616 16.898C52.0382 16.5168 52.6301 16.3087 53.2404 16.3079C53.8481 16.3038 54.4383 16.5107 54.9104 16.8934C55.3824 17.2762 55.7069 17.8109 55.8284 18.4063C57.3672 18.9309 58.4164 19.9101 58.4164 21.0293C58.4164 22.743 56.1082 24.1069 53.2404 24.1069ZM59.7454 18.5112C59.3072 18.7093 58.8099 18.7328 58.355 18.5768C57.9 18.4208 57.5218 18.0972 57.2973 17.6719C57.2015 17.4571 57.151 17.2248 57.1488 16.9896C57.1467 16.7544 57.193 16.5213 57.2849 16.3048C57.3767 16.0883 57.5122 15.893 57.6828 15.731C57.8534 15.5691 58.0555 15.4441 58.2765 15.3637C58.7134 15.1566 59.214 15.1286 59.6713 15.2854C60.1287 15.4422 60.5066 15.7715 60.7246 16.203C60.8204 16.4178 60.8709 16.6501 60.8731 16.8853C60.8752 17.1205 60.8289 17.3536 60.737 17.5701C60.6452 17.7866 60.5097 17.9819 60.3391 18.1438C60.1685 18.3058 59.9664 18.4308 59.7454 18.5112Z" fill="#C8C5E9"/>
<path d="M58.4184 21.03C58.4184 22.7437 56.1102 24.1076 53.2424 24.1076C50.3746 24.1076 48.0664 22.7437 48.0664 21.03C48.0664 19.9109 49.1156 18.9316 50.6194 18.407C50.7542 17.8118 51.0871 17.28 51.5637 16.8988C52.0402 16.5175 52.6321 16.3094 53.2424 16.3087C53.8501 16.3045 54.4403 16.5114 54.9124 16.8942C55.3844 17.2769 55.7089 17.8116 55.8304 18.407C57.3692 18.9316 58.4184 19.9109 58.4184 21.03Z" fill="#A49FDA"/>
<path d="M48.4501 18.5116C48.0119 18.7097 47.5146 18.7332 47.0597 18.5772C46.6048 18.4212 46.2265 18.0976 46.002 17.6723C45.9114 17.4568 45.8649 17.2253 45.8652 16.9916C45.8656 16.7578 45.9128 16.5265 46.0041 16.3113C46.0954 16.0961 46.2289 15.9014 46.3968 15.7387C46.5646 15.576 46.7634 15.4486 46.9813 15.364C47.4182 15.157 47.9187 15.1289 48.3761 15.2857C48.8334 15.4425 49.2114 15.7718 49.4294 16.2034C49.5252 16.4182 49.5757 16.6505 49.5778 16.8857C49.58 17.1208 49.5337 17.354 49.4418 17.5705C49.3499 17.787 49.2145 17.9823 49.0439 18.1442C48.8733 18.3061 48.6712 18.4312 48.4501 18.5116Z" fill="#A49FDA"/>
<path d="M59.747 18.5116C59.3088 18.7097 58.8115 18.7332 58.3566 18.5772C57.9017 18.4212 57.5234 18.0976 57.2989 17.6723C57.2031 17.4574 57.1526 17.2252 57.1505 16.99C57.1483 16.7548 57.1946 16.5217 57.2865 16.3052C57.3783 16.0886 57.5138 15.8933 57.6844 15.7314C57.855 15.5695 58.0571 15.4445 58.2781 15.364C58.7151 15.157 59.2156 15.1289 59.6729 15.2857C60.1303 15.4425 60.5083 15.7718 60.7263 16.2034C60.822 16.4182 60.8726 16.6505 60.8747 16.8857C60.8768 17.1208 60.8305 17.354 60.7387 17.5705C60.6468 17.787 60.5114 17.9823 60.3408 18.1442C60.1702 18.3061 59.968 18.4312 59.747 18.5116Z" fill="#A49FDA"/>
<path d="M56.3191 15.5038C55.877 15.7124 55.3713 15.7416 54.9082 15.585C54.4452 15.4285 54.0608 15.0985 53.836 14.6644C53.7454 14.449 53.6989 14.2175 53.6992 13.9838C53.6996 13.75 53.7468 13.5187 53.8381 13.3035C53.9294 13.0883 54.0629 12.8936 54.2307 12.7309C54.3986 12.5682 54.5973 12.4408 54.8153 12.3562C55.2522 12.1492 55.7527 12.1211 56.21 12.2779C56.6674 12.4347 57.0454 12.764 57.2634 13.1956C57.36 13.4082 57.4121 13.6383 57.4166 13.8718C57.4211 14.1053 57.3778 14.3373 57.2893 14.5535C57.2009 14.7696 57.0692 14.9654 56.9024 15.1289C56.7355 15.2923 56.537 15.4199 56.3191 15.5038Z" fill="#A49FDA"/>
<path d="M51.5986 15.5038C51.1617 15.7108 50.6611 15.7389 50.2038 15.5821C49.7464 15.4253 49.3685 15.096 49.1505 14.6644C49.0547 14.4496 49.0042 14.2174 49.002 13.9822C48.9999 13.747 49.0462 13.5139 49.138 13.2974C49.2299 13.0808 49.3654 12.8855 49.536 12.7236C49.7066 12.5617 49.9087 12.4367 50.1297 12.3562C50.5666 12.1492 51.0672 12.1211 51.5245 12.2779C51.9818 12.4347 52.3598 12.764 52.5778 13.1956C52.6736 13.4104 52.7241 13.6426 52.7263 13.8778C52.7284 14.113 52.6821 14.3462 52.5902 14.5627C52.4984 14.7792 52.3629 14.9745 52.1923 15.1364C52.0217 15.2983 51.8196 15.4234 51.5986 15.5038Z" fill="#A49FDA"/>
<path d="M29.2845 58.9756C29.1209 56.4105 28.2758 53.9355 26.8364 51.8061C25.7865 50.2155 24.4286 48.8514 22.8428 47.7942C21.257 46.737 19.4756 46.0082 17.6035 45.6509C15.7377 45.266 13.8137 45.2597 11.9453 45.6321C10.077 46.0046 8.30251 46.7483 6.72692 47.8192C5.13808 48.8719 3.77157 50.2265 2.70503 51.8061C1.10813 54.1978 0.255859 57.0091 0.255859 59.8848C0.255859 62.7606 1.10813 65.5719 2.70503 67.9636C4.03258 69.9288 5.81831 71.5415 7.90817 72.6626C9.99803 73.7837 12.3293 74.3795 14.7008 74.3986H14.8057C15.2963 74.4103 15.7872 74.3869 16.2745 74.3287C18.6295 74.0935 20.889 73.2762 22.8495 71.9505L23.9686 71.1461L24.5282 70.6565L25.1927 70.027L25.4025 69.7822C27.2394 67.8052 28.4976 65.3613 29.0397 62.7177C29.173 61.9899 29.2548 61.2536 29.2845 60.5144C29.3195 60.002 29.3195 59.4879 29.2845 58.9756ZM27.5009 62.4029C26.8255 65.773 24.8406 68.7373 21.9818 70.6454C19.123 72.5534 15.6239 73.2492 12.2527 72.58C9.74725 72.0721 7.44772 70.8353 5.64273 69.025C3.83775 67.2148 2.60774 64.9116 2.10711 62.4048C1.60648 59.8979 1.85754 57.299 2.82878 54.9343C3.80001 52.5696 5.44814 50.5445 7.56627 49.1132C8.97677 48.1606 10.5635 47.4997 12.2332 47.1693C13.9029 46.839 15.6218 46.8459 17.2888 47.1897C18.9611 47.5083 20.5529 48.1582 21.9703 49.1011C23.3878 50.0441 24.6023 51.2611 25.5424 52.6804C26.4939 54.0918 27.1568 55.6774 27.4929 57.346C27.829 59.0146 27.8317 60.7332 27.5009 62.4029Z" fill="#A49FDA"/>
<path d="M27.5005 62.4021C26.8251 65.7721 24.8402 68.7365 21.9814 70.6446C19.1226 72.5526 15.6235 73.2484 12.2523 72.5792C9.74685 72.0712 7.44732 70.8345 5.64234 69.0242C3.83735 67.2139 2.60734 64.9108 2.10671 62.4039C1.60608 59.897 1.85714 57.2981 2.82838 54.9334C3.79961 52.5687 5.44774 50.5436 7.56587 49.1123C8.97637 48.1597 10.5631 47.4988 12.2328 47.1685C13.9025 46.8382 15.6214 46.8451 17.2884 47.1888C18.9607 47.5074 20.5525 48.1573 21.9699 49.1003C23.3874 50.0433 24.6019 51.2602 25.542 52.6796C26.4935 54.0909 27.1564 55.6766 27.4925 57.3452C27.8286 59.0138 27.8313 60.7324 27.5005 62.4021Z" fill="#C8C5E9"/>
<path d="M23.1985 54.2543C21.7065 52.0261 19.3928 50.4794 16.7635 49.9526C16.1046 49.8424 15.4381 49.7839 14.77 49.7777C12.2444 49.7556 9.8021 50.6798 7.92392 52.3685C6.04573 54.0571 4.86783 56.3877 4.62217 58.9014C4.3765 61.4151 5.08087 63.9297 6.59657 65.95C8.11227 67.9704 10.3295 69.35 12.8115 69.8173C13.4704 69.9275 14.137 69.9859 14.805 69.9921C16.6369 69.9921 18.4343 69.4943 20.0051 68.5518C21.5759 67.6093 22.8611 66.2576 23.7231 64.6412C24.5852 63.0249 24.9917 61.2046 24.8993 59.3751C24.8069 57.5456 24.219 55.7755 23.1985 54.2543ZM24.0728 61.7385C23.7051 63.5759 22.801 65.263 21.4748 66.5868C20.1485 67.9105 18.4596 68.8114 16.6215 69.1756C14.7834 69.5398 12.8786 69.3509 11.1478 68.6329C9.41701 67.9149 7.93788 66.7 6.89734 65.1416C5.8568 63.5832 5.30155 61.7514 5.30176 59.8776C5.30197 58.0038 5.85763 56.172 6.89852 54.6139C7.9394 53.0558 9.4188 51.8412 11.1498 51.1235C12.8807 50.4059 14.7856 50.2175 16.6236 50.5821C17.8458 50.8246 19.0081 51.3056 20.0442 51.9977C21.0802 52.6898 21.9696 53.5795 22.6615 54.6157C23.3534 55.6519 23.8342 56.8143 24.0764 58.0366C24.3185 59.2588 24.3173 60.5167 24.0728 61.7385Z" fill="#A49FDA"/>
<path d="M16.6246 50.5815C14.7866 50.2169 12.8817 50.4053 11.1507 51.123C9.41978 51.8406 7.94038 53.0552 6.89949 54.6133C5.8586 56.1715 5.30294 58.0032 5.30273 59.877C5.30252 61.7508 5.85777 63.5827 6.89831 65.141C7.93885 66.6994 9.41798 67.9144 11.1488 68.6324C12.8796 69.3504 14.7844 69.5392 16.6225 69.175C18.4606 68.8108 20.1495 67.9099 21.4757 66.5862C22.802 65.2625 23.7061 63.5753 24.0738 61.7379C24.3183 60.5162 24.3195 59.2582 24.0774 58.036C23.8352 56.8138 23.3544 55.6513 22.6625 54.6151C21.9706 53.5789 21.0812 52.6893 20.0451 51.9971C19.0091 51.305 17.8467 50.824 16.6246 50.5815ZM15.8552 55.233C16.2038 55.0764 16.5997 55.0619 16.9588 55.1925C17.3179 55.3231 17.612 55.5885 17.7787 55.9324C17.8592 56.1039 17.9041 56.29 17.9105 56.4794C17.917 56.6688 17.8849 56.8575 17.8162 57.0341C17.7476 57.2107 17.6437 57.3715 17.511 57.5068C17.3783 57.642 17.2195 57.7489 17.0442 57.8209C16.6961 57.9908 16.295 58.0162 15.9282 57.8918C15.5614 57.7674 15.2586 57.5031 15.0858 57.1565C14.943 56.7983 14.9432 56.399 15.0864 56.0411C15.2296 55.6831 15.5048 55.3938 15.8552 55.233ZM12.183 55.233C12.5316 55.0764 12.9275 55.0619 13.2866 55.1925C13.6458 55.3231 13.9399 55.5885 14.1065 55.9324C14.2688 56.2895 14.2826 56.6965 14.1449 57.0638C14.0072 57.431 13.7292 57.7286 13.3721 57.8909C13.015 58.0532 12.608 58.067 12.2407 57.9293C11.8734 57.7916 11.5759 57.5136 11.4136 57.1565C11.2708 56.7983 11.2711 56.399 11.4143 56.0411C11.5574 55.6831 11.8326 55.3938 12.183 55.233ZM8.96549 59.6046C8.80317 59.2475 8.78935 58.8405 8.92709 58.4732C9.06482 58.1059 9.34282 57.8084 9.69992 57.6461C10.057 57.4838 10.464 57.4699 10.8313 57.6077C11.1986 57.7454 11.4961 58.0234 11.6584 58.3805C11.8207 58.7376 11.8345 59.1446 11.6968 59.5119C11.5591 59.8792 11.2811 60.1767 10.924 60.339C10.5669 60.5013 10.1599 60.5151 9.79262 60.3774C9.42534 60.2397 9.12781 59.9617 8.96549 59.6046ZM14.6311 64.8855C12.3928 64.8855 10.5742 63.7664 10.5742 62.3674C10.5742 60.9685 11.3786 60.6538 12.6027 60.1991C12.685 59.7204 12.9336 59.2861 13.3046 58.9726C13.6756 58.6592 14.1454 58.4866 14.6311 58.4854C15.115 58.4934 15.5812 58.6683 15.9509 58.9806C16.3205 59.2929 16.5709 59.7234 16.6595 60.1991C17.8836 60.6538 18.688 61.4581 18.688 62.3674C18.688 63.2767 16.8694 64.8855 14.6311 64.8855ZM19.7372 60.304C19.3886 60.4606 18.9927 60.4751 18.6335 60.3445C18.2744 60.2139 17.9803 59.9485 17.8136 59.6046C17.734 59.4309 17.6908 59.2427 17.6867 59.0517C17.6826 58.8607 17.7177 58.6708 17.7898 58.4939C17.8619 58.3169 17.9695 58.1566 18.1059 58.0228C18.2423 57.889 18.4047 57.7846 18.5831 57.716C18.7529 57.6327 18.9375 57.5837 19.1263 57.572C19.3151 57.5603 19.5043 57.5861 19.6831 57.6479C19.8619 57.7097 20.0267 57.8062 20.1681 57.9319C20.3094 58.0577 20.4244 58.2101 20.5066 58.3805C20.6493 58.7386 20.6491 59.1379 20.5059 59.4959C20.3627 59.8539 20.0875 60.1432 19.7372 60.304Z" fill="#C8C5E9"/>
<path d="M18.6879 62.3664C18.6879 63.7653 16.8694 64.8844 14.6311 64.8844C12.3928 64.8844 10.5742 63.7653 10.5742 62.3664C10.5742 60.9675 11.3786 60.6527 12.6027 60.1981C12.685 59.7194 12.9335 59.285 13.3046 58.9716C13.6756 58.6581 14.1454 58.4856 14.6311 58.4844C15.1149 58.4923 15.5812 58.6672 15.9508 58.9796C16.3205 59.2919 16.5709 59.7223 16.6595 60.1981C17.8836 60.6527 18.6879 61.4571 18.6879 62.3664Z" fill="#A49FDA"/>
<path d="M10.8881 60.3022C10.5395 60.4588 10.1436 60.4733 9.78448 60.3427C9.42534 60.2121 9.13124 59.9467 8.9646 59.6028C8.88423 59.426 8.83947 59.235 8.83288 59.0409C8.82629 58.8468 8.858 58.6533 8.9262 58.4714C8.9944 58.2896 9.09775 58.1229 9.23035 57.981C9.36296 57.8391 9.52222 57.7247 9.69903 57.6443C9.87585 57.5639 10.0668 57.5192 10.2609 57.5126C10.455 57.506 10.6485 57.5377 10.8304 57.6059C11.0122 57.6741 11.1789 57.7774 11.3208 57.91C11.4627 58.0426 11.5771 58.2019 11.6575 58.3787C11.8003 58.7369 11.8 59.1361 11.6569 59.4941C11.5137 59.8521 11.2385 60.1414 10.8881 60.3022Z" fill="#A49FDA"/>
<path d="M19.7363 60.3031C19.3877 60.4596 18.9918 60.4741 18.6327 60.3435C18.2735 60.2129 17.9794 59.9475 17.8128 59.6036C17.7332 59.4299 17.69 59.2418 17.6859 59.0507C17.6818 58.8597 17.7168 58.6699 17.7889 58.4929C17.861 58.316 17.9686 58.1557 18.105 58.0219C18.2415 57.8881 18.4039 57.7837 18.5822 57.7151C18.752 57.6317 18.9366 57.5828 19.1254 57.5711C19.3142 57.5594 19.5035 57.5852 19.6823 57.6469C19.861 57.7087 20.0259 57.8052 20.1672 57.931C20.3085 58.0567 20.4236 58.2092 20.5057 58.3796C20.6485 58.7377 20.6482 59.137 20.505 59.495C20.3619 59.8529 20.0867 60.1422 19.7363 60.3031Z" fill="#A49FDA"/>
<path d="M17.0439 57.8204C16.6958 57.9902 16.2947 58.0157 15.9279 57.8912C15.5611 57.7668 15.2583 57.5025 15.0854 57.1559C14.9427 56.7978 14.9429 56.3985 15.0861 56.0405C15.2293 55.6826 15.5045 55.3933 15.8548 55.2324C16.2034 55.0759 16.5993 55.0614 16.9585 55.192C17.3176 55.3225 17.6117 55.588 17.7783 55.9319C17.8589 56.1034 17.9037 56.2895 17.9102 56.4788C17.9167 56.6682 17.8846 56.8569 17.8159 57.0335C17.7472 57.2101 17.6434 57.371 17.5107 57.5062C17.378 57.6415 17.2192 57.7484 17.0439 57.8204Z" fill="#A49FDA"/>
<path d="M13.3354 57.82C13.1656 57.9034 12.981 57.9523 12.7922 57.964C12.6034 57.9757 12.4141 57.9499 12.2353 57.8881C12.0565 57.8264 11.8917 57.7298 11.7504 57.6041C11.6091 57.4784 11.494 57.3259 11.4119 57.1555C11.2495 56.7984 11.2357 56.3915 11.3735 56.0242C11.5112 55.6569 11.7892 55.3593 12.1463 55.197C12.5034 55.0347 12.9104 55.0209 13.2777 55.1586C13.6449 55.2964 13.9425 55.5744 14.1048 55.9315C14.1794 56.1058 14.2186 56.2933 14.2203 56.4829C14.2219 56.6726 14.1859 56.8607 14.1143 57.0363C14.0428 57.212 13.9371 57.3717 13.8034 57.5062C13.6697 57.6407 13.5106 57.7474 13.3354 57.82Z" fill="#A49FDA"/>
<path d="M74.0493 35.6825C71.7061 30.8212 62.858 14.9085 47.225 14.5938H46.7354C30.473 14.5938 20.9953 31.8005 19.2467 35.2978C14.4903 44.7405 10.993 62.5067 20.7155 72.6489C23.5134 75.5866 26.9057 77.3353 30.508 78.3845V65.6543H28.9342C27.2 65.5005 25.5006 65.0757 23.8981 64.3953C23.1986 64.0805 23.8281 63.0663 24.5276 63.3461C26.2904 64.1178 28.1992 64.4995 30.1233 64.4652C31.2074 64.4652 33.5506 64.4302 33.6905 62.9264C33.7954 62.0871 33.096 61.2827 32.5714 60.6881C32.0468 60.0936 31.2774 59.3592 30.5779 58.7296C29.235 57.4997 27.7702 56.4099 26.2063 55.4772C25.5768 55.0575 26.1713 54.0433 26.8358 54.428C28.4756 55.4277 30.0208 56.5749 31.4522 57.8553L32.2566 58.6597C33.1561 57.7075 34.2896 57.0081 35.5441 56.6313L35.684 56.5613V56.4564C35.6732 56.3958 35.6857 56.3334 35.7189 56.2815H35.684V52.8192H35.8239C37.0829 50.546 46.8054 50.511 47.26 50.511C47.7147 50.511 58.3465 50.546 58.8011 53.1689H58.8361V56.2466H58.8011C58.8162 56.3041 58.8279 56.3625 58.8361 56.4214C58.8361 56.4564 58.8011 56.4914 58.8011 56.5264L59.0809 56.6313C60.258 57.0128 61.3257 57.6726 62.1935 58.5548C62.6132 58.1351 63.0678 57.7504 63.5225 57.3657C64.7831 56.2555 66.1408 55.2606 67.5793 54.393C68.2438 54.0083 68.8383 55.0225 68.2088 55.4422C66.614 56.3745 65.1248 57.4768 63.7673 58.7296L61.8438 60.6532C61.3192 61.2477 60.6197 62.0521 60.7246 62.8914C60.8995 64.4302 63.2776 64.4302 64.3968 64.4302C66.2947 64.4275 68.1731 64.047 69.9225 63.3111C70.622 63.0313 71.2165 64.0455 70.517 64.3603C68.6885 65.1399 66.7328 65.5785 64.7465 65.6543H64.0121V78.2446C67.0213 77.2472 69.7614 75.5721 72.0209 73.3484C82.0581 63.416 78.7357 45.37 74.0493 35.6825Z" fill="#5959FF"/>
<path d="M36.7682 56.9111L36.6982 56.8062C36.5422 56.6805 36.4116 56.5262 36.3135 56.3516L35.684 56.5264L35.5441 56.5964C34.2897 56.9732 33.1561 57.6726 32.2566 58.6248L31.6621 59.3592C32.005 59.4777 32.3246 59.6553 32.6064 59.8838H32.6414L33.061 59.3942C33.833 58.5057 34.8387 57.8514 35.9638 57.5057L36.3485 57.4008L37.1179 57.1559C36.9892 57.0932 36.8712 57.0106 36.7682 56.9111Z" fill="#4040B7"/>
<path d="M62.194 58.555C61.3262 57.6729 60.2585 57.0131 59.0814 56.6315L58.8016 56.5266L58.3819 56.3867C58.2844 56.531 58.1666 56.6606 58.0322 56.7714L57.4727 57.2261L58.1721 57.4359L58.6617 57.5758C59.7097 57.925 60.6495 58.5394 61.3896 59.3594L61.7044 59.7092C61.9115 59.4864 62.1788 59.3285 62.4738 59.2545L62.6836 59.1496C62.5398 58.9362 62.3759 58.7371 62.194 58.555Z" fill="#4040B7"/>
<path d="M64.0119 64.9545V85.9033C64.0119 88.7711 61.9135 91.3591 58.766 92.2684C55.0328 93.3853 51.1565 93.9508 47.2599 93.9471H46.6304C42.9229 93.879 39.2413 93.3144 35.6838 92.2684C32.6062 91.3241 30.5078 88.7711 30.5078 85.9033V65.0245C30.9045 65.089 31.3105 65.0651 31.6969 64.9545V85.9033C31.6969 88.3514 33.4455 90.4848 36.1035 91.2892C43.3738 93.4394 51.111 93.4394 58.3813 91.2892C61.0392 90.5198 62.8228 88.3514 62.8228 85.9033V64.8496L63.0677 64.9196C63.376 65.0005 63.6984 65.0124 64.0119 64.9545Z" fill="#4040B7"/>
<path d="M33.3763 65.061C32.8467 65.3134 32.2798 65.4788 31.6976 65.5506C31.3051 65.6203 30.9072 65.6554 30.5085 65.6556H28.9347C27.2005 65.5018 25.5012 65.077 23.8986 64.3965C23.1992 64.0818 23.8287 63.0676 24.5281 63.3473C26.291 64.119 28.1998 64.5008 30.1238 64.4665C31.208 64.4665 33.5512 64.4315 33.6911 62.9277C33.796 62.0883 33.0965 61.2839 32.5719 60.6894C32.0473 60.0949 31.2779 59.3604 30.5785 58.7309C29.2356 57.501 27.7708 56.4112 26.2068 55.4784C25.5773 55.0587 26.1719 54.0445 26.8364 54.4292C28.4762 55.4289 30.0214 56.5761 31.4528 57.8566L32.2572 58.661L33.0615 59.4653L33.2364 59.6752C33.8135 60.2413 34.2869 60.9042 34.6353 61.6337C34.7817 61.9407 34.8651 62.2739 34.8809 62.6137C34.8967 62.9535 34.8444 63.293 34.7271 63.6123C34.6098 63.9316 34.4299 64.2242 34.1979 64.473C33.9659 64.7218 33.6866 64.9217 33.3763 65.061Z" fill="#221A7E"/>
<path d="M80.1705 54.884C80.2404 63.0676 77.8273 69.8524 73.1409 74.5038C70.5758 77.0072 67.4446 78.8548 64.013 79.8896L62.9638 80.2044C63.0061 79.9735 63.0295 79.7396 63.0337 79.5049V79.435L63.2435 78.4907L64.013 78.2459C67.0222 77.2485 69.7622 75.5734 72.0218 73.3497C82.059 63.4174 78.7366 45.3713 74.0502 35.6838C71.707 30.8225 62.8588 14.9098 47.2259 14.5951H46.7363C30.4739 14.5951 20.9962 31.8018 19.2475 35.2991C14.4912 44.7418 10.9939 62.5081 20.7164 72.6502C23.5142 75.588 26.9066 77.3366 30.5088 78.3858L31.1733 78.5956V79.8197C31.1821 79.9731 31.2055 80.1254 31.2433 80.2743L30.5088 80.0645C26.5219 78.9454 22.7099 77.0568 19.5623 73.7694C15.0158 69.013 12.7076 62.2283 12.9174 54.1495C13.1315 47.3464 14.801 40.6681 17.8136 34.5647C18.2333 33.7603 19.0377 32.2215 20.2618 30.3329C20.6115 29.7734 20.9962 29.2138 21.4159 28.6192C23.92 24.9341 26.9749 21.6551 30.4739 18.8968C31.0334 18.4421 31.628 18.0224 32.2225 17.6028C36.2794 14.9098 41.1056 12.9863 46.7363 12.9863H47.2609C52.7517 13.0912 57.438 15.0148 61.32 17.6727C61.9146 18.0924 62.5091 18.5121 63.0687 18.9667C66.8108 21.9044 69.7135 25.5067 71.8469 28.6542C72.2666 29.2488 72.6513 29.8433 73.001 30.4029C74.1201 32.2914 74.9595 33.9002 75.4841 34.9843C78.4618 41.2024 80.0604 47.9906 80.1705 54.884Z" fill="#4040B7"/>
<path d="M73.1056 25.2951C72.7209 26.4492 72.2662 27.5334 71.8466 28.6525C69.7132 25.505 66.8105 21.9028 63.0684 18.965C64.5538 18.4957 66.074 18.1449 67.6148 17.9158C68.5997 17.782 69.5945 17.7352 70.5875 17.7759L71.8466 17.9158C72.0352 17.9232 72.2201 17.9707 72.389 18.0551C72.5578 18.1395 72.7067 18.259 72.8258 18.4055C74.6794 20.224 73.84 23.1268 73.1056 25.2951Z" fill="#6678FF"/>
<path d="M75.7295 21.4485C75.6945 24.4562 74.1907 27.1841 73.2814 29.9819C73.2264 30.1439 73.1299 30.2886 73.0016 30.4016C72.3721 30.8912 71.253 30.4016 71.5677 29.4923C71.6452 29.2075 71.7386 28.9273 71.8475 28.653C72.2672 27.5338 72.7218 26.4497 73.1065 25.2956C73.841 23.1272 74.6803 20.2245 72.8267 18.4059C72.7077 18.2594 72.5587 18.14 72.3899 18.0555C72.221 17.9711 72.0361 17.9236 71.8475 17.9163L70.5885 17.7764C69.5954 17.7356 68.6006 17.7824 67.6158 17.9163C66.0749 18.1453 64.5547 18.4962 63.0693 18.9655L62.16 19.2103C61.1807 19.49 60.6911 18.231 61.3206 17.6715C61.4256 17.5924 61.5441 17.5332 61.6704 17.4966C63.9436 16.8321 66.2518 16.2026 68.63 16.0277C69.7375 15.9228 70.8538 15.958 71.9524 16.1326C72.49 16.1498 73.0116 16.3196 73.4563 16.6223C73.7602 16.8379 74.0415 17.084 74.2956 17.3567C75.2841 18.4843 75.7979 19.9506 75.7295 21.4485Z" fill="#4040B7"/>
<path d="M30.4742 18.8962C26.9779 21.6439 23.9231 24.9109 21.4162 28.5837C20.9135 27.0743 20.5161 25.5317 20.2271 23.9673C20.0474 23.0571 19.9537 22.1321 19.9473 21.2044C19.875 20.4171 19.9461 19.6232 20.1571 18.8612C20.4369 17.847 21.1714 17.4273 22.1856 17.2874C23.2875 17.197 24.3967 17.2796 25.473 17.5322C27.1741 17.8515 28.8466 18.3076 30.4742 18.8962Z" fill="#6678FF"/>
<path d="M32.8871 18.7218C32.8143 18.9485 32.6585 19.1394 32.451 19.2561C32.2435 19.3728 31.9995 19.4069 31.768 19.3514L30.474 18.8967C28.8464 18.3081 27.1739 17.852 25.4728 17.5328C24.3965 17.2802 23.2873 17.1976 22.1854 17.2879C21.1712 17.4278 20.4367 17.8475 20.1569 18.8617C19.9459 19.6237 19.8748 20.4176 19.9471 21.2049C19.9535 22.1326 20.0472 23.0576 20.2269 23.9678C20.516 25.5323 20.9133 27.0748 21.416 28.5842C21.5209 28.829 21.5908 29.1088 21.6958 29.3886C21.9755 30.2979 20.8564 30.7875 20.2619 30.2979C20.1194 30.1905 20.0103 30.045 19.9471 29.8782C19.1785 27.6138 18.6166 25.2844 18.2684 22.9186C18.0586 21.1699 17.8837 19.1065 18.758 17.4978C19.6324 15.889 20.6815 15.6442 22.0455 15.4694C23.4094 15.2945 24.7384 15.5393 26.0674 15.7841C28.1662 16.2022 30.2254 16.7989 32.2226 17.5677H32.2576C32.4919 17.6406 32.6887 17.8018 32.8062 18.0172C32.9237 18.2327 32.9527 18.4854 32.8871 18.7218Z" fill="#4040B7"/>
<path d="M58.8009 53.1345C58.3463 50.5115 47.7145 50.4766 47.2598 50.4766C46.8052 50.4766 37.0827 50.5115 35.8237 52.7848C35.7285 52.943 35.68 53.1248 35.6838 53.3094C35.6838 53.8689 36.1384 54.3236 36.8729 54.7083C39.7756 56.1422 46.8751 56.1422 47.2598 56.1422C47.6446 56.1422 54.7441 56.1422 57.6119 54.7083C58.3463 54.3236 58.8359 53.8689 58.8359 53.3094C58.8359 52.7498 58.8009 53.2045 58.8009 53.1345ZM47.2598 54.9531C40.9997 54.9531 37.2926 53.9389 36.9078 53.3094C37.2926 52.7148 40.9997 51.6656 47.2598 51.6656C53.52 51.6656 57.1922 52.7148 57.6119 53.3094C57.1922 53.9389 53.52 54.9531 47.2598 54.9531Z" fill="#4040B7"/>
<path d="M47.2602 54.9535C52.9775 54.9535 57.6122 54.2176 57.6122 53.3097C57.6122 52.4019 52.9775 51.666 47.2602 51.666C41.5429 51.666 36.9082 52.4019 36.9082 53.3097C36.9082 54.2176 41.5429 54.9535 47.2602 54.9535Z" fill="#5050E5"/>
<path d="M58.8375 56.4226C58.8375 56.4576 58.8025 56.4926 58.8025 56.5275C58.7713 56.7162 58.6987 56.8956 58.5898 57.0528C58.481 57.21 58.3386 57.3412 58.173 57.4368C56.2495 58.7658 50.5489 59.1505 47.2614 59.1505C43.974 59.1505 38.2384 58.7658 36.3499 57.4368C36.1848 57.3364 36.0411 57.2044 35.927 57.0484C35.813 56.8924 35.7309 56.7154 35.6854 56.5275V56.4226C35.6747 56.362 35.6871 56.2996 35.7204 56.2477C35.7833 55.9581 35.9438 55.6988 36.175 55.5133L36.5247 55.898L36.8045 56.1428L36.8745 56.2128H36.9794C36.9095 56.2827 36.8745 56.3177 36.8745 56.3876C36.8745 56.4576 40.4067 58.1013 47.2614 58.1013C52.8222 58.1013 56.1796 57.2969 57.2637 56.7374C57.5085 56.5975 57.6135 56.4576 57.6135 56.3876C57.6151 56.3687 57.6128 56.3496 57.6068 56.3316C57.6008 56.3135 57.5911 56.2969 57.5785 56.2827L57.5085 56.2128L57.6135 56.1428H57.6484C57.6577 56.1428 57.6666 56.1391 57.6732 56.1326C57.6797 56.126 57.6834 56.1171 57.6834 56.1078C57.8614 55.9714 58.0151 55.8058 58.138 55.6182L58.243 55.4434C58.5204 55.6195 58.7205 55.8945 58.8025 56.2128C58.8191 56.2818 58.8308 56.3519 58.8375 56.4226Z" fill="#4040B7"/>
<path d="M36.8727 52.7852H35.6836V56.2265H36.8727V52.7852Z" fill="#4040B7"/>
<path d="M57.612 54.709V56.1778L57.5071 56.2478L57.577 56.3177C57.5897 56.3319 57.5993 56.3486 57.6053 56.3666C57.6114 56.3846 57.6136 56.4037 57.612 56.4227C57.612 56.4926 57.5071 56.6325 57.2623 56.7724C56.1781 57.332 52.8207 58.1363 47.26 58.1363C40.4053 58.1363 36.873 56.9123 36.873 56.4227C36.873 55.933 36.908 56.3177 36.978 56.2478H36.873V54.744C39.7758 56.1778 46.8753 56.1778 47.26 56.1778C47.6447 56.1778 54.7442 56.1429 57.612 54.709Z" fill="#5050E5"/>
<path d="M58.8024 53.1348H57.6133V56.2334H58.8024V53.1348Z" fill="#4040B7"/>
<path d="M62.8232 65.5843V85.9036C62.8232 88.3517 61.0396 90.52 58.3816 91.2894C51.1114 93.4396 43.3741 93.4396 36.1039 91.2894C33.4459 90.485 31.6973 88.3517 31.6973 85.9036V65.5493C32.2795 65.4774 32.8464 65.3121 33.376 65.0597C33.6907 64.9206 33.9741 64.7193 34.2092 64.4679C34.4442 64.2166 34.6259 63.9203 34.7435 63.5969C34.8611 63.2735 34.9121 62.9296 34.8935 62.586C34.8748 62.2424 34.7869 61.9061 34.635 61.5973C34.2866 60.8679 33.8131 60.205 33.2361 59.6388L33.0612 59.429C33.8332 58.5405 34.8389 57.8862 35.964 57.5405L36.3487 57.4355C38.2372 58.7645 43.9728 59.1492 47.2602 59.1492C50.5477 59.1492 56.2483 58.7645 58.1718 57.4355L58.6614 57.5754C59.7094 57.9246 60.6492 58.5391 61.3893 59.3591C60.8991 59.8579 60.4651 60.4091 60.0953 61.0028C59.2909 62.2968 59.3259 63.8706 60.6199 64.7799C61.2764 65.2264 62.0335 65.5028 62.8232 65.5843Z" fill="#6678FF"/>
<path d="M70.5173 64.3614C68.6888 65.141 66.7331 65.5796 64.7468 65.6554H64.0123L62.8232 65.5854C62.0335 65.504 61.2764 65.2276 60.6199 64.781C59.3259 63.8718 59.291 62.298 60.0954 61.004C60.4652 60.4103 60.8991 59.8591 61.3894 59.3602C61.6397 59.0749 61.9084 58.8062 62.1937 58.5559C62.6134 58.1362 63.068 57.7515 63.5227 57.3668C64.7834 56.2565 66.1411 55.2617 67.5796 54.3941C68.2441 54.0094 68.8386 55.0236 68.2091 55.4433C66.6143 56.3756 65.1251 57.4779 63.7675 58.7307L61.844 60.6542C61.3194 61.2488 60.6199 62.0532 60.7249 62.8925C60.8997 64.4313 63.2779 64.4313 64.397 64.4313C66.2949 64.4286 68.1733 64.0481 69.9228 63.3122C70.6222 63.0324 71.2168 64.0466 70.5173 64.3614Z" fill="#221A7E"/>
<path opacity="0.48" d="M60.0953 61.0041C60.3204 60.6126 60.5903 60.2488 60.8997 59.9199L56.598 63.0325C53.8002 65.5156 50.9324 67.8938 47.9597 70.202L44.4274 73.2446C40.3706 76.707 36.2088 80.0644 31.6973 82.9321V85.9048C31.6984 86.9423 32.0156 87.9549 32.6066 88.8076L42.2941 80.9737C48.7524 75.7044 55.0825 70.4351 61.2844 65.1659C61.0445 65.0724 60.8204 64.9426 60.6199 64.7812C59.3259 63.8719 59.2909 62.2981 60.0953 61.0041Z" fill="white"/>
<path opacity="0.48" d="M40.9648 92.4097C42.8482 92.7304 44.755 92.8941 46.6654 92.8993C52.1562 87.9332 57.3672 82.7222 62.8229 77.6861V73.3145C56.0799 80.2755 48.7686 86.6627 40.9648 92.4097Z" fill="white"/>
<path d="M77.0916 44.0757C76.7419 42.7468 76.3572 41.4877 75.9375 40.2637L65.9352 43.3763C65.3057 43.5511 64.6062 43.8309 64.4664 44.4604C64.3265 45.0899 65.5155 45.9992 66.5298 46.1391C68.6281 46.4189 70.7615 46.5588 72.8599 46.1042C74.4226 45.8068 75.881 45.1077 77.0916 44.0757Z" fill="#4040B7"/>
<path d="M74.6099 36.8725C74.435 36.4529 74.2252 36.0682 74.0503 35.6835C73.5778 34.6545 73.0526 33.6506 72.4765 32.6758L65.412 34.8791C64.8174 35.0539 64.118 35.3337 63.9781 35.9632C63.8382 36.5928 65.0273 37.5021 66.0065 37.6419C68.1049 37.9217 70.2732 38.0616 72.3366 37.607C73.1234 37.4632 73.8877 37.2163 74.6099 36.8725Z" fill="#4040B7"/>
<path d="M46.5614 14.7695C30.299 14.7695 20.8213 31.9762 19.0727 35.4735C17.8677 37.8938 16.8958 40.4233 16.1699 43.0277C19.1689 44.2434 22.3766 44.8612 25.6126 44.8463C38.9373 44.8463 49.744 34.4593 49.744 21.5893C49.7537 19.298 49.3995 17.0197 48.6948 14.8395L47.0511 14.7695H46.5614Z" fill="#6678FF"/>
<path d="M49.9198 48.0646C49.1973 47.9647 48.518 47.6615 47.9613 47.1903C47.4625 46.7857 47.0708 46.2647 46.8208 45.6731C46.5707 45.0816 46.47 44.4376 46.5274 43.7979C46.545 43.6464 46.6202 43.5075 46.7374 43.4098C46.8545 43.3122 47.0047 43.2633 47.1569 43.2733C47.2337 43.2775 47.3088 43.2975 47.3775 43.332C47.4462 43.3665 47.5071 43.4147 47.5563 43.4738C47.6055 43.5329 47.6421 43.6015 47.6636 43.6753C47.6851 43.7491 47.6912 43.8265 47.6815 43.9028C47.6498 44.3564 47.725 44.811 47.9012 45.2302C48.0773 45.6493 48.3495 46.0213 48.6957 46.316C49.2698 46.7684 49.9966 46.9814 50.7242 46.9105C51.46 46.8258 52.1357 46.4629 52.6127 45.8963C53.0652 45.3222 53.2782 44.5954 53.2072 43.8678C53.1725 43.5014 53.0649 43.1455 52.8908 42.8212C52.7166 42.4969 52.4794 42.2107 52.193 41.9793C52.1343 41.932 52.0857 41.8733 52.0503 41.8067C52.0148 41.7402 51.9931 41.6672 51.9866 41.592C51.9801 41.5169 51.9888 41.4412 52.0123 41.3695C52.0357 41.2979 52.0734 41.2317 52.1231 41.1749C52.219 41.0588 52.3553 40.9835 52.5046 40.964C52.6539 40.9445 52.805 40.9824 52.9275 41.07C53.3349 41.392 53.6723 41.7939 53.9188 42.2509C54.1654 42.708 54.316 43.2106 54.3614 43.728C54.4288 44.2435 54.389 44.7674 54.2446 45.2669C54.1002 45.7664 53.8542 46.2307 53.522 46.6307C52.8608 47.4417 51.9049 47.9574 50.8641 48.0646H49.9198Z" fill="#221A7E"/>
<path d="M43.1686 48.1685C42.4834 48.0567 41.8355 47.7807 41.2801 47.3641C40.4517 46.7078 39.9122 45.7542 39.7762 44.7061C39.7015 44.0666 39.787 43.4184 40.0251 42.8201C40.2632 42.2218 40.6464 41.6921 41.1402 41.2788C41.1947 41.2271 41.259 41.1868 41.3294 41.1605C41.3998 41.1342 41.4747 41.1223 41.5498 41.1255C41.6249 41.1288 41.6985 41.1471 41.7663 41.1795C41.8342 41.2118 41.8948 41.2575 41.9446 41.3138C42.0511 41.4298 42.1073 41.5833 42.1007 41.7407C42.0941 41.898 42.0254 42.0464 41.9096 42.1531C41.4494 42.5366 41.1263 43.0593 40.989 43.6424C40.8517 44.2255 40.9076 44.8374 41.1483 45.3859C41.389 45.9345 41.8015 46.3899 42.3236 46.6837C42.8457 46.9774 43.4491 47.0934 44.0429 47.0144C44.775 46.9227 45.4411 46.5456 45.8965 45.9652C46.1248 45.684 46.2923 45.3586 46.3886 45.0095C46.4849 44.6604 46.5079 44.2952 46.4561 43.9367C46.4453 43.7806 46.493 43.626 46.59 43.5031C46.687 43.3803 46.8263 43.298 46.9807 43.2723C47.1329 43.2623 47.2831 43.3111 47.4002 43.4088C47.5174 43.5064 47.5926 43.6454 47.6102 43.7968C47.6737 44.3092 47.6353 44.829 47.4972 45.3264C47.3591 45.8238 47.124 46.289 46.8055 46.6953C46.487 47.1016 46.0913 47.4409 45.6412 47.6937C45.1911 47.9465 44.6955 48.1079 44.1828 48.1685H43.1686Z" fill="#221A7E"/>
<path d="M56.1096 36.4179C55.0563 36.2701 54.0769 35.7927 53.3117 35.054C52.8297 34.5999 52.4448 34.0527 52.1803 33.4456C51.9158 32.8384 51.7772 32.184 51.7729 31.5217L51.703 28.1993C51.6767 28.0926 51.6747 27.9813 51.6971 27.8738C51.7195 27.7662 51.7657 27.665 51.8325 27.5776C51.8992 27.4903 51.9846 27.4191 52.0825 27.3692C52.1804 27.3193 52.2883 27.292 52.3982 27.2893C52.508 27.2866 52.6171 27.3086 52.7173 27.3537C52.8175 27.3988 52.9064 27.4658 52.9773 27.5497C53.0482 27.6337 53.0993 27.7325 53.1269 27.8389C53.1545 27.9452 53.1579 28.0565 53.1369 28.1643L53.2068 31.4867C53.2066 31.9582 53.3026 32.4247 53.4891 32.8576C53.6755 33.2906 53.9484 33.681 54.291 34.0048C54.6272 34.3358 55.0264 34.5961 55.4649 34.7703C55.9034 34.9445 56.3723 35.029 56.844 35.019C57.7933 35.0006 58.6969 34.6082 59.3584 33.9271C60.0199 33.246 60.3857 32.3312 60.3763 31.3818V28.0594C60.3715 27.9646 60.3861 27.8699 60.4191 27.781C60.4522 27.692 60.5029 27.6107 60.5684 27.542C60.6338 27.4733 60.7125 27.4187 60.7997 27.3813C60.887 27.344 60.9809 27.3248 61.0757 27.325C61.2646 27.3247 61.4463 27.3973 61.5831 27.5276C61.7199 27.6578 61.8012 27.8358 61.8102 28.0244V31.3469C61.8308 32.0052 61.7175 32.6609 61.477 33.2741C61.2365 33.8873 60.874 34.4453 60.4113 34.9141C59.9572 35.3961 59.41 35.7811 58.8028 36.0455C58.1957 36.31 57.5412 36.4486 56.879 36.4529L56.1096 36.4179Z" fill="#221A7E"/>
<path d="M36.3148 36.6635C35.1333 36.4981 34.0488 35.9187 33.2546 35.0285C32.4604 34.1382 32.0081 32.9949 31.9781 31.8022L31.9082 28.4798C31.9168 28.2878 31.9969 28.1059 32.1328 27.97C32.2687 27.834 32.4506 27.7539 32.6426 27.7454C32.7375 27.7452 32.8314 27.7644 32.9186 27.8017C33.0059 27.8391 33.0846 27.8937 33.15 27.9624C33.2154 28.0311 33.2662 28.1124 33.2992 28.2014C33.3323 28.2903 33.3468 28.385 33.3421 28.4798L33.412 31.7673C33.4223 32.2402 33.5265 32.7064 33.7187 33.1387C33.9108 33.571 34.187 33.9608 34.5312 34.2853C34.8744 34.6143 35.2806 34.8706 35.7253 35.0389C36.17 35.2072 36.6441 35.2839 37.1192 35.2646C38.0562 35.2372 38.9458 34.8457 39.5988 34.1731C40.2518 33.5005 40.6169 32.5998 40.6165 31.6623L40.5465 28.3399C40.5543 28.1535 40.6294 27.9762 40.7581 27.8411C40.8868 27.706 41.0602 27.6223 41.246 27.6055C41.4408 27.6055 41.6276 27.6828 41.7653 27.8206C41.903 27.9583 41.9804 28.1451 41.9804 28.3399L42.0504 31.6623C42.0421 32.9715 41.5279 34.2267 40.6153 35.1653C39.7027 36.104 38.4625 36.6533 37.1542 36.6984L36.3148 36.6635Z" fill="#221A7E"/>
<path d="M47.437 38.4116C47.4151 38.454 47.3848 38.4914 47.3479 38.5216C47.311 38.5519 47.2683 38.5742 47.2224 38.5873C47.1766 38.6004 47.1285 38.604 47.0812 38.5978C47.0339 38.5917 46.9884 38.5759 46.9474 38.5515L46.8425 38.4466C46.5889 38.0675 46.224 37.7765 45.798 37.6137C45.3721 37.4508 44.9061 37.4241 44.4643 37.5373C43.9192 37.7149 43.4597 38.089 43.1752 38.5868C42.8908 39.0846 42.8018 39.6704 42.9255 40.2302C43.1703 41.3843 45.9682 44.0423 47.0873 43.8324C48.2064 43.6226 50.9693 41.1395 51.2491 40.0204C51.5289 38.9012 50.8644 37.6422 49.7802 37.3974C49.333 37.3124 48.8706 37.3636 48.4528 37.5445C48.035 37.7253 47.6811 38.0274 47.437 38.4116Z" fill="#221A7E"/>
<path d="M91.5356 47.8541C91.4055 45.9535 90.7783 44.1204 89.717 42.5383C88.935 41.3682 87.9299 40.3639 86.7592 39.5828C85.5885 38.8017 84.2753 38.2592 82.8946 37.9863C81.514 37.7134 80.0931 37.7155 78.7133 37.9925C77.3335 38.2695 76.0219 38.816 74.8535 39.6005C73.6809 40.377 72.6711 41.3749 71.8808 42.5383C71.1035 43.7187 70.5576 45.036 70.2721 46.4203C69.7207 49.22 70.299 52.1241 71.8808 54.499C72.6671 55.6715 73.6775 56.6768 74.8539 57.4571C76.0304 58.2374 77.3496 58.7772 78.7355 59.0455C79.3909 59.1844 80.059 59.2548 80.729 59.2553H80.8339L81.8831 59.1854C83.6338 59.0124 85.3151 58.4119 86.7793 57.4367L87.5837 56.8422C87.7391 56.7321 87.8801 56.6028 88.0034 56.4575C88.183 56.3246 88.3472 56.1721 88.493 56.0029L88.6679 55.863C90.0187 54.3915 90.9383 52.5766 91.3258 50.617C91.4278 50.0854 91.4979 49.5482 91.5356 49.0083V47.8541ZM90.2067 50.3722C90.0171 51.6556 89.569 52.8872 88.8893 53.9922C88.2097 55.0973 87.3127 56.0529 86.2529 56.801C85.193 57.5491 83.9922 58.0742 82.7233 58.3445C81.4545 58.6148 80.1439 58.6246 78.8712 58.3734C77.5984 58.1222 76.3899 57.6151 75.3189 56.8829C74.2479 56.1508 73.3367 55.2088 72.6406 54.114C71.9445 53.0193 71.4779 51.7946 71.2692 50.5141C71.0604 49.2337 71.1138 47.9242 71.4262 46.6651C71.6632 45.427 72.1438 44.2484 72.8403 43.1977C73.5367 42.147 74.4351 41.2453 75.483 40.5448C76.5287 39.842 77.703 39.3532 78.9384 39.1064C80.1739 38.8596 81.4459 38.8597 82.6813 39.1068C83.9167 39.3538 85.0909 39.843 86.1364 40.546C87.1819 41.2489 88.0779 42.1519 88.7728 43.2027C89.4782 44.2416 89.9684 45.4112 90.2147 46.6425C90.461 47.8738 90.4582 49.142 90.2067 50.3722Z" fill="#A49FDA"/>
<path d="M90.2069 50.3727C90.0174 51.6561 89.5692 52.8877 88.8896 53.9928C88.2099 55.0978 87.313 56.0534 86.2531 56.8015C85.1932 57.5496 83.9924 58.0748 82.7236 58.345C81.4547 58.6153 80.1442 58.6251 78.8714 58.3739C77.5986 58.1227 76.3901 57.6156 75.3191 56.8835C74.2481 56.1513 73.337 55.2093 72.6409 54.1145C71.9447 53.0198 71.4782 51.7951 71.2694 50.5147C71.0606 49.2342 71.1141 47.9248 71.4264 46.6656C71.6634 45.4275 72.1441 44.2489 72.8405 43.1982C73.537 42.1476 74.4353 41.2458 75.4833 40.5453C76.5289 39.8426 77.7033 39.3537 78.9387 39.1069C80.1741 38.8601 81.4462 38.8602 82.6815 39.1073C83.9169 39.3544 85.0912 39.8435 86.1366 40.5465C87.1821 41.2495 88.0781 42.1524 88.773 43.2033C89.4784 44.2421 89.9687 45.4117 90.2149 46.643C90.4612 47.8743 90.4585 49.1425 90.2069 50.3727Z" fill="#C8C5E9"/>
<path d="M87.0234 44.3576C85.9221 42.7085 84.2115 41.5639 82.267 41.175C81.7813 41.0938 81.2905 41.047 80.7982 41.0352C78.939 41.0367 77.1471 41.7302 75.7712 42.9805C74.3953 44.2309 73.534 45.9485 73.3551 47.799C73.1761 49.6495 73.6923 51.5004 74.8032 52.9912C75.914 54.4819 77.5399 55.5059 79.3643 55.8637C79.85 55.945 80.3408 55.9917 80.8331 56.0036C82.3013 55.99 83.7343 55.5528 84.96 54.7446C85.7779 54.1984 86.4801 53.4963 87.0266 52.6786C87.573 51.8608 87.9529 50.9434 88.1445 49.9787C88.3361 49.0141 88.3358 48.0211 88.1434 47.0566C87.951 46.0921 87.5704 45.1749 87.0234 44.3576ZM87.6879 49.8833C87.4141 51.2369 86.7458 52.4791 85.7672 53.4534C84.7886 54.4277 83.5435 55.0906 82.1887 55.3584C80.834 55.6263 79.4303 55.4871 78.1546 54.9585C76.8788 54.4299 75.7881 53.5355 75.0198 52.3879C74.2516 51.2404 73.8402 49.8912 73.8375 48.5102C73.8348 47.1293 74.241 45.7785 75.0048 44.628C75.7686 43.4775 76.8558 42.5788 78.1295 42.0453C79.4032 41.5117 80.8064 41.3671 82.1621 41.6297C83.984 42.0014 85.5859 43.0764 86.6203 44.6215C87.6548 46.1666 88.0384 48.0572 87.6879 49.8833Z" fill="#A49FDA"/>
<path d="M82.1625 41.6292C80.7984 41.3579 79.3844 41.4973 78.0996 42.0299C76.8147 42.5625 75.7168 43.4642 74.9446 44.621C74.1724 45.7778 73.7608 47.1377 73.7617 48.5285C73.7627 49.9194 74.1762 51.2787 74.95 52.4344C75.7237 53.5902 76.8229 54.4904 78.1085 55.0212C79.3941 55.552 80.8082 55.6895 82.172 55.4164C83.5357 55.1432 84.7878 54.4716 85.7697 53.4866C86.7517 52.5016 87.4193 51.2474 87.6882 49.8828C87.8713 48.9777 87.8733 48.0454 87.6942 47.1395C87.5151 46.2336 87.1584 45.3722 86.6447 44.6049C86.131 43.8376 85.4705 43.1796 84.7012 42.6688C83.9319 42.1581 83.069 41.8048 82.1625 41.6292ZM81.6029 45.0915C81.8628 44.9722 82.1593 44.9603 82.4279 45.0586C82.6964 45.1568 82.9153 45.3572 83.0368 45.6161C83.1431 45.8763 83.1441 46.1677 83.0397 46.4286C82.9354 46.6896 82.7337 46.8999 82.4773 47.015C82.2174 47.1344 81.9209 47.1462 81.6523 47.0479C81.3837 46.9497 81.1649 46.7493 81.0434 46.4904C80.986 46.3621 80.955 46.2236 80.9522 46.0831C80.9494 45.9426 80.9748 45.803 81.027 45.6725C81.0792 45.542 81.1571 45.4234 81.256 45.3236C81.3549 45.2238 81.4729 45.1448 81.6029 45.0915ZM78.875 45.0915C79.1349 44.9722 79.4314 44.9603 79.7 45.0586C79.9686 45.1568 80.1874 45.3572 80.3089 45.6161C80.3663 45.7444 80.3973 45.8829 80.4001 46.0234C80.4029 46.1639 80.3775 46.3035 80.3253 46.434C80.2731 46.5645 80.1952 46.6831 80.0963 46.783C79.9973 46.8828 79.8794 46.9617 79.7494 47.015C79.4895 47.1344 79.193 47.1462 78.9244 47.0479C78.6558 46.9497 78.437 46.7493 78.3155 46.4904C78.2092 46.2302 78.2081 45.9389 78.3125 45.6779C78.4169 45.4169 78.6186 45.2067 78.875 45.0915ZM76.4969 48.309C76.3992 48.048 76.4025 47.76 76.506 47.5013C76.6095 47.2426 76.8058 47.0318 77.0564 46.9101C77.1843 46.8461 77.3239 46.8089 77.4666 46.8008C77.6094 46.7927 77.7523 46.8138 77.8866 46.863C78.0209 46.9121 78.1437 46.9882 78.2475 47.0865C78.3513 47.1848 78.434 47.3033 78.4903 47.4347C78.5477 47.563 78.5787 47.7015 78.5815 47.842C78.5843 47.9825 78.5589 48.1221 78.5067 48.2526C78.4545 48.3831 78.3766 48.5017 78.2777 48.6015C78.1787 48.7014 78.0608 48.7803 77.9308 48.8336C77.6709 48.953 77.3744 48.9648 77.1058 48.8665C76.8372 48.7683 76.6184 48.5679 76.4969 48.309ZM80.6936 52.226C79.0499 52.226 77.686 51.3866 77.686 50.3724C77.686 49.3582 78.3155 49.0784 79.1898 48.7637C79.2643 48.4202 79.4541 48.1126 79.7277 47.892C80.0013 47.6714 80.3422 47.5511 80.6936 47.5511C81.0451 47.5511 81.386 47.6714 81.6595 47.892C81.9331 48.1126 82.123 48.4202 82.1975 48.7637C83.0718 49.0784 83.7013 49.673 83.7013 50.3724C83.7013 51.0719 82.3374 52.226 80.6936 52.226ZM84.4707 48.8336C84.2108 48.953 83.9143 48.9648 83.6458 48.8665C83.3772 48.7683 83.1583 48.5679 83.0368 48.309C82.9305 48.0488 82.9295 47.7575 83.0339 47.4965C83.1383 47.2355 83.34 47.0252 83.5964 46.9101C83.7242 46.8461 83.8638 46.8089 84.0066 46.8008C84.1493 46.7927 84.2923 46.8138 84.4265 46.863C84.5608 46.9121 84.6836 46.9882 84.7875 47.0865C84.8913 47.1848 84.9739 47.3033 85.0303 47.4347C85.1365 47.6949 85.1376 47.9862 85.0332 48.2472C84.9288 48.5082 84.7271 48.7185 84.4707 48.8336Z" fill="#C8C5E9"/>
<path d="M83.7009 50.3721C83.7009 51.3864 82.337 52.2257 80.6932 52.2257C79.0495 52.2257 77.6855 51.3864 77.6855 50.3721C77.6855 49.3579 78.3151 49.0781 79.1894 48.7634C79.2639 48.4199 79.4537 48.1123 79.7273 47.8917C80.0009 47.6711 80.3418 47.5508 80.6932 47.5508C81.0447 47.5508 81.3855 47.6711 81.6591 47.8917C81.9327 48.1123 82.1226 48.4199 82.1971 48.7634C83.0714 49.0781 83.7009 49.6727 83.7009 50.3721Z" fill="#A49FDA"/>
<path d="M77.9306 48.8333C77.6707 48.9527 77.3742 48.9645 77.1057 48.8663C76.8371 48.768 76.6182 48.5676 76.4967 48.3087C76.3991 48.0478 76.4023 47.7597 76.5058 47.501C76.6093 47.2423 76.8056 47.0315 77.0563 46.9098C77.1841 46.8458 77.3237 46.8086 77.4665 46.8005C77.6092 46.7924 77.7521 46.8136 77.8864 46.8627C78.0207 46.9118 78.1435 46.9879 78.2474 47.0862C78.3512 47.1845 78.4338 47.303 78.4902 47.4344C78.5475 47.5627 78.5785 47.7012 78.5813 47.8417C78.5841 47.9822 78.5587 48.1218 78.5065 48.2523C78.4543 48.3828 78.3765 48.5015 78.2775 48.6013C78.1786 48.7011 78.0606 48.78 77.9306 48.8333Z" fill="#A49FDA"/>
<path d="M84.4714 48.8333C84.2115 48.9527 83.915 48.9645 83.6464 48.8663C83.3779 48.768 83.159 48.5676 83.0375 48.3087C82.9312 48.0485 82.9302 47.7572 83.0346 47.4962C83.139 47.2352 83.3406 47.025 83.5971 46.9098C83.7249 46.8458 83.8645 46.8086 84.0073 46.8005C84.15 46.7924 84.2929 46.8136 84.4272 46.8627C84.5615 46.9118 84.6843 46.9879 84.7881 47.0862C84.892 47.1845 84.9746 47.303 85.031 47.4344C85.1372 47.6946 85.1383 47.986 85.0339 48.247C84.9295 48.5079 84.7278 48.7182 84.4714 48.8333Z" fill="#A49FDA"/>
<path d="M82.4764 47.0146C82.2166 47.134 81.9201 47.1458 81.6515 47.0475C81.3829 46.9493 81.1641 46.7489 81.0425 46.49C80.9852 46.3617 80.9542 46.2232 80.9514 46.0827C80.9486 45.9422 80.974 45.8026 81.0262 45.6721C81.0784 45.5416 81.1563 45.423 81.2552 45.3232C81.3541 45.2234 81.4721 45.1445 81.6021 45.0911C81.862 44.9718 82.1585 44.9599 82.4271 45.0582C82.6956 45.1564 82.9145 45.3568 83.036 45.6157C83.1423 45.8759 83.1433 46.1673 83.0389 46.4283C82.9345 46.6892 82.7329 46.8995 82.4764 47.0146Z" fill="#A49FDA"/>
<path d="M79.7487 47.0146C79.4889 47.134 79.1923 47.1458 78.9238 47.0475C78.6552 46.9493 78.4364 46.7489 78.3148 46.49C78.2086 46.2298 78.2075 45.9385 78.3119 45.6775C78.4163 45.4165 78.618 45.2063 78.8744 45.0911C79.1343 44.9718 79.4308 44.9599 79.6994 45.0582C79.9679 45.1564 80.1868 45.3568 80.3083 45.6157C80.3657 45.744 80.3967 45.8825 80.3995 46.023C80.4023 46.1635 80.3768 46.3031 80.3246 46.4336C80.2725 46.5641 80.1946 46.6828 80.0957 46.7826C79.9967 46.8824 79.8788 46.9613 79.7487 47.0146Z" fill="#A49FDA"/>
<path d="M16.6589 59.1846C15.9069 58.2926 15.2063 57.3584 14.5605 56.3867C14.7354 62.3671 16.4841 68.2426 20.7158 72.6492C23.5136 75.5869 26.906 77.3355 30.5082 78.3847V69.012C25.2623 66.7387 20.2961 63.6261 16.6589 59.1846Z" fill="#5050E5"/>
<path d="M71.5659 70.5166C69.1256 71.487 66.5952 72.2134 64.0117 72.6849V78.2456C67.021 77.2482 69.761 75.5731 72.0205 73.3494C73.3607 72.015 74.503 70.4958 75.4129 68.8379C74.1539 69.4324 72.8599 69.992 71.5659 70.5166Z" fill="#5050E5"/>
</svg>
