<svg width="33" height="27" viewBox="0 0 33 27" fill="none" xmlns="http://www.w3.org/2000/svg">
<path d="M0.136719 20.3486L21.0648 26.428L32.1314 19.2583V18.4745L11.2033 13.1738L0.136719 19.5698V20.3486Z" fill="#4E4EEE"/>
<path d="M11.2031 12.395L32.1312 18.6302V6.2352L11.2031 0V12.395Z" fill="#5959FF"/>
<path d="M0.136719 19.5698L21.0648 25.6492L32.1314 18.4745L11.2033 12.395L0.136719 19.5698Z" fill="#6678FF"/>
<path d="M12.0775 12.2393L30.7945 17.6455C30.9088 17.6778 31.0299 17.6852 31.1479 17.6671C31.2659 17.6491 31.3776 17.606 31.4739 17.5415C31.5702 17.4769 31.6485 17.3926 31.7024 17.2955C31.7562 17.1983 31.7842 17.091 31.784 16.9823V7.5164C31.7851 7.37085 31.7354 7.22873 31.642 7.11047C31.5487 6.99221 31.4164 6.9039 31.2644 6.85822L12.5474 1.16062C12.4329 1.12649 12.3111 1.1175 12.1921 1.13439C12.073 1.15128 11.9601 1.19356 11.8625 1.25778C11.7648 1.32199 11.6854 1.40631 11.6305 1.50383C11.5756 1.60134 11.547 1.70928 11.5469 1.81881V11.5761C11.5479 11.7232 11.5997 11.8663 11.6949 11.9852C11.7901 12.1042 11.9239 12.1931 12.0775 12.2393Z" fill="#221A7E"/>
<path d="M7.20703 20.9514L12.3755 22.4537L15.1117 20.6801L9.93775 19.1779L7.20703 20.9514Z" fill="#4E4EEE"/>
<path d="M6.89165 17.3189L16.0014 19.9667C16.0964 19.9962 16.1978 20.0044 16.297 19.9904C16.3962 19.9764 16.4901 19.9406 16.5708 19.8863L20.6116 17.2686C20.7098 17.2055 20.7867 17.1187 20.8336 17.0181C20.8806 16.9174 20.8957 16.8069 20.8773 16.6988C20.8589 16.5908 20.8078 16.4895 20.7296 16.4065C20.6514 16.3234 20.5493 16.2618 20.4347 16.2286L11.3304 13.5757C11.2342 13.5486 11.1324 13.5417 11.0328 13.5556C10.9332 13.5695 10.8384 13.6039 10.7556 13.6561L6.71476 16.2788C6.61655 16.3419 6.53965 16.4287 6.49271 16.5294C6.44576 16.63 6.43062 16.7406 6.449 16.8486C6.46737 16.9567 6.51853 17.0579 6.59673 17.141C6.67492 17.224 6.77706 17.2856 6.89165 17.3189Z" fill="#4E4EEE"/>
<path d="M20.1148 21.3082L23.752 22.3683C23.8494 22.396 23.9526 22.4026 24.0533 22.3878C24.154 22.373 24.2496 22.3371 24.3324 22.2829L28.3345 19.6501C28.4311 19.5863 28.5063 19.4994 28.5519 19.3991C28.5975 19.2987 28.6116 19.1889 28.5927 19.0817C28.5738 18.9746 28.5227 18.8743 28.4449 18.7919C28.3671 18.7095 28.2658 18.6483 28.1521 18.6151L24.5149 17.56C24.4181 17.53 24.3149 17.5217 24.2138 17.5356C24.1128 17.5496 24.0169 17.5856 23.9344 17.6404L19.9323 20.2731C19.8358 20.337 19.7605 20.4239 19.715 20.5242C19.6694 20.6245 19.6553 20.7344 19.6742 20.8415C19.693 20.9487 19.7442 21.049 19.822 21.1314C19.8997 21.2137 20.0011 21.2749 20.1148 21.3082Z" fill="#4E4EEE"/>
<path opacity="0.48" d="M13.3418 12.6011L14.5358 12.9477C15.3373 12.4001 25.1988 5.16503 25.3426 5.0545L24.4637 4.78821C24.0878 5.16503 16.9017 10.6516 13.3418 12.6011Z" fill="white"/>
<path opacity="0.48" d="M27.9737 6.60702C24.9831 9.21967 21.8655 11.7871 18.5488 14.1084L20.2901 14.6108C23.756 11.9579 27.2219 9.30509 30.7265 6.69243L28.6038 6.04932L27.9737 6.60702Z" fill="white"/>
<path d="M20.6121 16.8767L16.5713 19.4994C16.4895 19.5516 16.3956 19.5859 16.2969 19.5999C16.1982 19.6138 16.0973 19.6069 16.0019 19.5798L6.8922 16.927C6.79631 16.8996 6.70883 16.8522 6.63681 16.7885C6.5648 16.7248 6.51027 16.6466 6.47762 16.5602C6.4491 16.6347 6.43723 16.7136 6.4427 16.7924C6.44818 16.8711 6.47089 16.9481 6.5095 17.0187C6.54811 17.0894 6.60185 17.1523 6.66756 17.2038C6.73328 17.2554 6.80965 17.2945 6.8922 17.3189L16.0019 19.9667C16.0969 19.9962 16.1984 20.0044 16.2975 19.9904C16.3967 19.9764 16.4907 19.9406 16.5713 19.8863L20.6121 17.2686C20.7274 17.1956 20.8132 17.0901 20.8561 16.9685C20.8991 16.8468 20.8968 16.7157 20.8498 16.5954C20.8031 16.7085 20.7203 16.8065 20.6121 16.8767Z" fill="#39309F"/>
<path d="M28.3345 19.2633L24.3324 21.891C24.2495 21.9452 24.154 21.9811 24.0532 21.996C23.9525 22.0108 23.8494 22.0041 23.7519 21.9764L20.1147 20.9213C20.0198 20.8923 19.9333 20.8443 19.8615 20.7808C19.7897 20.7173 19.7346 20.64 19.7001 20.5546C19.6717 20.6287 19.6599 20.7073 19.6654 20.7857C19.6709 20.8641 19.6937 20.9407 19.7323 21.0109C19.771 21.0812 19.8247 21.1437 19.8904 21.1947C19.9561 21.2458 20.0323 21.2844 20.1147 21.3082L23.7519 22.3683C23.8494 22.396 23.9525 22.4027 24.0532 22.3879C24.154 22.373 24.2495 22.3371 24.3324 22.2829L28.3345 19.6502C28.4474 19.5766 28.5307 19.4714 28.5716 19.3508C28.6126 19.2301 28.6089 19.1005 28.5611 18.9819C28.5186 19.0944 28.4396 19.1925 28.3345 19.2633Z" fill="#39309F"/>
</svg>
