<svg width="139" height="102" viewBox="0 0 139 102" fill="none" xmlns="http://www.w3.org/2000/svg">
<path d="M129.055 25.7631V46.4671C129.055 49.0551 127.214 51.3739 124.442 52.2021C121.158 53.2017 117.751 53.7108 114.325 53.7135H113.799C110.536 53.6594 107.296 53.151 104.168 52.2021C101.436 51.3532 99.6152 49.0551 99.6152 46.4671V25.7631C99.6152 23.2372 101.335 21.0219 104.026 20.0902L104.168 20.0488L104.896 19.8211C105.163 20.0909 105.454 20.3336 105.766 20.5457L104.734 20.8563L104.411 20.9598C102.124 21.7466 100.667 23.6306 100.667 25.7631V46.4671C100.667 48.6617 102.205 50.6079 104.512 51.3118C110.899 53.2703 117.706 53.2775 124.098 51.3325C126.445 50.6079 128.003 48.6617 128.003 46.4671V25.6389C128.003 25.494 127.982 25.3698 127.982 25.2248C127.76 23.3408 126.344 21.6845 124.34 21.0012L123.936 20.8563L122.843 20.525L123.126 20.2559C123.232 20.1264 123.327 19.9878 123.41 19.8418L123.45 19.7383H123.47L123.673 19.8004L124.502 20.0695L124.725 20.1524C126.607 20.7942 128.023 22.1606 128.67 23.7963C128.917 24.4216 129.048 25.0887 129.055 25.7631Z" fill="#4239AB"/>
<path d="M124.26 17.0059C123.916 15.4117 118.21 14.832 114.325 14.832C110.44 14.832 105.524 15.3289 104.552 16.6954C104.452 16.8253 104.395 16.9851 104.391 17.1509C104.391 17.4821 104.613 17.772 104.998 18.0204C106.616 19.0763 111.108 19.4904 114.325 19.4904C117.542 19.4904 122.054 19.0763 123.673 18.0204C124.057 17.772 124.28 17.4821 124.28 17.1509C124.283 17.1016 124.276 17.0523 124.26 17.0059ZM114.325 18.8693C108.195 18.8693 104.998 17.7513 104.998 17.1509C104.998 16.5505 108.195 15.4531 114.325 15.4531C120.456 15.4531 123.673 16.5712 123.673 17.1509C123.673 17.7306 120.456 18.8693 114.325 18.8693Z" fill="#4239AB"/>
<path d="M123.673 17.1508C123.673 17.7513 120.456 18.8693 114.326 18.8693C108.195 18.8693 104.998 17.7513 104.998 17.1508C104.998 16.5504 108.195 15.4531 114.326 15.4531C120.456 15.4531 123.673 16.5711 123.673 17.1508Z" fill="#39309F"/>
<path d="M124.503 19.9461V20.0496C124.47 20.2178 124.402 20.3769 124.305 20.5162C124.207 20.6554 124.081 20.7717 123.936 20.8571C122.236 22.0786 117.219 22.4306 114.325 22.4306C111.432 22.4306 106.434 22.0786 104.735 20.8571C104.589 20.7717 104.463 20.6554 104.366 20.5162C104.268 20.3769 104.201 20.2178 104.168 20.0496V19.9461C104.172 19.7318 104.251 19.5259 104.391 19.3664L104.593 19.1594L104.896 19.4699L104.998 19.5528L105.159 19.6977L105.301 19.8219C105.278 19.8331 105.258 19.8506 105.244 19.8725C105.229 19.8944 105.221 19.9199 105.22 19.9461C105.22 20.4016 108.316 21.4989 114.325 21.4989C119.222 21.4989 122.176 20.7743 123.127 20.2567C123.349 20.1325 123.45 20.0289 123.45 19.9461C123.45 19.8633 123.43 19.884 123.41 19.8426C123.39 19.8012 123.369 19.8219 123.369 19.8012L123.45 19.7391H123.511L123.673 19.5942C123.753 19.5027 123.828 19.4059 123.896 19.3043L123.997 19.1387C124.105 19.2117 124.201 19.3027 124.28 19.4078C124.411 19.5565 124.49 19.7462 124.503 19.9461Z" fill="#4239AB"/>
<path d="M104.998 16.6953H104.391V19.7926H104.998V16.6953Z" fill="#4239AB"/>
<path d="M123.673 18.0195V19.5516L123.512 19.6966H123.451L123.37 19.7587C123.37 19.7794 123.39 19.7794 123.41 19.8001C123.328 19.9461 123.233 20.0846 123.127 20.2141C122.176 20.7317 119.222 21.4564 114.326 21.4564C108.316 21.4564 105.221 20.3591 105.221 19.9036C105.222 19.8773 105.23 19.8519 105.244 19.83C105.259 19.8081 105.278 19.7906 105.302 19.7794L105.16 19.6551L104.998 19.5102V18.0195C106.617 19.0754 111.109 19.4895 114.326 19.4895C117.543 19.4895 122.055 19.0754 123.673 18.0195Z" fill="#39309F"/>
<path d="M124.281 17.0059H123.674V19.7926H124.281V17.0059Z" fill="#4239AB"/>
<path d="M128.003 25.64C127.983 25.5779 127.983 25.5158 127.963 25.4537C127.96 25.3772 127.966 25.3006 127.983 25.226C127.761 23.3419 126.344 21.6856 124.341 21.0023L123.936 20.8574C122.237 22.079 117.219 22.4309 114.326 22.4309C111.432 22.4309 106.434 22.079 104.735 20.8574L104.411 20.9609C102.125 21.7477 100.668 23.6318 100.668 25.7643V40.0707C100.668 40.05 100.688 40.05 100.708 40.05C101.074 39.9203 101.472 39.9192 101.838 40.0467C102.205 40.1742 102.519 40.423 102.732 40.7539C102.819 40.8808 102.887 41.0204 102.934 41.168L102.995 41.3957C103.005 41.4276 103.024 41.4559 103.049 41.4778C103.074 41.4997 103.104 41.5142 103.136 41.52C103.258 41.5392 103.374 41.5814 103.48 41.6442H103.501C103.75 41.7561 103.97 41.927 104.143 42.143C104.315 42.359 104.435 42.6138 104.492 42.8864C104.522 43.0088 104.542 43.1334 104.553 43.2591C104.549 43.3842 104.536 43.5089 104.512 43.6318C104.471 43.8723 104.382 44.1014 104.249 44.3046C104.117 44.5078 103.945 44.6805 103.743 44.8119C103.552 44.9398 103.34 45.0311 103.116 45.081H103.056L102.61 45.1225H100.668V46.4682C100.668 48.6628 102.206 50.609 104.512 51.3129C110.9 53.2714 117.707 53.2786 124.098 51.3336C126.445 50.609 128.003 48.6628 128.003 46.4682V25.64Z" fill="#5959FF"/>
<path d="M107.125 43.8607C107.121 43.9859 107.108 44.1105 107.084 44.2334C107.043 44.4739 106.953 44.703 106.821 44.9062C106.689 45.1094 106.516 45.2822 106.315 45.4135C106.124 45.5415 105.911 45.6327 105.688 45.6827H105.627L105.182 45.7241H98.8087C98.4497 45.7272 98.0981 45.6204 97.7988 45.4175C97.4996 45.2146 97.2665 44.9248 97.1293 44.5854C97.0318 44.342 96.9868 44.0798 96.9977 43.817C97.0085 43.5542 97.0749 43.2968 97.1921 43.0627C97.3094 42.8286 97.4749 42.6233 97.6771 42.4608C97.8793 42.2983 98.1135 42.1826 98.3636 42.1216C98.4647 42.1009 98.485 42.0595 98.5052 41.956C98.5315 41.3244 98.798 40.7284 99.2479 40.2951C99.6978 39.8619 100.295 39.6257 100.913 39.6371C101.365 39.6441 101.807 39.7804 102.188 40.0305C102.337 40.1376 102.473 40.2627 102.592 40.4032L102.835 40.7137C102.896 40.7965 102.916 40.8172 102.997 40.7758L103.24 40.6723H103.28C103.646 40.5427 104.044 40.5415 104.41 40.669C104.776 40.7965 105.091 41.0454 105.304 41.3762C105.391 41.5031 105.459 41.6427 105.506 41.7903L105.567 42.0181C105.577 42.0499 105.596 42.0783 105.621 42.1001C105.646 42.122 105.676 42.1366 105.708 42.1423C105.829 42.1616 105.946 42.2037 106.052 42.2665H106.072C106.322 42.3784 106.542 42.5494 106.715 42.7653C106.887 42.9813 107.007 43.2361 107.064 43.5088C107.093 43.6243 107.113 43.742 107.125 43.8607Z" fill="white"/>
<path d="M122.196 37.2752C122.108 35.8705 121.662 34.514 120.901 33.3414C119.749 31.5878 117.964 30.3738 115.938 29.9662C113.912 29.5586 111.811 29.9907 110.096 31.1675C109.237 31.7355 108.506 32.4835 107.951 33.3621C107.373 34.2298 106.974 35.209 106.778 36.24C106.385 38.3121 106.809 40.4592 107.958 42.2125C109.106 43.9659 110.886 45.183 112.909 45.5982C113.396 45.6953 113.89 45.7507 114.386 45.7638H114.446L115.215 45.7224C116.483 45.5824 117.699 45.1275 118.756 44.3974C118.96 44.2643 119.156 44.1191 119.343 43.9626L119.646 43.6934L120.011 43.3415L120.112 43.2172C121.109 42.1362 121.783 40.7855 122.054 39.3249C122.141 38.9376 122.188 38.5421 122.196 38.1448C122.216 37.8553 122.216 37.5647 122.196 37.2752ZM121.245 39.1593C120.981 40.5437 120.322 41.8169 119.351 42.8176C118.38 43.8182 117.14 44.5013 115.789 44.7801C114.438 45.059 113.036 44.9211 111.762 44.3839C110.487 43.8468 109.397 42.9345 108.63 41.7628C107.863 40.5911 107.453 39.2127 107.452 37.8023C107.452 36.3919 107.86 35.0131 108.626 33.8405C109.392 32.668 110.481 31.7546 111.755 31.2161C113.029 30.6775 114.43 30.5381 115.782 30.8156C116.676 30.9884 117.527 31.3432 118.285 31.8589C119.042 32.3746 119.691 33.0406 120.193 33.8176C120.704 34.5928 121.06 35.4639 121.241 36.3807C121.422 37.2976 121.423 38.2419 121.245 39.1593Z" fill="#A49FDA"/>
<path d="M120.192 33.8168C119.691 33.0399 119.042 32.3738 118.284 31.8581C117.527 31.3424 116.675 30.9876 115.781 30.8148C114.206 30.4957 112.571 30.7459 111.155 31.5225C109.739 32.2992 108.631 33.5542 108.018 35.0737C107.406 36.5932 107.328 38.283 107.797 39.855C108.266 41.427 109.253 42.7838 110.591 43.6941C111.928 44.6044 113.533 45.0117 115.131 44.8467C116.729 44.6817 118.222 43.9546 119.355 42.7893C120.487 41.624 121.19 40.0927 121.343 38.4565C121.496 36.8203 121.089 35.1805 120.192 33.8168ZM119.747 38.8686C119.496 40.1257 118.831 41.2563 117.862 42.0706C116.893 42.8849 115.68 43.3333 114.426 43.3407C114.072 43.3402 113.719 43.2985 113.374 43.2164C112.05 42.9512 110.871 42.191 110.066 41.0843C109.261 39.9776 108.888 38.6036 109.019 37.2305C109.151 35.8574 109.777 34.5836 110.777 33.6577C111.777 32.7318 113.077 32.2202 114.426 32.2226C114.78 32.2242 115.133 32.2658 115.478 32.3469C116.177 32.4822 116.844 32.7588 117.438 33.1605C118.032 33.5622 118.542 34.0809 118.938 34.6864C119.735 35.9172 120.026 37.4199 119.747 38.8686Z" fill="#C8C5E9"/>
<path d="M118.938 34.6864C118.542 34.0809 118.032 33.5622 117.438 33.1605C116.844 32.7588 116.178 32.4822 115.478 32.3469C115.133 32.2659 114.78 32.2242 114.426 32.2227C113.078 32.2202 111.777 32.7319 110.778 33.6578C109.778 34.5837 109.151 35.8574 109.02 37.2305C108.889 38.6036 109.262 39.9776 110.067 41.0843C110.872 42.1911 112.051 42.9512 113.374 43.2165C113.719 43.2985 114.072 43.3402 114.426 43.3407C115.68 43.3333 116.893 42.8849 117.862 42.0706C118.831 41.2563 119.497 40.1257 119.748 38.8686C120.026 37.4199 119.735 35.9172 118.938 34.6864ZM119.424 38.7858C119.232 39.8003 118.75 40.7335 118.039 41.4674C117.328 42.2012 116.421 42.7025 115.431 42.9077C114.441 43.113 113.414 43.0129 112.48 42.6202C111.546 42.2275 110.747 41.5599 110.184 40.7019C109.622 39.844 109.321 38.8344 109.319 37.8011C109.318 36.7679 109.616 35.7575 110.177 34.898C110.738 34.0386 111.535 33.3688 112.468 32.9736C113.401 32.5784 114.428 32.4756 115.418 32.6782C116.738 32.9484 117.901 33.7423 118.652 34.8867C119.402 36.031 119.68 37.4327 119.424 38.7858Z" fill="#A49FDA"/>
<path d="M115.418 32.6789C114.432 32.4815 113.412 32.5873 112.485 32.9831C111.559 33.3789 110.768 34.0468 110.212 34.9025C109.656 35.7582 109.361 36.7633 109.363 37.7907C109.366 38.8181 109.665 39.8217 110.225 40.6748C110.785 41.5279 111.579 42.1921 112.507 42.5835C113.435 42.9749 114.456 43.076 115.441 42.8739C116.425 42.6718 117.329 42.1757 118.038 41.4482C118.747 40.7207 119.229 39.7945 119.424 38.7866C119.68 37.4335 119.402 36.0317 118.652 34.8874C117.901 33.7431 116.739 32.9491 115.418 32.6789ZM115.013 35.2462C115.15 35.195 115.298 35.1857 115.44 35.2196C115.582 35.2534 115.711 35.3289 115.812 35.4368C115.913 35.5447 115.98 35.6802 116.007 35.8268C116.033 35.9735 116.017 36.1248 115.961 36.2622C115.904 36.3997 115.81 36.5173 115.689 36.6007C115.568 36.6841 115.426 36.7296 115.281 36.7316C115.135 36.7336 114.992 36.6921 114.869 36.6121C114.746 36.5322 114.648 36.4172 114.588 36.2814C114.549 36.185 114.528 36.0815 114.528 35.9769C114.528 35.8724 114.549 35.7689 114.588 35.6726C114.628 35.5762 114.686 35.4888 114.759 35.4156C114.832 35.3424 114.918 35.2848 115.013 35.2462ZM113.03 35.2462C113.122 35.2006 113.221 35.1741 113.323 35.1683C113.425 35.1624 113.526 35.1772 113.622 35.2118C113.718 35.2465 113.807 35.3003 113.882 35.3702C113.958 35.4401 114.019 35.5246 114.062 35.6189C114.138 35.8115 114.138 36.0266 114.062 36.2194C113.987 36.4122 113.842 36.5678 113.658 36.654C113.566 36.6996 113.466 36.7261 113.365 36.732C113.263 36.7379 113.161 36.7231 113.065 36.6884C112.969 36.6537 112.881 36.5999 112.806 36.53C112.73 36.4601 112.669 36.3756 112.626 36.2814C112.583 36.1867 112.559 36.084 112.556 35.9796C112.554 35.8752 112.572 35.7714 112.61 35.6744C112.647 35.5775 112.704 35.4895 112.777 35.4158C112.849 35.3422 112.935 35.2845 113.03 35.2462ZM111.31 37.6271C111.267 37.5324 111.244 37.4297 111.241 37.3253C111.238 37.221 111.257 37.1171 111.294 37.0202C111.332 36.9232 111.389 36.8352 111.462 36.7616C111.534 36.6879 111.62 36.6302 111.715 36.5919C111.807 36.5464 111.906 36.5199 112.008 36.514C112.109 36.5081 112.211 36.5229 112.307 36.5576C112.403 36.5923 112.491 36.6461 112.567 36.716C112.642 36.7858 112.704 36.8704 112.747 36.9646C112.823 37.1573 112.823 37.3724 112.747 37.5651C112.672 37.7579 112.527 37.9136 112.342 37.9998C112.251 38.0453 112.151 38.0718 112.05 38.0777C111.948 38.0836 111.846 38.0688 111.75 38.0341C111.654 37.9995 111.566 37.9456 111.49 37.8758C111.415 37.8059 111.354 37.7214 111.31 37.6271ZM114.345 40.5257C113.131 40.5257 112.16 39.9046 112.16 39.1592C112.16 38.4139 112.605 38.2068 113.253 37.9584C113.3 37.697 113.435 37.4608 113.635 37.2906C113.834 37.1205 114.086 37.0271 114.345 37.0267C114.604 37.031 114.854 37.1258 115.052 37.2953C115.251 37.4648 115.387 37.6988 115.438 37.9584C116.086 38.2068 116.51 38.6416 116.51 39.1592C116.51 39.6768 115.539 40.5257 114.345 40.5257ZM117.077 37.9998C116.985 38.0453 116.886 38.0718 116.784 38.0777C116.683 38.0836 116.581 38.0688 116.485 38.0341C116.389 37.9995 116.301 37.9456 116.225 37.8758C116.15 37.8059 116.088 37.7214 116.045 37.6271C116.002 37.5324 115.979 37.4297 115.976 37.3253C115.973 37.221 115.991 37.1171 116.029 37.0202C116.067 36.9232 116.124 36.8352 116.196 36.7616C116.268 36.6879 116.355 36.6302 116.45 36.5919C116.541 36.5464 116.641 36.5199 116.742 36.514C116.844 36.5081 116.946 36.5229 117.042 36.5576C117.138 36.5923 117.226 36.6461 117.302 36.716C117.377 36.7858 117.438 36.8704 117.482 36.9646C117.525 37.0593 117.548 37.162 117.551 37.2664C117.554 37.3708 117.536 37.4746 117.498 37.5716C117.46 37.6685 117.403 37.7565 117.331 37.8302C117.258 37.9038 117.172 37.9615 117.077 37.9998Z" fill="#C8C5E9"/>
<path d="M116.51 39.1579C116.51 39.9032 115.539 40.5244 114.345 40.5244C113.152 40.5244 112.16 39.9032 112.16 39.1579C112.16 38.4126 112.605 38.2055 113.253 37.9571C113.3 37.6957 113.435 37.4595 113.635 37.2893C113.834 37.1192 114.086 37.0258 114.345 37.0254C114.604 37.0297 114.854 37.1245 115.052 37.294C115.251 37.4635 115.387 37.6975 115.438 37.9571C116.085 38.2055 116.51 38.6403 116.51 39.1579Z" fill="#A49FDA"/>
<path d="M112.342 37.9988C112.25 38.0443 112.151 38.0708 112.049 38.0767C111.947 38.0826 111.846 38.0678 111.75 38.0331C111.654 37.9984 111.565 37.9446 111.49 37.8747C111.414 37.8049 111.353 37.7204 111.31 37.6261C111.267 37.5314 111.243 37.4287 111.241 37.3243C111.238 37.2199 111.256 37.1161 111.294 37.0191C111.332 36.9222 111.389 36.8342 111.461 36.7605C111.533 36.6869 111.62 36.6292 111.714 36.5909C111.806 36.5454 111.905 36.5189 112.007 36.513C112.109 36.5071 112.211 36.5219 112.307 36.5566C112.403 36.5912 112.491 36.6451 112.566 36.7149C112.642 36.7848 112.703 36.8693 112.746 36.9636C112.822 37.1563 112.822 37.3713 112.747 37.5641C112.671 37.7569 112.526 37.9126 112.342 37.9988Z" fill="#A49FDA"/>
<path d="M117.076 37.9988C116.985 38.0443 116.885 38.0708 116.783 38.0767C116.682 38.0826 116.58 38.0678 116.484 38.0331C116.388 37.9984 116.3 37.9446 116.224 37.8747C116.149 37.8049 116.088 37.7204 116.044 37.6261C116.001 37.5314 115.978 37.4287 115.975 37.3243C115.972 37.2199 115.99 37.1161 116.028 37.0191C116.066 36.9222 116.123 36.8342 116.195 36.7605C116.268 36.6869 116.354 36.6292 116.449 36.5909C116.54 36.5454 116.64 36.5189 116.742 36.513C116.843 36.5071 116.945 36.5219 117.041 36.5566C117.137 36.5912 117.225 36.6451 117.301 36.7149C117.376 36.7848 117.437 36.8693 117.481 36.9636C117.524 37.0583 117.547 37.161 117.55 37.2654C117.553 37.3697 117.535 37.4736 117.497 37.5705C117.459 37.6675 117.402 37.7555 117.33 37.8291C117.257 37.9028 117.171 37.9605 117.076 37.9988Z" fill="#A49FDA"/>
<path d="M115.619 36.6534C115.482 36.7047 115.334 36.7139 115.192 36.68C115.05 36.6462 114.921 36.5707 114.82 36.4628C114.72 36.355 114.652 36.2194 114.626 36.0728C114.599 35.9262 114.615 35.7748 114.672 35.6374C114.728 35.4999 114.823 35.3823 114.943 35.2989C115.064 35.2156 115.206 35.1701 115.352 35.168C115.497 35.166 115.641 35.2075 115.763 35.2875C115.886 35.3675 115.984 35.4824 116.044 35.6182C116.083 35.7146 116.104 35.8181 116.104 35.9227C116.104 36.0272 116.083 36.1307 116.044 36.2271C116.004 36.3234 115.946 36.4108 115.873 36.484C115.8 36.5572 115.714 36.6148 115.619 36.6534Z" fill="#A49FDA"/>
<path d="M113.656 36.6531C113.565 36.6986 113.465 36.7251 113.363 36.731C113.262 36.7369 113.16 36.7221 113.064 36.6874C112.968 36.6527 112.88 36.5989 112.804 36.529C112.729 36.4592 112.668 36.3747 112.624 36.2804C112.581 36.1857 112.558 36.083 112.555 35.9786C112.552 35.8742 112.57 35.7704 112.608 35.6734C112.646 35.5765 112.703 35.4885 112.775 35.4148C112.848 35.3412 112.934 35.2835 113.029 35.2452C113.12 35.1997 113.22 35.1732 113.322 35.1673C113.423 35.1614 113.525 35.1762 113.621 35.2109C113.717 35.2455 113.805 35.2994 113.881 35.3692C113.956 35.4391 114.017 35.5236 114.061 35.6179C114.136 35.8106 114.136 36.0256 114.061 36.2184C113.986 36.4112 113.841 36.5668 113.656 36.6531Z" fill="#A49FDA"/>
<path opacity="0.48" d="M128.003 25.6395C127.983 25.5774 127.983 25.5153 127.963 25.4532C127.96 25.3767 127.966 25.3001 127.983 25.2255C127.897 24.6543 127.719 24.1016 127.457 23.5898C126.688 24.0867 125.939 24.6043 125.211 25.1426L125.029 25.3083C123.394 27.0365 121.657 28.6613 119.829 30.1737C119.06 30.8776 118.291 31.5609 117.482 32.2234C114.649 34.7907 111.715 37.1923 108.701 39.5319C107.568 40.4429 106.394 41.3538 105.22 42.2441L104.472 42.7824C104.488 42.8142 104.495 42.8501 104.492 42.8859C104.522 43.0083 104.542 43.1329 104.553 43.2586C104.549 43.3837 104.536 43.5084 104.512 43.6313C104.471 43.8718 104.382 44.1009 104.249 44.3041C104.117 44.5073 103.945 44.68 103.743 44.8114C103.552 44.9394 103.34 45.0306 103.116 45.0805H103.056L102.61 45.122H101.396L100.668 45.681V46.4677C100.668 48.6623 102.206 50.6085 104.512 51.3124L105.261 51.5195C108.175 49.5112 111.068 47.4615 113.779 45.1634C118.575 41.064 122.743 36.1778 128.003 32.6582V25.6395Z" fill="white"/>
<path opacity="0.48" d="M110.217 52.533C111.412 52.6783 112.614 52.7612 113.818 52.7815H114.607C116.449 50.9181 118.249 49.0134 120.07 47.15C121.891 45.2867 123.49 43.8374 125.27 42.2846C126.161 41.3529 127.071 40.4212 128.002 39.5102V37.1914C122.573 42.8821 116.616 48.02 110.217 52.533Z" fill="white"/>
<path d="M97.0661 23.5065C97.0561 23.5821 97.0561 23.6587 97.0661 23.7343C97.1304 24.0199 97.2963 24.2708 97.5315 24.4382C97.65 24.5143 97.7798 24.5702 97.9159 24.6038H102.044C102.259 24.6022 102.469 24.5368 102.648 24.4155C102.828 24.2943 102.969 24.1224 103.055 23.9206C103.108 23.7755 103.13 23.6207 103.121 23.4662C103.111 23.3116 103.069 23.161 102.999 23.0241C102.928 22.8872 102.83 22.7672 102.71 22.6719C102.591 22.5767 102.453 22.5083 102.307 22.4713C102.246 22.4506 102.226 22.4299 102.226 22.3678C102.21 21.9907 102.051 21.6347 101.783 21.3757C101.514 21.1166 101.158 20.9749 100.789 20.9806C100.516 20.9769 100.249 21.0562 100.02 21.2084C99.9236 21.2729 99.8353 21.3494 99.7571 21.4361L99.6155 21.6225C99.5953 21.6639 99.575 21.6846 99.5143 21.6432L99.3929 21.6018H99.3525C99.1338 21.5246 98.8963 21.5234 98.6769 21.5982C98.4574 21.6731 98.2682 21.8199 98.1385 22.0158L98.0171 22.2436C97.9968 22.285 97.9968 22.3471 97.9766 22.3885C97.9564 22.4299 97.9564 22.4506 97.8957 22.4506L97.6933 22.5334C97.5422 22.6004 97.4086 22.7027 97.3031 22.8322C97.1977 22.9616 97.1234 23.1146 97.0863 23.2788C97.0696 23.3534 97.0628 23.43 97.0661 23.5065Z" fill="white"/>
<path d="M95.9996 48.7874V84.5488C95.9996 89.019 92.7453 93.0242 87.846 94.4547C82.0426 96.1814 76.0202 97.0606 69.9653 97.0653H69.0355C63.2692 96.9719 57.5424 96.0937 52.0131 94.4547C47.1853 92.9885 43.9668 89.019 43.9668 84.5488V48.7874C43.9668 44.4245 47.0065 40.5981 51.7628 38.9888L52.0131 38.9173L53.3005 38.5239C53.7713 38.9899 54.2863 39.4091 54.8383 39.7756L53.0144 40.312L52.4422 40.4908C48.4012 41.8497 45.8264 45.104 45.8264 48.7874V84.5488C45.8264 88.3395 48.5443 91.7011 52.621 92.9169C63.9103 96.2998 75.9418 96.3122 87.2381 92.9527C91.3864 91.7011 94.14 88.3395 94.14 84.5488V48.5728C94.14 48.3225 94.1042 48.108 94.1042 47.8576C93.7109 44.6033 91.2076 41.7424 87.6672 40.5623L86.952 40.312L85.0208 39.7398L85.5215 39.2749C85.7085 39.0512 85.876 38.8119 86.0222 38.5597L86.0937 38.3809H86.1295L86.4871 38.4881L87.9533 38.953L88.3467 39.0961C91.6725 40.2047 94.1758 42.5649 95.3201 45.3901C95.7566 46.4702 95.9871 47.6225 95.9996 48.7874Z" fill="#4239AB"/>
<path d="M87.5239 33.6612C86.916 30.9076 76.8313 29.9062 69.9651 29.9062C63.0989 29.9062 54.4089 30.7645 52.6923 33.1248C52.5143 33.3491 52.414 33.6252 52.4062 33.9115C52.4062 34.4837 52.7996 34.9844 53.4791 35.4135C56.34 37.2373 64.279 37.9526 69.9651 37.9526C75.6511 37.9526 83.6259 37.2373 86.4868 35.4135C87.1663 34.9844 87.5597 34.4837 87.5597 33.9115C87.5654 33.8265 87.5532 33.7412 87.5239 33.6612ZM69.9651 36.8797C59.1294 36.8797 53.4791 34.9486 53.4791 33.9115C53.4791 32.8744 59.1294 30.9791 69.9651 30.9791C80.8008 30.9791 86.4868 32.9102 86.4868 33.9115C86.4868 34.9128 80.8008 36.8797 69.9651 36.8797Z" fill="#4239AB"/>
<path d="M86.4882 33.9109C86.4882 34.948 80.8022 36.8791 69.9665 36.8791C59.1308 36.8791 53.4805 34.948 53.4805 33.9109C53.4805 32.8739 59.1308 30.9785 69.9665 30.9785C80.8022 30.9785 86.4882 32.9096 86.4882 33.9109Z" fill="#39309F"/>
<path d="M87.9538 38.7384V38.9173C87.8962 39.2077 87.777 39.4825 87.6043 39.7231C87.4316 39.9636 87.2093 40.1644 86.9525 40.3119C83.9486 42.4219 75.0798 43.0298 69.9659 43.0298C64.852 43.0298 56.0189 42.4219 53.015 40.3119C52.7582 40.1644 52.536 39.9636 52.3632 39.7231C52.1905 39.4825 52.0713 39.2077 52.0137 38.9173V38.7384C52.02 38.3682 52.1596 38.0126 52.407 37.7371L52.7647 37.3795L53.3011 37.9159L53.4799 38.059L53.766 38.3093L54.0163 38.5239C53.9752 38.5433 53.9402 38.5735 53.915 38.6113C53.8898 38.6491 53.8754 38.6931 53.8733 38.7384C53.8733 39.5252 59.3448 41.4205 69.9659 41.4205C78.6201 41.4205 83.8413 40.1689 85.5221 39.2749C85.9154 39.0603 86.0943 38.8815 86.0943 38.7384C86.0943 38.5954 86.0585 38.6312 86.0227 38.5596C85.987 38.4881 85.9512 38.5239 85.9512 38.4881L86.0943 38.3808H86.2015L86.4876 38.1305C86.6297 37.9725 86.7611 37.8053 86.881 37.6298L87.0598 37.3438C87.2513 37.47 87.4204 37.6271 87.5605 37.8086C87.7925 38.0655 87.9311 38.3931 87.9538 38.7384Z" fill="#4239AB"/>
<path d="M53.4791 33.125H52.4062V38.4749H53.4791V33.125Z" fill="#4239AB"/>
<path d="M86.4882 35.4141V38.0604L86.2021 38.3107H86.0948L85.9518 38.418C85.9518 38.4538 85.9876 38.4538 86.0233 38.4895C85.8771 38.7418 85.7096 38.9811 85.5227 39.2048C83.8419 40.0988 78.6207 41.3504 69.9665 41.3504C59.3453 41.3504 53.8738 39.4551 53.8738 38.6683C53.876 38.623 53.8904 38.579 53.9156 38.5412C53.9408 38.5034 53.9758 38.4732 54.0169 38.4538L53.7666 38.2392L53.4805 37.9889V35.4141C56.3414 37.2379 64.2804 37.9531 69.9665 37.9531C75.6525 37.9531 83.6273 37.2379 86.4882 35.4141Z" fill="#39309F"/>
<path d="M87.5611 33.6621H86.4883V38.4756H87.5611V33.6621Z" fill="#4239AB"/>
<path d="M94.1398 48.5734C94.104 48.4661 94.104 48.3588 94.0683 48.2515C94.0624 48.1194 94.0744 47.9871 94.104 47.8581C93.7106 44.6039 91.2073 41.743 87.667 40.5628L86.9517 40.3125C83.9478 42.4224 75.079 43.0304 69.9651 43.0304C64.8512 43.0304 56.0182 42.4224 53.0142 40.3125L52.442 40.4913C48.401 41.8502 45.8262 45.1045 45.8262 48.7879V73.4991C45.8262 73.4633 45.8619 73.4633 45.8977 73.4633C46.5441 73.2394 47.2467 73.2373 47.8944 73.4576C48.5421 73.6778 49.0979 74.1076 49.4738 74.6792C49.6281 74.8984 49.7487 75.1395 49.8314 75.3944L49.9387 75.7878C49.9572 75.8428 49.9903 75.8918 50.0343 75.9296C50.0784 75.9673 50.1319 75.9925 50.1891 76.0023C50.4032 76.0357 50.6094 76.1084 50.797 76.2169H50.8328C51.274 76.4102 51.6629 76.7055 51.9676 77.0785C52.2722 77.4516 52.4839 77.8917 52.5851 78.3626C52.6381 78.5739 52.674 78.7892 52.6924 79.0063C52.6862 79.2225 52.6623 79.4378 52.6208 79.65C52.5481 80.0655 52.3898 80.4612 52.1558 80.8122C51.9219 81.1631 51.6174 81.4615 51.2619 81.6884C50.9237 81.9094 50.548 82.067 50.1533 82.1533H50.046L49.2593 82.2248H45.8262V84.5493C45.8262 88.34 48.544 91.7016 52.6208 92.9175C63.9101 96.3003 75.9416 96.3128 87.2378 92.9532C91.3862 91.7016 94.1398 88.34 94.1398 84.5493V48.5734Z" fill="#5959FF"/>
<path d="M57.2395 80.048C57.2334 80.2641 57.2095 80.4794 57.168 80.6917C57.0953 81.1071 56.9369 81.5029 56.703 81.8538C56.469 82.2048 56.1646 82.5032 55.809 82.7301C55.4708 82.9511 55.0951 83.1086 54.7004 83.195H54.5932L53.8064 83.2665H42.5416C41.9071 83.2718 41.2856 83.0874 40.7567 82.737C40.2278 82.3865 39.8157 81.8859 39.5734 81.2996C39.4009 80.8792 39.3215 80.4264 39.3407 79.9724C39.3599 79.5184 39.4771 79.074 39.6844 78.6696C39.8917 78.2652 40.1841 77.9105 40.5415 77.6299C40.8989 77.3493 41.3128 77.1494 41.7548 77.044C41.9336 77.0082 41.9694 76.9367 42.0052 76.7579C42.0516 75.667 42.5227 74.6375 43.3178 73.8892C44.1129 73.1409 45.1691 72.733 46.2608 72.7526C47.0604 72.7648 47.8407 73.0001 48.5137 73.4321C48.7771 73.6171 49.0173 73.8333 49.229 74.0758L49.6581 74.6122C49.7654 74.7553 49.8011 74.791 49.9442 74.7195L50.3733 74.5407H50.4448C51.0912 74.3168 51.7939 74.3147 52.4416 74.535C53.0892 74.7552 53.645 75.1851 54.021 75.7566C54.1752 75.9758 54.2958 76.2169 54.3786 76.4718L54.4859 76.8652C54.5044 76.9202 54.5374 76.9692 54.5815 77.007C54.6255 77.0447 54.679 77.0699 54.7362 77.0798C54.9504 77.1131 55.1565 77.1858 55.3441 77.2943H55.3799C55.8211 77.4876 56.21 77.7829 56.5147 78.1559C56.8194 78.529 57.031 78.9691 57.1322 79.44C57.1834 79.6396 57.2193 79.8429 57.2395 80.048Z" fill="white"/>
<path d="M83.8761 68.6724C83.7216 66.2461 82.9324 63.903 81.5874 61.8778C79.5519 58.8488 76.3971 56.7519 72.8163 56.0478C69.2355 55.3437 65.5216 56.0901 62.4908 58.1228C60.9732 59.1039 59.6812 60.3959 58.7001 61.9135C57.6779 63.4122 56.9721 65.1036 56.626 66.8844C55.9313 70.4635 56.6809 74.1721 58.711 77.2006C60.7411 80.229 63.8869 82.3313 67.4616 83.0485C68.3224 83.2163 69.1956 83.312 70.0722 83.3346H70.1795L71.5384 83.2631C73.7798 83.0212 75.9281 82.2356 77.7967 80.9743C78.1567 80.7445 78.503 80.4937 78.8338 80.2233L79.3702 79.7584L80.0139 79.1505L80.1927 78.9359C81.9556 77.0687 83.1469 74.7357 83.6258 72.2128C83.7794 71.5438 83.8633 70.8607 83.8761 70.1744C83.9119 69.6744 83.9119 69.1724 83.8761 68.6724ZM82.1953 71.9267C81.7299 74.3179 80.565 76.5172 78.8483 78.2456C77.1316 79.974 74.9403 81.1539 72.5523 81.6355C70.1643 82.1172 67.6871 81.879 65.4346 80.9512C63.1821 80.0233 61.2558 78.4476 59.8998 76.4237C58.5439 74.3999 57.8194 72.019 57.8181 69.5829C57.8168 67.1468 58.5389 64.7651 59.8927 62.7399C61.2465 60.7146 63.1712 59.1368 65.4227 58.2067C67.6742 57.2765 70.1512 57.0357 72.5398 57.5149C74.1201 57.8135 75.6245 58.4263 76.9636 59.317C78.3027 60.2077 79.4494 61.3582 80.3357 62.7003C81.2397 64.0391 81.8694 65.5438 82.1886 67.1274C82.5078 68.7111 82.5101 70.3422 82.1953 71.9267Z" fill="#A49FDA"/>
<path d="M80.3357 62.7C79.4494 61.3579 78.3027 60.2074 76.9636 59.3167C75.6244 58.426 74.1201 57.8132 72.5397 57.5146C69.7547 56.9635 66.8648 57.3955 64.3627 58.737C61.8607 60.0785 59.9014 62.2464 58.819 64.871C57.7366 67.4955 57.5982 70.4143 58.4273 73.1296C59.2564 75.8448 61.0016 78.1884 63.3655 79.7607C65.7294 81.333 68.5654 82.0366 71.3901 81.7516C74.2148 81.4666 76.8531 80.2106 78.8552 78.1978C80.8574 76.185 82.0993 73.54 82.3693 70.7139C82.6393 67.8877 81.9206 65.0554 80.3357 62.7ZM79.549 71.4258C79.1058 73.5971 77.9292 75.5499 76.2166 76.9564C74.5041 78.3629 72.3598 79.1375 70.1437 79.1502C69.5177 79.1494 68.8939 79.0774 68.2841 78.9356C65.9455 78.4775 63.8615 77.1645 62.4386 75.2529C61.0157 73.3412 60.356 70.968 60.5883 68.5963C60.8206 66.2246 61.9281 64.0245 63.6948 62.4252C65.4615 60.8259 67.7607 59.9421 70.1437 59.9464C70.7696 59.949 71.3933 60.021 72.0033 60.1609C73.2399 60.3947 74.4175 60.8725 75.4674 61.5663C76.5174 62.2601 77.4186 63.1561 78.1185 64.202C79.5272 66.3279 80.0412 68.9234 79.549 71.4258Z" fill="#C8C5E9"/>
<path d="M78.1188 64.2009C77.4189 63.1551 76.5177 62.2591 75.4677 61.5653C74.4178 60.8714 73.2402 60.3937 72.0036 60.1599C71.3936 60.0199 70.7699 59.948 70.144 59.9453C67.761 59.9411 65.4618 60.8248 63.6951 62.4241C61.9284 64.0234 60.8209 66.2236 60.5886 68.5953C60.3564 70.967 61.016 73.3402 62.4389 75.2518C63.8618 77.1635 65.9458 78.4765 68.2844 78.9346C68.8942 79.0764 69.518 79.1483 70.144 79.1492C72.3601 79.1365 74.5044 78.3619 76.2169 76.9554C77.9295 75.5489 79.1061 73.5961 79.5493 71.4247C80.0415 68.9224 79.5276 66.3269 78.1188 64.2009ZM78.9771 71.2817C78.6379 73.0339 77.7861 74.6459 76.5296 75.9134C75.2732 77.1809 73.6687 78.0468 71.9195 78.4013C70.1703 78.7558 68.3553 78.583 66.7045 77.9047C65.0536 77.2264 63.6414 76.0732 62.6468 74.5913C61.6522 73.1094 61.1199 71.3656 61.1176 69.5808C61.1153 67.7961 61.6429 66.0509 62.6337 64.5664C63.6244 63.0819 65.0336 61.925 66.6826 61.2424C68.3317 60.5598 70.1463 60.3822 71.8963 60.7321C74.2307 61.1988 76.2855 62.5702 77.6121 64.5468C78.9388 66.5233 79.4295 68.9445 78.9771 71.2817Z" fill="#A49FDA"/>
<path d="M71.8963 60.7318C70.1548 60.3907 68.3513 60.5736 66.7136 61.2572C65.0759 61.9408 63.6777 63.0946 62.6955 64.5726C61.7133 66.0506 61.1913 67.7866 61.1953 69.5612C61.1994 71.3358 61.7294 73.0694 62.7184 74.5429C63.7074 76.0164 65.111 77.1637 66.7518 77.8397C68.3926 78.5158 70.1969 78.6904 71.9369 78.3413C73.6768 77.9923 75.2743 77.1353 76.5274 75.8787C77.7804 74.6221 78.6329 73.0223 78.9771 71.2814C79.4295 68.9442 78.9388 66.523 77.6121 64.5464C76.2855 62.5699 74.2307 61.1985 71.8963 60.7318ZM71.1811 65.1662C71.423 65.0777 71.6854 65.0617 71.9362 65.1202C72.1869 65.1787 72.4152 65.3091 72.593 65.4954C72.7708 65.6817 72.8903 65.9159 72.9369 66.1691C72.9836 66.4224 72.9553 66.6838 72.8556 66.9212C72.7559 67.1586 72.589 67.3618 72.3755 67.5058C72.1621 67.6498 71.9112 67.7284 71.6537 67.7319C71.3962 67.7354 71.1433 67.6637 70.9259 67.5255C70.7086 67.3874 70.5363 67.1889 70.4301 66.9542C70.3603 66.7877 70.3244 66.609 70.3245 66.4284C70.3245 66.2478 70.3606 66.0691 70.4305 65.9026C70.5004 65.7362 70.6028 65.5853 70.7317 65.4589C70.8606 65.3324 71.0134 65.2329 71.1811 65.1662ZM67.6765 65.1662C67.8383 65.0875 68.0141 65.0417 68.1938 65.0316C68.3734 65.0214 68.5533 65.047 68.7229 65.1069C68.8926 65.1667 69.0487 65.2597 69.1821 65.3804C69.3156 65.5011 69.4237 65.6471 69.5003 65.8099C69.6339 66.1427 69.6341 66.5142 69.5009 66.8472C69.3677 67.1801 69.1113 67.449 68.7851 67.5979C68.6233 67.6766 68.4475 67.7224 68.2678 67.7325C68.0882 67.7427 67.9083 67.7171 67.7387 67.6572C67.569 67.5974 67.4129 67.5044 67.2795 67.3837C67.146 67.263 67.0379 67.117 66.9613 66.9542C66.8854 66.7906 66.8437 66.6132 66.8388 66.433C66.8339 66.2527 66.866 66.0733 66.933 65.9058C67 65.7384 67.1005 65.5864 67.2283 65.4592C67.3562 65.332 67.5087 65.2323 67.6765 65.1662ZM64.6368 69.2787C64.5609 69.1151 64.5192 68.9377 64.5143 68.7574C64.5095 68.5772 64.5415 68.3978 64.6085 68.2303C64.6755 68.0629 64.776 67.9109 64.9038 67.7837C65.0317 67.6565 65.1842 67.5568 65.352 67.4907C65.5138 67.412 65.6897 67.3662 65.8693 67.3561C66.0489 67.3459 66.2288 67.3715 66.3985 67.4314C66.5681 67.4912 66.7242 67.5842 66.8577 67.7049C66.9911 67.8256 67.0993 67.9716 67.1758 68.1344C67.3094 68.4672 67.3096 68.8387 67.1764 69.1717C67.0432 69.5046 66.7869 69.7735 66.4606 69.9224C66.2988 70.0011 66.123 70.0468 65.9433 70.057C65.7637 70.0672 65.5838 70.0416 65.4142 69.9817C65.2445 69.9218 65.0884 69.8289 64.955 69.7082C64.8215 69.5875 64.7134 69.4415 64.6368 69.2787ZM70.001 74.2853C67.8553 74.2853 66.1388 73.2125 66.1388 71.9251C66.1388 70.6377 66.9255 70.28 68.0699 69.8509C68.1534 69.3995 68.3921 68.9914 68.7448 68.6975C69.0975 68.4036 69.5419 68.2423 70.001 68.2416C70.4582 68.2491 70.8992 68.4128 71.2505 68.7055C71.6018 68.9983 71.8423 69.4025 71.9321 69.8509C73.0765 70.28 73.8275 71.031 73.8275 71.9251C73.8275 72.8191 72.1109 74.2853 70.001 74.2853ZM74.8288 69.9224C74.667 70.0011 74.4911 70.0468 74.3115 70.057C74.1319 70.0672 73.952 70.0416 73.7823 69.9817C73.6127 69.9218 73.4566 69.8289 73.3231 69.7082C73.1897 69.5875 73.0815 69.4415 73.0049 69.2787C72.929 69.1151 72.8874 68.9377 72.8825 68.7574C72.8776 68.5772 72.9097 68.3978 72.9766 68.2303C73.0436 68.0629 73.1441 67.9109 73.272 67.7837C73.3999 67.6565 73.5524 67.5568 73.7202 67.4907C73.882 67.412 74.0578 67.3662 74.2374 67.3561C74.4171 67.3459 74.5969 67.3715 74.7666 67.4314C74.9363 67.4912 75.0924 67.5842 75.2258 67.7049C75.3593 67.8256 75.4674 67.9716 75.544 68.1344C75.6199 68.298 75.6616 68.4753 75.6665 68.6556C75.6713 68.8359 75.6393 69.0153 75.5723 69.1828C75.5053 69.3502 75.4048 69.5022 75.277 69.6294C75.1491 69.7566 74.9966 69.8563 74.8288 69.9224Z" fill="#C8C5E9"/>
<path d="M73.8274 71.9256C73.8274 73.213 72.1108 74.2859 70.0009 74.2859C67.891 74.2859 66.1387 73.213 66.1387 71.9256C66.1387 70.6382 66.9254 70.2806 68.0698 69.8514C68.1533 69.4 68.392 68.992 68.7447 68.6981C69.0974 68.4042 69.5418 68.2429 70.0009 68.2422C70.4581 68.2496 70.8991 68.4133 71.2504 68.7061C71.6017 68.9989 71.8422 69.403 71.932 69.8514C73.0764 70.2806 73.8274 71.0316 73.8274 71.9256Z" fill="#A49FDA"/>
<path d="M66.4604 69.9221C66.2986 70.0007 66.1228 70.0465 65.9432 70.0567C65.7635 70.0668 65.5837 70.0412 65.414 69.9814C65.2443 69.9215 65.0883 69.8285 64.9548 69.7078C64.8214 69.5871 64.7132 69.4412 64.6366 69.2784C64.5607 69.1148 64.519 68.9374 64.5142 68.7571C64.5093 68.5768 64.5413 68.3974 64.6083 68.23C64.6753 68.0625 64.7758 67.9105 64.9037 67.7833C65.0315 67.6561 65.184 67.5564 65.3518 67.4903C65.5137 67.4116 65.6895 67.3659 65.8691 67.3557C66.0488 67.3455 66.2286 67.3711 66.3983 67.431C66.5679 67.4909 66.724 67.5838 66.8575 67.7045C66.9909 67.8252 67.0991 67.9712 67.1757 68.134C67.3092 68.4668 67.3094 68.8383 67.1762 69.1713C67.043 69.5043 66.7867 69.7731 66.4604 69.9221Z" fill="#A49FDA"/>
<path d="M74.8276 69.9221C74.6658 70.0007 74.49 70.0465 74.3104 70.0567C74.1307 70.0668 73.9509 70.0412 73.7812 69.9814C73.6115 69.9215 73.4554 69.8285 73.322 69.7078C73.1885 69.5871 73.0804 69.4412 73.0038 69.2784C72.9279 69.1148 72.8862 68.9374 72.8813 68.7571C72.8765 68.5768 72.9085 68.3974 72.9755 68.23C73.0425 68.0625 73.143 67.9105 73.2708 67.7833C73.3987 67.6561 73.5512 67.5564 73.719 67.4903C73.8808 67.4116 74.0567 67.3659 74.2363 67.3557C74.4159 67.3455 74.5958 67.3711 74.7655 67.431C74.9351 67.4909 75.0912 67.5838 75.2247 67.7045C75.3581 67.8252 75.4663 67.9712 75.5429 68.134C75.6188 68.2976 75.6605 68.475 75.6653 68.6553C75.6702 68.8356 75.6381 69.0149 75.5712 69.1824C75.5042 69.3499 75.4037 69.5018 75.2758 69.629C75.148 69.7562 74.9954 69.856 74.8276 69.9221Z" fill="#A49FDA"/>
<path d="M72.2543 67.5971C72.0124 67.6855 71.75 67.7015 71.4992 67.643C71.2484 67.5845 71.0202 67.4541 70.8424 67.2678C70.6646 67.0815 70.5451 66.8474 70.4985 66.5941C70.4518 66.3408 70.4801 66.0795 70.5798 65.842C70.6795 65.6046 70.8463 65.4015 71.0598 65.2575C71.2733 65.1135 71.5242 65.0349 71.7817 65.0314C72.0392 65.0279 72.2921 65.0996 72.5095 65.2377C72.7268 65.3758 72.8991 65.5744 73.0053 65.809C73.0751 65.9755 73.111 66.1543 73.1109 66.3348C73.1109 66.5154 73.0748 66.6941 73.0049 66.8606C72.935 67.0271 72.8326 67.1779 72.7037 67.3044C72.5748 67.4308 72.422 67.5303 72.2543 67.5971Z" fill="#A49FDA"/>
<path d="M68.7847 67.5978C68.6229 67.6765 68.447 67.7223 68.2674 67.7324C68.0878 67.7426 67.9079 67.717 67.7382 67.6571C67.5686 67.5973 67.4125 67.5043 67.279 67.3836C67.1456 67.2629 67.0374 67.1169 66.9608 66.9541C66.8849 66.7905 66.8432 66.6132 66.8384 66.4329C66.8335 66.2526 66.8655 66.0732 66.9325 65.9057C66.9995 65.7383 67.1 65.5863 67.2279 65.4591C67.3557 65.3319 67.5083 65.2322 67.6761 65.1661C67.8379 65.0874 68.0137 65.0417 68.1933 65.0315C68.373 65.0213 68.5528 65.0469 68.7225 65.1068C68.8922 65.1667 69.0483 65.2596 69.1817 65.3803C69.3152 65.501 69.4233 65.647 69.4999 65.8098C69.6334 66.1426 69.6336 66.5141 69.5004 66.8471C69.3672 67.18 69.1109 67.4489 68.7847 67.5978Z" fill="#A49FDA"/>
<path opacity="0.48" d="M94.1398 48.5736C94.104 48.4663 94.104 48.359 94.0683 48.2517C94.0624 48.1196 94.0744 47.9873 94.104 47.8584C93.9521 46.8718 93.6379 45.9172 93.1742 45.0332C91.8153 45.8915 90.4921 46.7855 89.2047 47.7153L88.8829 48.0014C85.9926 50.9865 82.9234 53.793 79.6922 56.4053C78.3333 57.6212 76.9743 58.8013 75.5439 59.9457C70.5373 64.3801 65.3519 68.5284 60.0234 72.5695C58.0208 74.143 55.9466 75.7165 53.8725 77.2542L52.5493 78.184C52.5782 78.2389 52.5906 78.301 52.5851 78.3628C52.6381 78.5741 52.674 78.7894 52.6924 79.0065C52.6862 79.2227 52.6623 79.438 52.6208 79.6502C52.5481 80.0657 52.3898 80.4614 52.1558 80.8124C51.9219 81.1633 51.6174 81.4617 51.2619 81.6886C50.9237 81.9096 50.548 82.0672 50.1533 82.1535H50.046L49.2593 82.225H47.1136L45.8262 83.1906V84.5495C45.8262 88.3402 48.544 91.7018 52.6208 92.9177L53.944 93.2753C59.0936 89.8064 64.2075 86.2661 68.9995 82.2965C77.475 75.2158 84.8418 66.7761 94.1398 60.6967V48.5736Z" fill="white"/>
<path opacity="0.48" d="M62.707 95.0285C64.8202 95.2794 66.9448 95.4226 69.0726 95.4576H70.4672C73.7215 92.2391 76.9043 88.949 80.1228 85.7305C83.3413 82.512 86.1665 80.0087 89.3135 77.3266C90.887 75.7173 92.4963 74.1081 94.1413 72.5346V68.5293C84.5453 78.3586 74.0178 87.2333 62.707 95.0285Z" fill="white"/>
<path d="M39.4605 44.8905C39.4428 45.0211 39.4428 45.1534 39.4605 45.2839C39.5742 45.7773 39.8674 46.2107 40.283 46.4998C40.4926 46.6312 40.722 46.7279 40.9625 46.7859H48.2578C48.638 46.783 49.0093 46.6701 49.3266 46.4606C49.644 46.2512 49.8938 45.9542 50.0459 45.6057C50.1394 45.3552 50.1788 45.0877 50.1616 44.8208C50.1444 44.5539 50.0708 44.2937 49.9459 44.0573C49.8209 43.8208 49.6473 43.6135 49.4365 43.449C49.2257 43.2844 48.9824 43.1663 48.7227 43.1025C48.6154 43.0667 48.5797 43.0309 48.5797 42.9236C48.5518 42.2723 48.2709 41.6575 47.7967 41.21C47.3225 40.7625 46.6925 40.5177 46.0406 40.5276C45.5587 40.5212 45.0857 40.6581 44.6817 40.921C44.5111 41.0324 44.3549 41.1646 44.2168 41.3144L43.9665 41.6362C43.9307 41.7078 43.8949 41.7435 43.7876 41.672L43.5731 41.6005H43.5016C43.115 41.4672 42.6953 41.4651 42.3075 41.5944C41.9196 41.7237 41.5852 41.9772 41.3559 42.3157L41.1413 42.7091C41.1055 42.7806 41.1055 42.8879 41.0698 42.9594C41.034 43.0309 41.034 43.0667 40.9267 43.0667L40.5691 43.2097C40.302 43.3254 40.0658 43.5021 39.8795 43.7257C39.6931 43.9493 39.5619 44.2136 39.4963 44.4971C39.4667 44.6261 39.4546 44.7584 39.4605 44.8905Z" fill="white"/>
<path d="M34.1564 13.8706V34.5745C34.1564 37.1625 32.3152 39.4813 29.5432 40.3095C26.2597 41.3092 22.8523 41.8182 19.4265 41.8209H18.9004C15.6379 41.7669 12.3977 41.2584 9.26931 40.3095C6.5378 39.4606 4.7168 37.1625 4.7168 34.5745V13.8706C4.7168 11.3447 6.43664 9.12935 9.12768 8.19767L9.26931 8.15626L9.99772 7.92852C10.2641 8.19833 10.5555 8.44101 10.8678 8.65316L9.83585 8.96372L9.51211 9.06724C7.22574 9.85399 5.76893 11.738 5.76893 13.8706V34.5745C5.76893 36.7691 7.30667 38.7153 9.61328 39.4192C16.0006 41.3777 22.8079 41.3849 29.1992 39.4399C31.5463 38.7153 33.1043 36.7691 33.1043 34.5745V13.7463C33.1043 13.6014 33.084 13.4772 33.084 13.3323C32.8615 11.4482 31.4451 9.79187 29.442 9.10864L29.0373 8.96372L27.9447 8.63245L28.228 8.3633C28.3338 8.23379 28.4286 8.09526 28.5113 7.94922L28.5518 7.8457H28.572L28.7743 7.90781L29.6039 8.17697L29.8265 8.25978C31.7082 8.9016 33.1245 10.2681 33.772 11.9037C34.0189 12.529 34.1493 13.1961 34.1564 13.8706Z" fill="#4239AB"/>
<path d="M29.3614 5.11337C29.0174 3.51916 23.3116 2.93945 19.4268 2.93945C15.542 2.93945 10.6253 3.43635 9.65405 4.80281C9.55335 4.93271 9.49655 5.09254 9.49219 5.2583C9.49219 5.58956 9.71475 5.87941 10.0992 6.12786C11.7179 7.18376 16.2097 7.59784 19.4268 7.59784C22.6439 7.59784 27.156 7.18376 28.7746 6.12786C29.1591 5.87941 29.3816 5.58956 29.3816 5.2583C29.3849 5.20907 29.378 5.15969 29.3614 5.11337ZM19.4268 6.97672C13.2961 6.97672 10.0992 5.85871 10.0992 5.2583C10.0992 4.65788 13.2961 3.56057 19.4268 3.56057C25.5575 3.56057 28.7746 4.67858 28.7746 5.2583C28.7746 5.83801 25.5575 6.97672 19.4268 6.97672Z" fill="#4239AB"/>
<path d="M28.775 5.25827C28.775 5.85869 25.5579 6.9767 19.4272 6.9767C13.2965 6.9767 10.0996 5.85869 10.0996 5.25827C10.0996 4.65786 13.2965 3.56055 19.4272 3.56055C25.5579 3.56055 28.775 4.67856 28.775 5.25827Z" fill="#39309F"/>
<path d="M29.6041 8.05355V8.15707C29.5715 8.32524 29.504 8.48432 29.4063 8.62359C29.3086 8.76287 29.1829 8.87912 29.0376 8.96452C27.338 10.1861 22.3201 10.538 19.4267 10.538C16.5333 10.538 11.5357 10.1861 9.83607 8.96452C9.69077 8.87912 9.56504 8.76287 9.46732 8.62359C9.3696 8.48432 9.30216 8.32524 9.26953 8.15707V8.05355C9.27309 7.83919 9.35212 7.63335 9.4921 7.47384L9.69443 7.2668L9.99793 7.57736L10.0991 7.66017L10.261 7.8051L10.4026 7.92932C10.3794 7.94057 10.3596 7.95807 10.3453 7.97995C10.331 8.00184 10.3229 8.02728 10.3217 8.05355C10.3217 8.50903 13.4174 9.60634 19.4267 9.60634C24.3232 9.60634 27.2773 8.88171 28.2282 8.36411C28.4508 8.23988 28.552 8.13636 28.552 8.05355C28.552 7.97073 28.5317 7.99144 28.5115 7.95003C28.4913 7.90862 28.471 7.92932 28.471 7.90862L28.552 7.84651H28.6127L28.7745 7.70158C28.8549 7.61012 28.9293 7.51329 28.9971 7.41173L29.0983 7.24609C29.2066 7.31917 29.3023 7.41012 29.3815 7.51525C29.5128 7.66394 29.5912 7.8536 29.6041 8.05355Z" fill="#4239AB"/>
<path d="M10.0992 4.80273H9.49219V7.90005H10.0992V4.80273Z" fill="#4239AB"/>
<path d="M28.775 6.12695V7.65905L28.6132 7.80397H28.5525L28.4715 7.86608C28.4715 7.88679 28.4918 7.88679 28.512 7.90749C28.4293 8.05353 28.3345 8.19206 28.2287 8.32157C27.2778 8.83917 24.3237 9.56381 19.4272 9.56381C13.4179 9.56381 10.3222 8.4665 10.3222 8.01101C10.3234 7.98474 10.3316 7.9593 10.3458 7.93742C10.3601 7.91553 10.3799 7.89803 10.4031 7.88679L10.2615 7.76256L10.0996 7.61764V6.12695C11.7183 7.18285 16.2101 7.59693 19.4272 7.59693C22.6443 7.59693 27.1564 7.18285 28.775 6.12695Z" fill="#39309F"/>
<path d="M29.3824 5.11328H28.7754V7.90003H29.3824V5.11328Z" fill="#4239AB"/>
<path d="M33.1049 13.7475C33.0846 13.6853 33.0846 13.6232 33.0644 13.5611C33.0611 13.4846 33.0679 13.408 33.0846 13.3334C32.8621 11.4493 31.4457 9.793 29.4426 9.10977L29.0379 8.96484C27.3383 10.1864 22.3205 10.5383 19.4271 10.5383C16.5337 10.5383 11.5361 10.1864 9.83645 8.96484L9.51271 9.06836C7.22634 9.85511 5.76953 11.7392 5.76953 13.8717V28.1781C5.76953 28.1574 5.78976 28.1574 5.81 28.1574C6.17573 28.0278 6.57327 28.0266 6.93972 28.1541C7.30618 28.2816 7.62063 28.5305 7.83334 28.8613C7.92063 28.9882 7.98883 29.1278 8.03567 29.2754L8.09637 29.5032C8.10684 29.535 8.12553 29.5634 8.15046 29.5852C8.1754 29.6071 8.20565 29.6217 8.23801 29.6274C8.35918 29.6467 8.47581 29.6888 8.58197 29.7516H8.60221C8.85183 29.8635 9.07189 30.0345 9.24427 30.2504C9.41664 30.4664 9.53639 30.7212 9.59365 30.9938C9.62366 31.1162 9.64396 31.2408 9.65435 31.3665C9.65089 31.4917 9.63736 31.6163 9.61388 31.7392C9.57275 31.9797 9.48314 32.2088 9.35078 32.412C9.21841 32.6152 9.04617 32.788 8.84501 32.9193C8.65364 33.0473 8.44109 33.1385 8.21777 33.1885H8.15707L7.71194 33.2299H5.76953V34.5756C5.76953 36.7702 7.30727 38.7164 9.61388 39.4204C16.0012 41.3788 22.8085 41.386 29.1998 39.4411C31.5469 38.7164 33.1049 36.7702 33.1049 34.5756V13.7475Z" fill="#5959FF"/>
<path d="M12.2262 31.9681C12.2227 32.0933 12.2092 32.2179 12.1857 32.3408C12.1446 32.5813 12.055 32.8105 11.9226 33.0136C11.7903 33.2168 11.618 33.3896 11.4169 33.5209C11.2255 33.6489 11.0129 33.7401 10.7896 33.7901H10.7289L10.2838 33.8315H3.91027C3.55131 33.8346 3.19964 33.7278 2.9004 33.5249C2.60116 33.322 2.36802 33.0322 2.23089 32.6928C2.13331 32.4494 2.0884 32.1873 2.09924 31.9244C2.11008 31.6616 2.17642 31.4043 2.2937 31.1701C2.41098 30.936 2.57642 30.7307 2.77863 30.5682C2.98085 30.4058 3.21505 30.29 3.46513 30.229C3.5663 30.2083 3.58653 30.1669 3.60677 30.0634C3.63307 29.4318 3.8996 28.8358 4.34946 28.4025C4.79932 27.9693 5.39687 27.7332 6.01454 27.7445C6.46696 27.7516 6.90847 27.8878 7.28925 28.1379C7.43828 28.245 7.57415 28.3702 7.69391 28.5106L7.93672 28.8211C7.99742 28.904 8.01765 28.9247 8.09858 28.8832L8.34138 28.7797H8.38185C8.74758 28.6501 9.14512 28.6489 9.51157 28.7764C9.87803 28.9039 10.1925 29.1528 10.4052 29.4837C10.4925 29.6106 10.5607 29.7501 10.6075 29.8977L10.6682 30.1255C10.6787 30.1573 10.6974 30.1857 10.7223 30.2076C10.7472 30.2294 10.7775 30.244 10.8099 30.2497C10.931 30.269 11.0477 30.3111 11.1538 30.3739H11.1741C11.4237 30.4858 11.6437 30.6568 11.8161 30.8728C11.9885 31.0887 12.1082 31.3435 12.1655 31.6162C12.1945 31.7317 12.2148 31.8494 12.2262 31.9681Z" fill="white"/>
<path d="M27.2973 25.3826C27.2099 23.9779 26.7633 22.6214 26.0023 21.4489C24.8507 19.6953 23.0657 18.4813 21.0397 18.0736C19.0138 17.666 16.9125 18.0981 15.1977 19.275C14.3391 19.8429 13.608 20.591 13.053 21.4696C12.4746 22.3372 12.0753 23.3165 11.8794 24.3474C11.4864 26.4196 11.9105 28.5667 13.0591 30.32C14.2077 32.0733 15.9876 33.2904 18.0101 33.7056C18.4971 33.8027 18.9912 33.8581 19.4872 33.8712H19.5479L20.3167 33.8298C21.5849 33.6898 22.8004 33.235 23.8576 32.5048C24.0613 32.3717 24.2572 32.2265 24.4444 32.07L24.7479 31.8008L25.1121 31.4489L25.2132 31.3247C26.2106 30.2436 26.8847 28.8929 27.1556 27.4323C27.2425 27.045 27.29 26.6495 27.2973 26.2522C27.3175 25.9627 27.3175 25.6721 27.2973 25.3826ZM26.3463 27.2667C26.083 28.6511 25.4239 29.9243 24.4526 30.925C23.4813 31.9257 22.2415 32.6087 20.8904 32.8876C19.5393 33.1664 18.1377 33.0285 16.8632 32.4914C15.5888 31.9542 14.4989 31.0419 13.7317 29.8702C12.9646 28.6985 12.5546 27.3201 12.5539 25.9097C12.5532 24.4993 12.9617 23.1205 13.7277 21.948C14.4937 20.7754 15.5826 19.862 16.8565 19.3235C18.1304 18.785 19.5319 18.6456 20.8833 18.923C21.7774 19.0958 22.6286 19.4506 23.3862 19.9663C24.1439 20.482 24.7927 21.1481 25.2942 21.9251C25.8056 22.7002 26.1619 23.5713 26.3425 24.4882C26.5231 25.405 26.5244 26.3493 26.3463 27.2667Z" fill="#A49FDA"/>
<path d="M25.2938 21.9243C24.7923 21.1473 24.1435 20.4812 23.3859 19.9655C22.6282 19.4498 21.7771 19.0951 20.8829 18.9222C19.3072 18.6031 17.6721 18.8533 16.2564 19.6299C14.8408 20.4066 13.7323 21.6617 13.1199 23.1811C12.5075 24.7006 12.4291 26.3905 12.8982 27.9624C13.3673 29.5344 14.3548 30.8912 15.6922 31.8015C17.0297 32.7118 18.6343 33.1192 20.2325 32.9542C21.8306 32.7892 23.3234 32.062 24.4562 30.8967C25.5889 29.7314 26.2916 28.2001 26.4444 26.5639C26.5971 24.9277 26.1905 23.288 25.2938 21.9243ZM24.8487 26.976C24.5979 28.2331 23.9322 29.3637 22.9632 30.178C21.9943 30.9923 20.7811 31.4407 19.5273 31.4481C19.1731 31.4476 18.8201 31.4059 18.4751 31.3239C17.152 31.0586 15.9728 30.2985 15.1678 29.1917C14.3627 28.085 13.9895 26.711 14.1209 25.3379C14.2523 23.9648 14.8789 22.6911 15.8785 21.7652C16.8781 20.8393 18.179 20.3276 19.5273 20.3301C19.8814 20.3316 20.2343 20.3733 20.5794 20.4543C21.279 20.5896 21.9453 20.8662 22.5394 21.2679C23.1334 21.6696 23.6433 22.1883 24.0393 22.7938C24.8364 24.0246 25.1272 25.5273 24.8487 26.976Z" fill="#C8C5E9"/>
<path d="M24.0399 22.7939C23.6439 22.1884 23.134 21.6696 22.54 21.2679C21.9459 20.8663 21.2797 20.5897 20.58 20.4543C20.2349 20.3733 19.882 20.3316 19.5279 20.3301C18.1796 20.3276 16.8787 20.8393 15.8791 21.7652C14.8796 22.6911 14.2529 23.9649 14.1215 25.338C13.9901 26.7111 14.3634 28.085 15.1684 29.1917C15.9735 30.2985 17.1526 31.0586 18.4758 31.3239C18.8207 31.406 19.1737 31.4476 19.5279 31.4481C20.7817 31.4408 21.9949 30.9923 22.9639 30.178C23.9328 29.3637 24.5985 28.2331 24.8493 26.9761C25.1278 25.5273 24.837 24.0247 24.0399 22.7939ZM24.5255 26.8932C24.3336 27.9077 23.8517 28.841 23.1408 29.5748C22.4299 30.3086 21.5221 30.8099 20.5324 31.0151C19.5428 31.2204 18.5158 31.1203 17.5818 30.7276C16.6478 30.3349 15.8488 29.6673 15.286 28.8093C14.7233 27.9514 14.4222 26.9418 14.4208 25.9085C14.4195 24.8753 14.718 23.8649 15.2786 23.0054C15.8391 22.146 16.6365 21.4762 17.5695 21.081C18.5025 20.6858 19.5291 20.583 20.5193 20.7856C21.8401 21.0558 23.0027 21.8497 23.7533 22.9941C24.5039 24.1384 24.7815 25.5402 24.5255 26.8932Z" fill="#A49FDA"/>
<path d="M20.5194 20.7863C19.534 20.5889 18.5136 20.6947 17.587 21.0905C16.6605 21.4863 15.8693 22.1542 15.3136 23.0099C14.7579 23.8656 14.4625 24.8707 14.4649 25.8981C14.4672 26.9255 14.767 27.9292 15.3266 28.7822C15.8862 29.6353 16.6803 30.2995 17.6086 30.6909C18.537 31.0824 19.5579 31.1834 20.5423 30.9813C21.5268 30.7793 22.4306 30.2831 23.1396 29.5556C23.8485 28.8281 24.3309 27.9019 24.5256 26.894C24.7816 25.5409 24.5039 24.1392 23.7533 22.9948C23.0027 21.8505 21.8401 21.0565 20.5194 20.7863ZM20.1147 23.3536C20.2515 23.3024 20.4 23.2931 20.5419 23.327C20.6838 23.3609 20.813 23.4364 20.9135 23.5442C21.0141 23.6521 21.0817 23.7876 21.1081 23.9343C21.1345 24.0809 21.1185 24.2322 21.0621 24.3697C21.0057 24.5071 20.9113 24.6247 20.7905 24.7081C20.6697 24.7915 20.5278 24.837 20.3821 24.839C20.2364 24.841 20.0933 24.7995 19.9703 24.7196C19.8474 24.6396 19.7499 24.5246 19.6898 24.3888C19.6503 24.2924 19.63 24.1889 19.63 24.0844C19.6301 23.9798 19.6505 23.8764 19.69 23.78C19.7296 23.6836 19.7875 23.5963 19.8604 23.5231C19.9333 23.4498 20.0198 23.3922 20.1147 23.3536ZM18.1318 23.3536C18.2234 23.3081 18.3229 23.2816 18.4245 23.2757C18.5261 23.2698 18.6279 23.2846 18.7239 23.3193C18.8199 23.3539 18.9082 23.4078 18.9837 23.4776C19.0592 23.5475 19.1204 23.632 19.1637 23.7263C19.2393 23.919 19.2394 24.134 19.164 24.3268C19.0887 24.5196 18.9437 24.6753 18.7591 24.7615C18.6675 24.807 18.568 24.8335 18.4664 24.8394C18.3648 24.8453 18.263 24.8305 18.167 24.7958C18.071 24.7611 17.9827 24.7073 17.9072 24.6374C17.8317 24.5676 17.7705 24.4831 17.7272 24.3888C17.6842 24.2941 17.6606 24.1914 17.6579 24.087C17.6551 23.9826 17.6733 23.8788 17.7112 23.7818C17.749 23.6849 17.8059 23.5969 17.8783 23.5232C17.9506 23.4496 18.0369 23.3919 18.1318 23.3536ZM16.412 25.7346C16.369 25.6398 16.3455 25.5371 16.3427 25.4328C16.34 25.3284 16.3581 25.2245 16.396 25.1276C16.4339 25.0306 16.4907 24.9426 16.5631 24.869C16.6354 24.7954 16.7217 24.7376 16.8167 24.6994C16.9082 24.6538 17.0077 24.6273 17.1093 24.6214C17.211 24.6155 17.3127 24.6304 17.4087 24.665C17.5047 24.6997 17.593 24.7535 17.6685 24.8234C17.744 24.8933 17.8052 24.9778 17.8486 25.072C17.9241 25.2647 17.9242 25.4798 17.8489 25.6726C17.7735 25.8653 17.6285 26.021 17.4439 26.1072C17.3523 26.1528 17.2529 26.1793 17.1512 26.1852C17.0496 26.191 16.9478 26.1762 16.8518 26.1416C16.7558 26.1069 16.6675 26.0531 16.592 25.9832C16.5165 25.9133 16.4553 25.8288 16.412 25.7346ZM19.447 28.6331C18.233 28.6331 17.2618 28.012 17.2618 27.2666C17.2618 26.5213 17.7069 26.3143 18.3544 26.0658C18.4016 25.8045 18.5367 25.5682 18.7363 25.3981C18.9358 25.2279 19.1873 25.1345 19.447 25.1341C19.7057 25.1384 19.9552 25.2332 20.154 25.4027C20.3527 25.5722 20.4888 25.8062 20.5396 26.0658C21.1871 26.3143 21.612 26.749 21.612 27.2666C21.612 27.7842 20.6408 28.6331 19.447 28.6331ZM22.1785 26.1072C22.087 26.1528 21.9875 26.1793 21.8858 26.1852C21.7842 26.191 21.6824 26.1762 21.5865 26.1416C21.4905 26.1069 21.4021 26.0531 21.3266 25.9832C21.2511 25.9133 21.1899 25.8288 21.1466 25.7346C21.1037 25.6398 21.0801 25.5371 21.0773 25.4328C21.0746 25.3284 21.0927 25.2245 21.1306 25.1276C21.1685 25.0306 21.2254 24.9426 21.2977 24.869C21.37 24.7954 21.4563 24.7376 21.5513 24.6994C21.6428 24.6538 21.7423 24.6273 21.8439 24.6214C21.9456 24.6155 22.0473 24.6304 22.1433 24.665C22.2393 24.6997 22.3277 24.7535 22.4032 24.8234C22.4787 24.8933 22.5399 24.9778 22.5832 25.072C22.6261 25.1667 22.6497 25.2694 22.6525 25.3738C22.6552 25.4782 22.6371 25.5821 22.5992 25.679C22.5613 25.7759 22.5044 25.8639 22.4321 25.9376C22.3597 26.0112 22.2735 26.069 22.1785 26.1072Z" fill="#C8C5E9"/>
<path d="M21.6119 27.2653C21.6119 28.0107 20.6407 28.6318 19.4469 28.6318C18.2532 28.6318 17.2617 28.0107 17.2617 27.2653C17.2617 26.52 17.7069 26.3129 18.3543 26.0645C18.4016 25.8031 18.5366 25.5669 18.7362 25.3967C18.9357 25.2266 19.1872 25.1332 19.4469 25.1328C19.7056 25.1371 19.9551 25.2319 20.1539 25.4014C20.3526 25.5709 20.4887 25.8049 20.5395 26.0645C21.187 26.3129 21.6119 26.7477 21.6119 27.2653Z" fill="#A49FDA"/>
<path d="M17.4433 26.1062C17.3517 26.1517 17.2522 26.1782 17.1506 26.1841C17.049 26.19 16.9472 26.1752 16.8512 26.1405C16.7552 26.1059 16.6669 26.052 16.5914 25.9822C16.5159 25.9123 16.4547 25.8278 16.4114 25.7335C16.3684 25.6388 16.3448 25.5361 16.3421 25.4317C16.3393 25.3274 16.3574 25.2235 16.3953 25.1266C16.4332 25.0296 16.4901 24.9416 16.5625 24.868C16.6348 24.7943 16.7211 24.7366 16.816 24.6983C16.9076 24.6528 17.0071 24.6263 17.1087 24.6204C17.2103 24.6145 17.3121 24.6293 17.4081 24.664C17.5041 24.6987 17.5924 24.7525 17.6679 24.8224C17.7434 24.8922 17.8046 24.9767 17.8479 25.071C17.9235 25.2637 17.9236 25.4788 17.8482 25.6715C17.7729 25.8643 17.6278 26.02 17.4433 26.1062Z" fill="#A49FDA"/>
<path d="M22.1776 26.1062C22.0861 26.1517 21.9866 26.1782 21.885 26.1841C21.7833 26.19 21.6816 26.1752 21.5856 26.1405C21.4896 26.1059 21.4013 26.052 21.3258 25.9822C21.2503 25.9123 21.1891 25.8278 21.1457 25.7335C21.1028 25.6388 21.0792 25.5361 21.0764 25.4317C21.0737 25.3274 21.0918 25.2235 21.1297 25.1266C21.1676 25.0296 21.2245 24.9416 21.2968 24.868C21.3692 24.7943 21.4555 24.7366 21.5504 24.6983C21.642 24.6528 21.7414 24.6263 21.8431 24.6204C21.9447 24.6145 22.0465 24.6293 22.1425 24.664C22.2385 24.6987 22.3268 24.7525 22.4023 24.8224C22.4778 24.8922 22.539 24.9767 22.5823 25.071C22.6253 25.1657 22.6488 25.2684 22.6516 25.3728C22.6543 25.4772 22.6362 25.581 22.5983 25.678C22.5604 25.7749 22.5036 25.8629 22.4312 25.9366C22.3589 26.0102 22.2726 26.0679 22.1776 26.1062Z" fill="#A49FDA"/>
<path d="M20.7207 24.7609C20.5838 24.8121 20.4354 24.8213 20.2935 24.7875C20.1516 24.7536 20.0224 24.6781 19.9218 24.5702C19.8213 24.4624 19.7536 24.3268 19.7272 24.1802C19.7008 24.0336 19.7168 23.8823 19.7733 23.7448C19.8297 23.6073 19.9241 23.4897 20.0449 23.4063C20.1657 23.323 20.3076 23.2775 20.4533 23.2755C20.599 23.2734 20.7421 23.3149 20.865 23.3949C20.988 23.4749 21.0855 23.5898 21.1456 23.7257C21.185 23.8221 21.2054 23.9256 21.2053 24.0301C21.2053 24.1346 21.1849 24.2381 21.1454 24.3345C21.1058 24.4309 21.0479 24.5182 20.9749 24.5914C20.902 24.6646 20.8156 24.7222 20.7207 24.7609Z" fill="#A49FDA"/>
<path d="M18.7577 24.7605C18.6662 24.806 18.5667 24.8325 18.465 24.8384C18.3634 24.8443 18.2616 24.8295 18.1657 24.7948C18.0697 24.7602 17.9813 24.7063 17.9058 24.6365C17.8303 24.5666 17.7691 24.4821 17.7258 24.3878C17.6829 24.2931 17.6593 24.1904 17.6565 24.086C17.6538 23.9817 17.6719 23.8778 17.7098 23.7808C17.7477 23.6839 17.8046 23.5959 17.8769 23.5223C17.9492 23.4486 18.0355 23.3909 18.1305 23.3526C18.222 23.3071 18.3215 23.2806 18.4231 23.2747C18.5248 23.2688 18.6265 23.2836 18.7225 23.3183C18.8185 23.353 18.9068 23.4068 18.9824 23.4767C19.0579 23.5465 19.1191 23.631 19.1624 23.7253C19.2379 23.918 19.238 24.1331 19.1627 24.3258C19.0873 24.5186 18.9423 24.6743 18.7577 24.7605Z" fill="#A49FDA"/>
<path opacity="0.48" d="M33.1049 13.747C33.0846 13.6848 33.0846 13.6227 33.0644 13.5606C33.0611 13.4841 33.0679 13.4075 33.0846 13.3329C32.9987 12.7617 32.8209 12.209 32.5586 11.6973C31.7897 12.1942 31.0411 12.7118 30.3127 13.2501L30.1306 13.4157C28.4953 15.1439 26.7587 16.7687 24.9306 18.2811C24.1617 18.9851 23.3928 19.6683 22.5835 20.3308C19.7508 22.8981 16.817 25.2998 13.8022 27.6393C12.6691 28.5503 11.4956 29.4613 10.322 30.3515L9.57341 30.8898C9.58977 30.9216 9.59679 30.9576 9.59365 30.9933C9.62366 31.1157 9.64396 31.2403 9.65435 31.366C9.65089 31.4912 9.63736 31.6158 9.61388 31.7387C9.57275 31.9792 9.48314 32.2084 9.35078 32.4115C9.21841 32.6147 9.04617 32.7875 8.84501 32.9188C8.65364 33.0468 8.44109 33.138 8.21777 33.188H8.15707L7.71194 33.2294H6.49793L5.76953 33.7884V34.5751C5.76953 36.7698 7.30727 38.7159 9.61388 39.4199L10.3625 39.6269C13.2761 37.6186 16.1695 35.5689 18.8808 33.2708C23.6761 29.1714 27.8442 24.2853 33.1049 20.7656V13.747Z" fill="white"/>
<path opacity="0.48" d="M15.3184 40.6405C16.514 40.7857 17.716 40.8687 18.9199 40.8889H19.709C21.5502 39.0255 23.351 37.1208 25.172 35.2574C26.993 33.3941 28.5915 31.9448 30.372 30.392C31.2623 29.4603 32.1728 28.5286 33.1035 27.6177V25.2988C27.6742 30.9895 21.7179 36.1275 15.3184 40.6405Z" fill="white"/>
<path d="M2.16765 11.6139C2.15766 11.6895 2.15766 11.7661 2.16765 11.8417C2.23196 12.1273 2.39785 12.3783 2.63302 12.5456C2.75158 12.6217 2.88141 12.6777 3.01746 12.7112H7.14507C7.3602 12.7096 7.57024 12.6442 7.74979 12.5229C7.92934 12.4017 8.0707 12.2298 8.15674 12.028C8.20965 11.883 8.23196 11.7281 8.22221 11.5736C8.21245 11.4191 8.17086 11.2684 8.10015 11.1315C8.02944 10.9947 7.93122 10.8746 7.81194 10.7794C7.69267 10.6841 7.55504 10.6157 7.40811 10.5787C7.34741 10.558 7.32717 10.5373 7.32717 10.4752C7.31141 10.0981 7.15248 9.74217 6.88419 9.48311C6.61591 9.22405 6.25944 9.08232 5.8906 9.08806C5.61792 9.08433 5.3503 9.16359 5.12173 9.3158C5.0252 9.38031 4.93685 9.45681 4.8587 9.54354L4.71706 9.72988C4.69683 9.77129 4.6766 9.79199 4.6159 9.75058L4.4945 9.70918H4.45403C4.23533 9.63204 3.99789 9.6308 3.77843 9.70565C3.55898 9.7805 3.36975 9.92727 3.24002 10.1233L3.11862 10.351C3.09839 10.3924 3.09839 10.4545 3.07816 10.4959C3.05792 10.5373 3.05792 10.558 2.99722 10.558L2.79489 10.6409C2.64377 10.7078 2.51011 10.8101 2.40469 10.9396C2.29926 11.069 2.225 11.222 2.18789 11.3862C2.17114 11.4608 2.16433 11.5374 2.16765 11.6139Z" fill="white"/>
</svg>
