<svg width="72" height="61" viewBox="0 0 72 61" fill="none" xmlns="http://www.w3.org/2000/svg">
<path d="M2.80897 56.0966L29.7112 60.499C31.5614 60.7982 33.3052 59.6228 33.603 57.849L40.3445 20.1081C40.6635 18.3343 39.43 16.6674 37.6011 16.3682L10.6776 11.9658C8.84868 11.6666 7.10482 12.8634 6.78582 14.6158L0.0443199 52.3781C-0.253412 54.1305 0.980049 55.7974 2.80897 56.0966Z" fill="#6678FF"/>
<path d="M33.8792 32.3327L8.27425 28.144C8.11508 28.1233 7.96172 28.0705 7.82338 27.9887C7.68504 27.9069 7.56458 27.7979 7.46923 27.6681C7.37389 27.5384 7.30563 27.3906 7.26855 27.2337C7.23147 27.0767 7.22633 26.9139 7.25346 26.7549L8.21045 21.3054C8.28209 20.9832 8.47461 20.7012 8.74795 20.5181C9.02128 20.335 9.35436 20.2649 9.67785 20.3223L35.2828 24.511C35.442 24.5317 35.5953 24.5846 35.7337 24.6663C35.872 24.7481 35.9925 24.8572 36.0878 24.9869C36.1832 25.1167 36.2514 25.2644 36.2885 25.4214C36.3256 25.5783 36.3307 25.7411 36.3036 25.9001L35.3466 31.3283C35.2749 31.6518 35.0833 31.9357 34.8107 32.1223C34.5381 32.3089 34.205 32.3841 33.8792 32.3327V32.3327Z" fill="#4E4EDE"/>
<path d="M33.54 36.606L7.12692 32.289C7.01833 32.2761 6.91348 32.2411 6.81873 32.1863C6.72398 32.1314 6.6413 32.0578 6.57569 31.9699C6.51008 31.882 6.4629 31.7816 6.43702 31.6748C6.41114 31.568 6.40709 31.4571 6.42512 31.3487V31.3487C6.44548 31.2404 6.48703 31.1372 6.54736 31.0451C6.6077 30.953 6.68561 30.8738 6.7766 30.8122C6.86759 30.7506 6.96984 30.7077 7.07743 30.6861C7.18502 30.6645 7.29581 30.6645 7.40338 30.6862L33.8165 35.0031C33.9251 35.0161 34.0299 35.0511 34.1247 35.1059C34.2194 35.1608 34.3021 35.2344 34.3677 35.3223C34.4333 35.4102 34.4805 35.5106 34.5064 35.6174C34.5322 35.7241 34.5363 35.8351 34.5183 35.9435V35.9435C34.4674 36.157 34.3387 36.3435 34.1576 36.4662C33.9764 36.5889 33.756 36.6388 33.54 36.606V36.606Z" fill="#4E4EDE"/>
<path d="M32.7731 40.8169L6.36002 36.5C6.25332 36.4844 6.15079 36.4476 6.05849 36.3916C5.96618 36.3356 5.88595 36.2616 5.82253 36.174C5.75912 36.0863 5.71379 35.9868 5.68922 35.8813C5.66466 35.7758 5.66135 35.6665 5.67949 35.5597V35.5597C5.69985 35.4513 5.7414 35.3481 5.80173 35.256C5.86207 35.1639 5.93998 35.0848 6.03097 35.0232C6.12196 34.9615 6.22421 34.9187 6.3318 34.8971C6.43939 34.8754 6.55018 34.8755 6.65775 34.8972L33.0708 39.2141C33.2877 39.2458 33.4833 39.3626 33.6148 39.5388C33.7463 39.7149 33.803 39.9363 33.7726 40.1544V40.1544C33.7172 40.3696 33.5843 40.5565 33.3997 40.6789C33.215 40.8013 32.9918 40.8504 32.7731 40.8169Z" fill="#4E4EDE"/>
<path d="M32.0291 45.0262L5.61606 40.7093C5.39918 40.6775 5.20363 40.5608 5.07213 40.3846C4.94063 40.2084 4.88388 39.9871 4.91426 39.769C4.96035 39.5485 5.09122 39.3552 5.2784 39.2311C5.46558 39.107 5.69393 39.0622 5.91379 39.1065L32.3269 43.4234C32.4336 43.439 32.5361 43.4758 32.6284 43.5318C32.7207 43.5878 32.8009 43.6618 32.8644 43.7494C32.9278 43.837 32.9731 43.9365 32.9977 44.042C33.0222 44.1475 33.0255 44.2569 33.0074 44.3637C32.987 44.4721 32.9455 44.5753 32.8852 44.6674C32.8248 44.7595 32.7469 44.8386 32.6559 44.9002C32.5649 44.9618 32.4627 45.0047 32.3551 45.0263C32.2475 45.048 32.1367 45.0479 32.0291 45.0262V45.0262Z" fill="#4E4EDE"/>
<path d="M31.2841 49.2368L4.87106 44.9199C4.76247 44.9069 4.65762 44.872 4.56287 44.8171C4.46812 44.7623 4.38544 44.6886 4.31983 44.6007C4.25422 44.5128 4.20704 44.4124 4.18116 44.3057C4.15528 44.1989 4.15123 44.088 4.16926 43.9796C4.18962 43.8712 4.23117 43.768 4.2915 43.6759C4.35184 43.5838 4.42975 43.5047 4.52074 43.4431C4.61173 43.3815 4.71398 43.3386 4.82157 43.317C4.92916 43.2953 5.03995 43.2954 5.14752 43.3171L31.5606 47.634C31.6692 47.647 31.774 47.6819 31.8688 47.7368C31.9635 47.7916 32.0462 47.8653 32.1118 47.9532C32.1774 48.0411 32.2246 48.1415 32.2505 48.2482C32.2764 48.355 32.2804 48.4659 32.2624 48.5743V48.5743C32.242 48.6827 32.2005 48.7859 32.1402 48.878C32.0798 48.9701 32.0019 49.0492 31.9109 49.1108C31.8199 49.1724 31.7177 49.2153 31.6101 49.2369C31.5025 49.2586 31.3917 49.2585 31.2841 49.2368V49.2368Z" fill="#4E4EDE"/>
<path d="M30.5192 53.4458L4.10612 49.1289C3.99941 49.1133 3.89689 49.0765 3.80458 49.0205C3.71227 48.9645 3.63205 48.8905 3.56863 48.8029C3.50521 48.7152 3.45988 48.6157 3.43532 48.5102C3.41075 48.4047 3.40744 48.2954 3.42558 48.1886V48.1886C3.44594 48.0802 3.48749 47.977 3.54783 47.8849C3.60816 47.7928 3.68608 47.7137 3.77707 47.6521C3.86805 47.5904 3.9703 47.5476 4.07789 47.526C4.18548 47.5043 4.29627 47.5044 4.40385 47.5261L30.8169 51.843C31.0338 51.8747 31.2294 51.9915 31.3609 52.1677C31.4924 52.3439 31.5491 52.5652 31.5187 52.7833V52.7833C31.4726 53.0038 31.3418 53.1971 31.1546 53.3212C30.9674 53.4453 30.7391 53.49 30.5192 53.4458Z" fill="#4E4EDE"/>
<path d="M43.0236 56.9085L68.905 48.0823C71.3294 47.2702 72.5841 44.7057 71.7334 42.3977L58.5056 6.90068C57.655 4.59263 54.9754 3.37449 52.5722 4.20796L26.6908 13.0127C24.2664 13.8462 22.9904 16.3893 23.8624 18.7188L37.0689 54.2157C37.9408 56.5238 40.5992 57.7419 43.0236 56.9085Z" fill="#8DA3FF"/>
<path d="M56.2946 13.0771L21.2473 25.0234C19.0356 25.7713 16.5899 24.6814 15.8031 22.5657L13.8891 17.394C13.081 15.2569 14.2506 12.9488 16.4623 12.1795L51.5097 0.233173C53.7214 -0.514806 56.167 0.596478 56.9539 2.71219L58.8679 7.88394C59.676 9.99965 58.5064 12.3291 56.2946 13.0771Z" fill="#8DA3FF"/>
<path d="M16.4623 12.1798L16.8451 12.0515C19.0569 11.3036 21.4813 12.4148 22.2681 14.5306L25.6282 23.5277L18.8867 25.8357C18.4516 25.9849 17.9763 25.9618 17.5575 25.7712C17.1388 25.5807 16.808 25.2369 16.6325 24.8099L13.8891 17.3942C13.081 15.2572 14.2506 12.9491 16.4623 12.1798Z" fill="#5959FF"/>
<path d="M29.9245 21.0268L55.9548 12.1365C56.045 12.1098 56.1289 12.0651 56.2016 12.0051C56.2743 11.9451 56.3343 11.871 56.3779 11.7873C56.4215 11.7036 56.448 11.6119 56.4557 11.5177C56.4634 11.4235 56.4521 11.3287 56.4226 11.2389V11.2389C56.351 11.055 56.2116 10.9057 56.0335 10.8222C55.8553 10.7386 55.652 10.7272 55.4656 10.7901L29.4141 19.6804C29.3241 19.7068 29.2404 19.7515 29.1684 19.8119C29.0964 19.8722 29.0376 19.9469 28.9957 20.0312C28.9537 20.1154 28.9296 20.2075 28.9247 20.3016C28.9199 20.3957 28.9344 20.4898 28.9675 20.578V20.578C29.0007 20.6708 29.0519 20.7561 29.1181 20.8289C29.1843 20.9018 29.2641 20.9608 29.3531 21.0025C29.442 21.0442 29.5383 21.0678 29.6364 21.072C29.7344 21.0762 29.8323 21.0608 29.9245 21.0268Z" fill="#5959FF"/>
<path d="M31.8374 26.198L57.8889 17.3077C57.9789 17.2814 58.0626 17.2366 58.1346 17.1763C58.2066 17.1159 58.2654 17.0413 58.3073 16.957C58.3492 16.8727 58.3734 16.7806 58.3782 16.6865C58.3831 16.5924 58.3685 16.4983 58.3355 16.4102C58.3026 16.3175 58.2513 16.2325 58.1847 16.1603C58.1181 16.0881 58.0376 16.0303 57.9482 15.9904C57.8587 15.9504 57.762 15.9291 57.6641 15.9278C57.5662 15.9265 57.469 15.9452 57.3785 15.9827L31.3482 24.8516C31.2574 24.8804 31.1734 24.9274 31.1013 24.9899C31.0291 25.0523 30.9704 25.1288 30.9286 25.2148C30.8868 25.3007 30.8629 25.3943 30.8583 25.4899C30.8536 25.5855 30.8684 25.681 30.9016 25.7706V25.7706C30.973 25.9491 31.11 26.0931 31.2843 26.1727C31.4585 26.2523 31.6566 26.2613 31.8374 26.198Z" fill="#5959FF"/>
<path d="M33.7727 31.3713L59.8242 22.5024C60.0042 22.4393 60.152 22.3073 60.2357 22.1352C60.3193 21.9632 60.3319 21.7649 60.2708 21.5835V21.5835C60.1952 21.4034 60.0542 21.259 59.8764 21.1796C59.6987 21.1002 59.4975 21.0918 59.3138 21.156L33.2623 30.0249C33.1715 30.0537 33.0875 30.1007 33.0153 30.1631C32.9432 30.2256 32.8844 30.3021 32.8427 30.3881C32.8009 30.474 32.777 30.5676 32.7723 30.6632C32.7677 30.7587 32.7824 30.8542 32.8157 30.9439V30.9439C32.8913 31.124 33.0323 31.2684 33.2101 31.3477C33.3878 31.4271 33.589 31.4355 33.7727 31.3713V31.3713Z" fill="#5959FF"/>
<path d="M35.7082 36.5421L61.7385 27.6732C61.8293 27.6445 61.9133 27.5974 61.9855 27.535C62.0576 27.4726 62.1164 27.3961 62.1581 27.3101C62.1999 27.2241 62.2238 27.1305 62.2285 27.035C62.2331 26.9394 62.2184 26.8439 62.1851 26.7543V26.7543C62.1138 26.5758 61.9767 26.4318 61.8025 26.3522C61.6282 26.2726 61.4301 26.2635 61.2494 26.3269L35.1978 35.1958C35.107 35.2245 35.023 35.2715 34.9509 35.334C34.8787 35.3964 34.82 35.4729 34.7782 35.5589C34.7364 35.6449 34.7125 35.7385 34.7079 35.834C34.7032 35.9296 34.718 36.0251 34.7512 36.1147C34.8269 36.2948 34.9679 36.4392 35.1456 36.5186C35.3234 36.598 35.5245 36.6064 35.7082 36.5421V36.5421Z" fill="#5959FF"/>
<path d="M65.6954 44.2993C65.504 44.9618 64.4195 45.2823 63.2923 44.9832C62.1652 44.684 61.3783 43.8932 61.5697 43.2307C61.7611 42.5682 62.229 42.4828 62.8883 42.44C63.008 42.216 63.198 42.038 63.4287 41.9337C63.6594 41.8293 63.918 41.8045 64.1643 41.863C64.4077 41.9229 64.6222 42.0672 64.7701 42.2705C64.9179 42.4738 64.9896 42.7231 64.9724 42.9743C65.5253 43.3376 65.823 43.8505 65.6954 44.2993Z" fill="white"/>
<path d="M62.0157 42.2473C61.8185 42.2852 61.6143 42.2437 61.4472 42.1318C61.2802 42.0199 61.1635 41.8465 61.1225 41.6489C61.1107 41.5518 61.1186 41.4532 61.1457 41.3592C61.1727 41.2652 61.2184 41.1776 61.28 41.1018C61.3415 41.0259 61.4177 40.9634 61.504 40.9178C61.5902 40.8723 61.6847 40.8448 61.7818 40.8368C61.976 40.7983 62.1775 40.8369 62.3441 40.9445C62.5106 41.052 62.6292 41.2203 62.675 41.4139C62.6868 41.5122 62.6791 41.6119 62.6522 41.7072C62.6254 41.8025 62.58 41.8915 62.5187 41.9691C62.4574 42.0466 62.3813 42.1111 62.295 42.1589C62.2086 42.2067 62.1137 42.2367 62.0157 42.2473Z" fill="white"/>
<path d="M66.5235 43.4231C66.3269 43.4555 66.1254 43.4118 65.9596 43.3007C65.7938 43.1897 65.6761 43.0196 65.6303 42.8247C65.6185 42.7276 65.6264 42.629 65.6535 42.535C65.6805 42.4409 65.7262 42.3534 65.7878 42.2775C65.8494 42.2017 65.9255 42.1391 66.0118 42.0936C66.098 42.0481 66.1925 42.0205 66.2896 42.0126C66.4838 41.9741 66.6853 42.0127 66.8519 42.1202C67.0184 42.2278 67.137 42.3961 67.1828 42.5896C67.1946 42.688 67.1869 42.7877 67.1601 42.883C67.1332 42.9783 67.0878 43.0673 67.0265 43.1448C66.9652 43.2224 66.8891 43.2869 66.8028 43.3347C66.7164 43.3824 66.6215 43.4125 66.5235 43.4231Z" fill="white"/>
<path d="M65.4825 41.8636C65.2853 41.9015 65.0811 41.86 64.914 41.7481C64.747 41.6362 64.6303 41.4628 64.5893 41.2652C64.5775 41.1681 64.5854 41.0695 64.6124 40.9755C64.6395 40.8815 64.6852 40.7939 64.7468 40.7181C64.8083 40.6422 64.8845 40.5797 64.9708 40.5341C65.057 40.4886 65.1515 40.4611 65.2486 40.4531C65.4458 40.4153 65.6499 40.4567 65.817 40.5687C65.9841 40.6806 66.1007 40.854 66.1418 41.0515C66.1535 41.1487 66.1456 41.2472 66.1186 41.3413C66.0915 41.4353 66.0458 41.5229 65.9843 41.5987C65.9227 41.6745 65.8465 41.7371 65.7603 41.7826C65.6741 41.8282 65.5796 41.8557 65.4825 41.8636Z" fill="white"/>
<path d="M63.6114 41.3714C63.4142 41.4093 63.21 41.3678 63.043 41.2559C62.8759 41.144 62.7592 40.9706 62.7182 40.773C62.7064 40.6759 62.7143 40.5773 62.7414 40.4833C62.7684 40.3893 62.8141 40.3017 62.8757 40.2259C62.9372 40.15 63.0134 40.0875 63.0997 40.0419C63.1859 39.9964 63.2804 39.9689 63.3775 39.961C63.5747 39.9231 63.7788 39.9646 63.9459 40.0765C64.113 40.1884 64.2296 40.3618 64.2707 40.5593C64.2824 40.6565 64.2746 40.7551 64.2475 40.8491C64.2204 40.9431 64.1747 41.0307 64.1132 41.1065C64.0516 41.1824 63.9754 41.2449 63.8892 41.2904C63.803 41.336 63.7085 41.3635 63.6114 41.3714V41.3714Z" fill="white"/>
<path d="M59.4422 40.3029C59.825 40.5166 59.825 41.1791 59.4422 41.7775C59.0594 42.3759 58.464 42.6751 58.0812 42.44C57.6984 42.2049 57.7197 41.9485 57.8047 41.5638C57.6884 41.4675 57.6111 41.3317 57.5876 41.1821C57.5641 41.0325 57.596 40.8794 57.6771 40.7517C57.76 40.6197 57.8854 40.5201 58.0324 40.4695C58.1794 40.419 58.3392 40.4205 58.4853 40.4739C58.8255 40.2388 59.187 40.1533 59.4422 40.3029Z" fill="white"/>
<path d="M57.5482 42.0353C57.5274 42.1524 57.4631 42.2573 57.3684 42.3286C57.2737 42.4 57.1556 42.4327 57.0378 42.42C56.978 42.4177 56.9193 42.4027 56.8656 42.376C56.8119 42.3493 56.7645 42.3115 56.7263 42.2651C56.6882 42.2187 56.6602 42.1647 56.6443 42.1067C56.6283 42.0487 56.6247 41.988 56.6338 41.9285C56.6389 41.8674 56.6565 41.808 56.6853 41.754C56.7142 41.7 56.7537 41.6525 56.8016 41.6145C56.8494 41.5765 56.9045 41.5487 56.9634 41.5328C57.0223 41.517 57.0838 41.5134 57.1442 41.5224C57.2646 41.5385 57.3741 41.6009 57.4495 41.6967C57.5249 41.7924 57.5603 41.9138 57.5482 42.0353V42.0353Z" fill="white"/>
<path d="M59.0367 39.6842C59.0159 39.8054 58.9485 39.9137 58.8491 39.9856C58.7497 40.0575 58.6261 40.0874 58.5051 40.0688C58.4471 40.0637 58.3907 40.0466 58.3395 40.0187C58.2884 39.9908 58.2435 39.9526 58.2076 39.9065C58.1717 39.8604 58.1456 39.8074 58.1309 39.7508C58.1162 39.6942 58.1133 39.6351 58.1223 39.5773C58.1542 39.472 58.2219 39.3813 58.3135 39.3209C58.4052 39.2606 58.515 39.2346 58.6239 39.2473C58.7327 39.26 58.8336 39.3107 58.9091 39.3905C58.9845 39.4704 59.0297 39.5743 59.0367 39.6842V39.6842Z" fill="white"/>
<path d="M57.888 40.0057C57.872 40.1267 57.8098 40.2367 57.7146 40.3125C57.6193 40.3883 57.4984 40.4239 57.3776 40.4117C57.2593 40.3909 57.1528 40.3272 57.0783 40.2326C57.0038 40.138 56.9665 40.0192 56.9735 39.8988C56.9944 39.776 57.061 39.6658 57.1596 39.5904C57.2583 39.515 57.3818 39.4801 57.5052 39.4928C57.5641 39.5006 57.6208 39.5202 57.6721 39.5503C57.7234 39.5805 57.7681 39.6206 57.8038 39.6684C57.8394 39.7162 57.8652 39.7706 57.8797 39.8285C57.8941 39.8864 57.897 39.9466 57.888 40.0057V40.0057Z" fill="white"/>
<path d="M57.2721 40.9879C57.2643 41.0471 57.2449 41.1041 57.2148 41.1556C57.1848 41.2072 57.1449 41.2522 57.0974 41.288C57.0498 41.3238 56.9957 41.3497 56.938 41.3643C56.8804 41.3788 56.8205 41.3816 56.7617 41.3726C56.703 41.3672 56.6459 41.3502 56.5937 41.3226C56.5415 41.2949 56.4953 41.2571 56.4578 41.2114C56.4202 41.1657 56.392 41.113 56.3748 41.0563C56.3576 40.9996 56.3518 40.94 56.3577 40.881C56.3736 40.76 56.4358 40.65 56.5311 40.5742C56.6263 40.4984 56.7472 40.4628 56.8681 40.475C56.9288 40.4802 56.9879 40.4978 57.0417 40.5268C57.0954 40.5558 57.1427 40.5956 57.1805 40.6436C57.2184 40.6917 57.246 40.747 57.2618 40.8062C57.2775 40.8654 57.2811 40.9273 57.2721 40.9879V40.9879Z" fill="white"/>
</svg>
