<svg width="50" height="52" viewBox="0 0 50 52" fill="none" xmlns="http://www.w3.org/2000/svg">
<path d="M22.4469 40.7952L41.4142 35.767C42.7176 35.4189 43.5198 34.1377 43.1967 32.8901L36.5882 6.22709C36.2791 4.97332 34.9809 4.24574 33.6914 4.58764L14.7102 9.62206C13.4208 9.96396 12.6248 11.2592 12.9277 12.499L19.5424 39.176C19.8593 40.4095 21.1575 41.1371 22.4469 40.7952Z" fill="#6678FF"/>
<path fill-rule="evenodd" clip-rule="evenodd" d="M41.4138 35.7674L22.4466 40.7955C21.1571 41.1374 19.859 40.4099 19.5421 39.1763L12.9274 12.4993C12.6244 11.2595 13.4204 9.96429 14.7099 9.62239L33.6911 4.58797C34.9805 4.24607 36.2787 4.97366 36.5879 6.22742L43.1963 32.8905C43.5195 34.138 42.7173 35.4192 41.4138 35.7674ZM43.6696 32.7679C43.6698 32.7688 43.6701 32.7697 43.6703 32.7706C44.0653 34.3017 43.0768 35.8292 41.54 36.2397L41.5391 36.2399L22.5719 41.2681C21.0388 41.6746 19.4577 40.8129 19.0686 39.298L19.068 39.296L12.4524 12.6153C12.0825 11.1014 13.0534 9.55585 14.5845 9.14984C14.5845 9.14984 14.5845 9.14984 14.5845 9.14984L33.5658 4.11543C35.1001 3.7086 36.683 4.57216 37.0625 6.11004M43.6696 32.7679L37.0625 6.11037Z" fill="#4040B7"/>
<path d="M35.9145 16.1222L17.8623 20.9089C17.7517 20.9421 17.6354 20.9526 17.5206 20.9398C17.4058 20.927 17.2947 20.8911 17.1941 20.8343C17.0935 20.7774 17.0054 20.7008 16.9351 20.6091C16.8649 20.5174 16.8139 20.4124 16.7852 20.3005L15.8202 16.4553C15.773 16.2236 15.817 15.9826 15.9431 15.7825C16.0692 15.5824 16.2676 15.4386 16.497 15.3811L34.5492 10.5945C34.6598 10.5613 34.7761 10.5507 34.8909 10.5636C35.0058 10.5764 35.1168 10.6123 35.2174 10.6691C35.318 10.7259 35.4061 10.8025 35.4764 10.8942C35.5467 10.986 35.5977 11.091 35.6263 11.2029L36.5851 15.0341C36.6326 15.2667 36.5897 15.5087 36.4651 15.7108C36.3406 15.913 36.1437 16.0601 35.9145 16.1222V16.1222Z" fill="#4E4EDE"/>
<path d="M36.9418 19.0165L18.321 23.9568C18.2458 23.9802 18.1667 23.9882 18.0884 23.9801C18.01 23.9721 17.9342 23.9483 17.8653 23.91C17.7965 23.8718 17.7362 23.8201 17.6879 23.7578C17.6397 23.6956 17.6046 23.6243 17.5847 23.5481V23.5481C17.5664 23.4713 17.5635 23.3915 17.5762 23.3136C17.589 23.2356 17.617 23.161 17.6588 23.0939C17.7006 23.0269 17.7552 22.9688 17.8196 22.923C17.884 22.8773 17.9568 22.8447 18.0338 22.8273L36.6546 17.887C36.7298 17.8636 36.8089 17.8556 36.8872 17.8636C36.9656 17.8717 37.0414 17.8955 37.1103 17.9337C37.1791 17.9719 37.2394 18.0237 37.2877 18.0859C37.3359 18.1481 37.371 18.2195 37.3909 18.2957V18.2957C37.4199 18.4502 37.3899 18.6101 37.3067 18.7435C37.2236 18.877 37.0933 18.9744 36.9418 19.0165V19.0165Z" fill="#4E4EDE"/>
<path d="M37.6703 21.9952L19.0495 26.9355C18.9748 26.9567 18.8966 26.9627 18.8196 26.9533C18.7426 26.9438 18.6682 26.919 18.6009 26.8803C18.5336 26.8416 18.4747 26.7899 18.4277 26.7281C18.3807 26.6663 18.3465 26.5958 18.3272 26.5206V26.5206C18.3089 26.4438 18.306 26.3641 18.3187 26.2861C18.3314 26.2081 18.3595 26.1335 18.4013 26.0664C18.443 25.9994 18.4977 25.9413 18.5621 25.8956C18.6265 25.8498 18.6993 25.8172 18.7763 25.7998L37.3971 20.8595C37.549 20.8165 37.7116 20.8354 37.8496 20.912C37.9875 20.9885 38.0896 21.1166 38.1334 21.2682V21.2682C38.1599 21.4252 38.1272 21.5865 38.0417 21.7208C37.9561 21.8551 37.8238 21.9529 37.6703 21.9952Z" fill="#4E4EDE"/>
<path d="M38.4125 24.9668L19.7917 29.9071C19.6399 29.9501 19.4772 29.9312 19.3393 29.8546C19.2013 29.7781 19.0993 29.65 19.0555 29.4984C19.0213 29.3407 19.0507 29.1758 19.1374 29.0396C19.2242 28.9035 19.3611 28.8071 19.5186 28.7714L38.1394 23.8311C38.214 23.8099 38.2922 23.8039 38.3692 23.8134C38.4463 23.8228 38.5206 23.8476 38.588 23.8863C38.6553 23.925 38.7141 23.9767 38.7612 24.0385C38.8082 24.1003 38.8423 24.1708 38.8616 24.246C38.8799 24.3228 38.8828 24.4025 38.8701 24.4805C38.8574 24.5585 38.8293 24.6331 38.7876 24.7002C38.7458 24.7672 38.6911 24.8253 38.6268 24.8711C38.5624 24.9168 38.4896 24.9494 38.4125 24.9668V24.9668Z" fill="#4E4EDE"/>
<path d="M39.1547 27.9403L20.5338 32.8806C20.4587 32.904 20.3796 32.912 20.3013 32.904C20.2229 32.8959 20.1471 32.8721 20.0782 32.8339C20.0094 32.7957 19.949 32.7439 19.9008 32.6817C19.8526 32.6195 19.8175 32.5481 19.7976 32.4719C19.7793 32.3951 19.7764 32.3154 19.7891 32.2374C19.8018 32.1595 19.8299 32.0848 19.8717 32.0178C19.9134 31.9507 19.9681 31.8926 20.0325 31.8469C20.0969 31.8011 20.1697 31.7686 20.2467 31.7511L38.8675 26.8108C38.9427 26.7874 39.0218 26.7794 39.1001 26.7875C39.1784 26.7955 39.2543 26.8193 39.3231 26.8575C39.392 26.8957 39.4523 26.9475 39.5006 27.0097C39.5488 27.072 39.5839 27.1433 39.6038 27.2195V27.2195C39.6221 27.2963 39.625 27.376 39.6123 27.454C39.5995 27.532 39.5715 27.6066 39.5297 27.6737C39.4879 27.7407 39.4333 27.7988 39.3689 27.8446C39.3045 27.8903 39.2317 27.9229 39.1547 27.9403V27.9403Z" fill="#4E4EDE"/>
<path d="M39.8812 30.9171L21.2604 35.8574C21.1857 35.8786 21.1076 35.8846 21.0305 35.8751C20.9535 35.8656 20.8791 35.8408 20.8118 35.8022C20.7445 35.7635 20.6856 35.7118 20.6386 35.65C20.5916 35.5882 20.5575 35.5177 20.5381 35.4425V35.4425C20.5198 35.3656 20.517 35.2859 20.5297 35.208C20.5424 35.13 20.5704 35.0554 20.6122 34.9883C20.654 34.9213 20.7086 34.8632 20.773 34.8174C20.8374 34.7717 20.9102 34.7391 20.9873 34.7217L39.6081 29.7814C39.7599 29.7384 39.9225 29.7573 40.0605 29.8339C40.1985 29.9104 40.3005 30.0385 40.3443 30.1901V30.1901C40.3785 30.3478 40.3491 30.5127 40.2623 30.6489C40.1756 30.785 40.0386 30.8814 39.8812 30.9171Z" fill="#4E4EDE"/>
<path d="M16.3356 47.5159L35.3029 42.4877C36.6063 42.1396 37.4085 40.8584 37.0854 39.6108L30.4769 12.9478C30.1677 11.694 28.8696 10.9664 27.5801 11.3083L8.59888 16.3428C7.30944 16.6847 6.51345 17.9799 6.81638 19.2197L13.4311 45.8967C13.748 47.1302 15.0462 47.8578 16.3356 47.5159Z" fill="#6678FF"/>
<path fill-rule="evenodd" clip-rule="evenodd" d="M35.3025 42.4881L16.3353 47.5162C15.0458 47.8582 13.7476 47.1306 13.4307 45.897L6.81603 19.22C6.51311 17.9802 7.30909 16.685 8.59854 16.3431L27.5798 11.3087C28.8692 10.9668 30.1674 11.6944 30.4766 12.9481L37.085 39.6112C37.4082 40.8587 36.6059 42.1399 35.3025 42.4881ZM37.5583 39.4886C37.5585 39.4895 37.5587 39.4904 37.559 39.4913C37.954 41.0224 36.9655 42.5499 35.4287 42.9604L35.4278 42.9607L16.4605 47.9888C14.9275 48.3953 13.3464 47.5336 12.9572 46.0187L12.9567 46.0167L6.34111 19.336C5.97121 17.8221 6.94205 16.2766 8.4732 15.8705C8.47321 15.8705 8.47319 15.8705 8.4732 15.8705L27.4544 10.8361C28.9887 10.4293 30.5717 11.2929 30.9511 12.8307M37.5583 39.4886L30.9512 12.8311Z" fill="#4040B7"/>
<path d="M29.8032 22.843L11.751 27.6296C11.6403 27.6628 11.5241 27.6733 11.4093 27.6605C11.2944 27.6477 11.1834 27.6118 11.0828 27.555C10.9821 27.4981 10.8941 27.4216 10.8238 27.3298C10.7535 27.2381 10.7025 27.1331 10.6739 27.0212L9.70883 23.176C9.66167 22.9443 9.70572 22.7033 9.83179 22.5032C9.95786 22.3031 10.1562 22.1593 10.3856 22.1018L28.4378 17.3152C28.5485 17.282 28.6648 17.2714 28.7796 17.2843C28.8944 17.2971 29.0055 17.333 29.1061 17.3898C29.2067 17.4466 29.2948 17.5232 29.3651 17.615C29.4353 17.7067 29.4863 17.8117 29.515 17.9236L30.4738 21.7548C30.5213 21.9874 30.4784 22.2294 30.3538 22.4315C30.2292 22.6337 30.0324 22.7808 29.8032 22.843V22.843Z" fill="#4E4EDE"/>
<path d="M30.8304 25.7372L12.2096 30.6775C12.1345 30.7009 12.0553 30.7089 11.977 30.7008C11.8987 30.6928 11.8228 30.669 11.754 30.6308C11.6852 30.5925 11.6248 30.5408 11.5766 30.4785C11.5284 30.4163 11.4932 30.345 11.4734 30.2688V30.2688C11.4551 30.192 11.4522 30.1122 11.4649 30.0343C11.4776 29.9563 11.5057 29.8817 11.5475 29.8146C11.5892 29.7476 11.6439 29.6895 11.7083 29.6437C11.7726 29.598 11.8455 29.5654 11.9225 29.548L30.5433 24.6077C30.6185 24.5843 30.6976 24.5763 30.7759 24.5843C30.8542 24.5924 30.9301 24.6162 30.9989 24.6544C31.0678 24.6926 31.1281 24.7444 31.1764 24.8066C31.2246 24.8688 31.2597 24.9402 31.2796 25.0164V25.0164C31.3086 25.1709 31.2786 25.3308 31.1954 25.4642C31.1122 25.5977 30.982 25.6951 30.8304 25.7372V25.7372Z" fill="#4E4EDE"/>
<path d="M31.559 28.7159L12.9381 33.6562C12.8635 33.6774 12.7853 33.6834 12.7083 33.674C12.6312 33.6645 12.5569 33.6397 12.4896 33.601C12.4223 33.5623 12.3634 33.5106 12.3164 33.4488C12.2694 33.387 12.2352 33.3165 12.2159 33.2413V33.2413C12.1976 33.1645 12.1947 33.0848 12.2074 33.0068C12.2201 32.9288 12.2482 32.8542 12.2899 32.7871C12.3317 32.7201 12.3864 32.662 12.4508 32.6163C12.5151 32.5705 12.588 32.5379 12.665 32.5205L31.2858 27.5802C31.4376 27.5372 31.6003 27.5561 31.7382 27.6327C31.8762 27.7093 31.9782 27.8373 32.022 27.9889V27.9889C32.0486 28.1459 32.0159 28.3072 31.9304 28.4415C31.8448 28.5758 31.7125 28.6736 31.559 28.7159Z" fill="#4E4EDE"/>
<path d="M32.3012 31.6875L13.6804 36.6278C13.5286 36.6708 13.3659 36.6519 13.228 36.5753C13.09 36.4988 12.988 36.3707 12.9441 36.2191C12.9099 36.0614 12.9394 35.8965 13.0261 35.7603C13.1128 35.6242 13.2498 35.5278 13.4072 35.4921L32.028 30.5518C32.1027 30.5306 32.1809 30.5246 32.2579 30.5341C32.335 30.5435 32.4093 30.5684 32.4766 30.607C32.5439 30.6457 32.6028 30.6974 32.6498 30.7592C32.6968 30.821 32.731 30.8915 32.7503 30.9667C32.7686 31.0435 32.7715 31.1233 32.7588 31.2012C32.7461 31.2792 32.718 31.3538 32.6762 31.4209C32.6345 31.4879 32.5798 31.546 32.5154 31.5918C32.4511 31.6375 32.3782 31.6701 32.3012 31.6875V31.6875Z" fill="#4E4EDE"/>
<path d="M33.0433 34.661L14.4225 39.6013C14.3474 39.6247 14.2682 39.6327 14.1899 39.6247C14.1116 39.6166 14.0357 39.5928 13.9669 39.5546C13.8981 39.5164 13.8377 39.4646 13.7895 39.4024C13.7412 39.3402 13.7061 39.2688 13.6863 39.1926C13.668 39.1158 13.6651 39.0361 13.6778 38.9581C13.6905 38.8802 13.7186 38.8055 13.7603 38.7385C13.8021 38.6714 13.8568 38.6133 13.9212 38.5676C13.9855 38.5218 14.0584 38.4893 14.1354 38.4718L32.7562 33.5315C32.8314 33.5081 32.9105 33.5001 32.9888 33.5082C33.0671 33.5162 33.143 33.54 33.2118 33.5782C33.2806 33.6165 33.341 33.6682 33.3892 33.7304C33.4375 33.7927 33.4726 33.864 33.4924 33.9402V33.9402C33.5108 34.017 33.5136 34.0967 33.5009 34.1747C33.4882 34.2527 33.4602 34.3273 33.4184 34.3944C33.3766 34.4614 33.3219 34.5195 33.2576 34.5653C33.1932 34.611 33.1204 34.6436 33.0433 34.661V34.661Z" fill="#4E4EDE"/>
<path d="M33.581 40.0478C33.471 40.4267 32.8476 40.61 32.1999 40.4389C31.5521 40.2678 31.0999 39.8155 31.2099 39.4367C31.3199 39.0578 31.5888 39.0089 31.9676 38.9844C32.0364 38.8563 32.1456 38.7545 32.2782 38.6949C32.4109 38.6352 32.5595 38.621 32.701 38.6544C32.8409 38.6887 32.9642 38.7712 33.0492 38.8875C33.1341 39.0038 33.1753 39.1463 33.1654 39.29C33.4832 39.4978 33.6543 39.7911 33.581 40.0478Z" fill="white"/>
<path d="M31.4656 38.8736C31.3523 38.8953 31.2349 38.8715 31.1389 38.8075C31.0429 38.7435 30.9759 38.6443 30.9523 38.5314C30.9455 38.4758 30.95 38.4194 30.9656 38.3657C30.9811 38.3119 31.0074 38.2618 31.0428 38.2184C31.0782 38.1751 31.1219 38.1393 31.1715 38.1132C31.2211 38.0872 31.2754 38.0715 31.3312 38.0669C31.4428 38.0449 31.5586 38.0669 31.6543 38.1285C31.75 38.19 31.8182 38.2862 31.8445 38.3969C31.8513 38.4532 31.8469 38.5102 31.8314 38.5647C31.816 38.6192 31.7899 38.6701 31.7547 38.7145C31.7194 38.7588 31.6757 38.7957 31.6261 38.823C31.5765 38.8503 31.5219 38.8675 31.4656 38.8736Z" fill="white"/>
<path d="M34.0574 39.5455C33.9444 39.564 33.8286 39.539 33.7333 39.4755C33.638 39.412 33.5704 39.3147 33.5441 39.2032C33.5373 39.1477 33.5418 39.0913 33.5574 39.0375C33.5729 38.9838 33.5992 38.9337 33.6346 38.8903C33.67 38.8469 33.7137 38.8112 33.7633 38.7851C33.8129 38.7591 33.8672 38.7433 33.923 38.7388C34.0346 38.7168 34.1504 38.7388 34.2461 38.8004C34.3418 38.8619 34.41 38.9581 34.4363 39.0688C34.4431 39.125 34.4386 39.1821 34.4232 39.2366C34.4078 39.2911 34.3817 39.342 34.3465 39.3863C34.3112 39.4307 34.2675 39.4676 34.2179 39.4949C34.1683 39.5222 34.1137 39.5394 34.0574 39.5455Z" fill="white"/>
<path d="M33.4578 38.6543C33.3444 38.676 33.2271 38.6523 33.1311 38.5883C33.0351 38.5243 32.968 38.4251 32.9445 38.3121C32.9377 38.2565 32.9422 38.2002 32.9578 38.1464C32.9733 38.0926 32.9996 38.0426 33.035 37.9992C33.0703 37.9558 33.1141 37.92 33.1637 37.894C33.2132 37.868 33.2675 37.8522 33.3233 37.8477C33.4367 37.826 33.554 37.8497 33.65 37.9137C33.7461 37.9778 33.8131 38.0769 33.8367 38.1899C33.8434 38.2455 33.8389 38.3018 33.8234 38.3556C33.8078 38.4094 33.7816 38.4595 33.7462 38.5028C33.7108 38.5462 33.667 38.582 33.6174 38.608C33.5679 38.6341 33.5136 38.6498 33.4578 38.6543Z" fill="white"/>
<path d="M32.3816 38.3731C32.2683 38.3948 32.1509 38.371 32.0549 38.307C31.9589 38.243 31.8919 38.1438 31.8683 38.0309C31.8615 37.9753 31.866 37.9189 31.8816 37.8652C31.8971 37.8114 31.9234 37.7613 31.9588 37.7179C31.9942 37.6746 32.038 37.6388 32.0875 37.6127C32.1371 37.5867 32.1914 37.571 32.2472 37.5664C32.3605 37.5448 32.4778 37.5685 32.5739 37.6325C32.6699 37.6965 32.7369 37.7957 32.7605 37.9086C32.7673 37.9642 32.7627 38.0206 32.7472 38.0744C32.7316 38.1281 32.7054 38.1782 32.67 38.2216C32.6346 38.265 32.5908 38.3007 32.5413 38.3268C32.4917 38.3528 32.4374 38.3686 32.3816 38.3731V38.3731Z" fill="white"/>
<path d="M29.9862 37.7633C30.2062 37.8855 30.2062 38.2644 29.9862 38.6066C29.7662 38.9488 29.424 39.1199 29.204 38.9855C28.984 38.851 28.9962 38.7044 29.0451 38.4844C28.9782 38.4293 28.9339 38.3516 28.9204 38.2661C28.9068 38.1805 28.9251 38.0929 28.9718 38.0199C29.0194 37.9444 29.0915 37.8875 29.176 37.8586C29.2605 37.8296 29.3523 37.8305 29.4362 37.861C29.6318 37.7266 29.8396 37.6777 29.9862 37.7633Z" fill="white"/>
<path d="M28.8994 38.7531C28.8875 38.8201 28.8505 38.8801 28.7961 38.9209C28.7417 38.9617 28.6738 38.9804 28.6061 38.9731C28.5717 38.9718 28.538 38.9632 28.5071 38.948C28.4763 38.9327 28.449 38.9111 28.4271 38.8846C28.4052 38.858 28.3891 38.8271 28.3799 38.794C28.3708 38.7608 28.3687 38.726 28.3739 38.692C28.3768 38.6571 28.3869 38.6231 28.4035 38.5923C28.4201 38.5614 28.4428 38.5342 28.4703 38.5125C28.4978 38.4907 28.5295 38.4748 28.5633 38.4657C28.5972 38.4567 28.6325 38.4547 28.6672 38.4598C28.7364 38.469 28.7994 38.5047 28.8427 38.5595C28.8861 38.6142 28.9064 38.6837 28.8994 38.7531V38.7531Z" fill="white"/>
<path d="M29.755 37.4079C29.743 37.4773 29.7043 37.5392 29.6472 37.5803C29.5901 37.6214 29.5191 37.6385 29.4495 37.6279C29.4161 37.6249 29.3838 37.6152 29.3544 37.5992C29.3249 37.5832 29.2991 37.5614 29.2785 37.5351C29.2579 37.5087 29.2429 37.4784 29.2345 37.446C29.226 37.4136 29.2243 37.3799 29.2295 37.3468C29.2478 37.2866 29.2867 37.2347 29.3394 37.2002C29.3921 37.1657 29.4552 37.1508 29.5178 37.1581C29.5803 37.1653 29.6383 37.1943 29.6817 37.24C29.725 37.2856 29.751 37.3451 29.755 37.4079V37.4079Z" fill="white"/>
<path d="M29.0944 37.5917C29.0852 37.6609 29.0495 37.7238 28.9947 37.7671C28.94 37.8105 28.8705 37.8308 28.8011 37.8239C28.7331 37.812 28.6719 37.7755 28.6291 37.7215C28.5862 37.6674 28.5648 37.5994 28.5688 37.5305C28.5809 37.4603 28.6191 37.3973 28.6758 37.3542C28.7325 37.3111 28.8035 37.2911 28.8744 37.2983C28.9082 37.3028 28.9409 37.314 28.9703 37.3312C28.9998 37.3485 29.0255 37.3714 29.046 37.3988C29.0665 37.4261 29.0813 37.4572 29.0897 37.4903C29.098 37.5235 29.0996 37.5579 29.0944 37.5917V37.5917Z" fill="white"/>
<path d="M28.7397 38.154C28.7352 38.1879 28.724 38.2205 28.7068 38.25C28.6895 38.2795 28.6666 38.3052 28.6393 38.3257C28.612 38.3462 28.5808 38.361 28.5477 38.3693C28.5146 38.3776 28.4801 38.3792 28.4464 38.374C28.4126 38.371 28.3798 38.3613 28.3498 38.3454C28.3198 38.3296 28.2933 38.308 28.2717 38.2819C28.2501 38.2558 28.2339 38.2256 28.224 38.1932C28.2141 38.1607 28.2108 38.1267 28.2142 38.0929C28.2233 38.0237 28.2591 37.9608 28.3138 37.9174C28.3686 37.8741 28.438 37.8538 28.5075 37.8607C28.5424 37.8637 28.5764 37.8738 28.6073 37.8903C28.6381 37.9069 28.6653 37.9297 28.6871 37.9571C28.7088 37.9846 28.7247 38.0163 28.7338 38.0501C28.7428 38.084 28.7448 38.1194 28.7397 38.154V38.154Z" fill="white"/>
</svg>
