<svg width="124" height="124" viewBox="0 0 124 124" fill="none" xmlns="http://www.w3.org/2000/svg">
<path d="M35.32 0H117.778C119.428 0 121.011 0.558748 122.178 1.55333C123.344 2.5479 124 3.89684 124 5.30338V24.8H29.0977V5.30338C29.0977 4.60693 29.2586 3.9173 29.5713 3.27387C29.884 2.63043 30.3423 2.04579 30.9201 1.55333C31.4979 1.06086 32.1839 0.670216 32.9388 0.403696C33.6938 0.137176 34.5029 0 35.32 0V0Z" fill="#6678FF"/>
<path d="M118.852 19.8398H34.2457C31.4025 19.8398 29.0977 21.8043 29.0977 24.2275V96.3383C29.0977 98.7616 31.4025 100.726 34.2457 100.726H118.852C121.695 100.726 124 98.7616 124 96.3383V24.2275C124 21.8043 121.695 19.8398 118.852 19.8398Z" fill="#5959FF"/>
<path d="M115.943 27.8516H37.1562V95.0023H115.943V27.8516Z" fill="#221A7E"/>
<path d="M34.9171 27.8516L1.92508 55.246C1.31071 55.7491 0.823152 56.3537 0.492188 57.0228C0.161225 57.692 -0.00618926 58.4116 0.000174863 59.1377V123.999H3.13374L3.89475 120.756L34.9171 95.0023V32.0485H38.0507V27.8516H34.9171Z" fill="#5050E5"/>
<path d="M115.943 77.4531H37.1562V95.0039H115.943V77.4531Z" fill="#4E4EDE"/>
<path d="M3.13303 123.999L38.0499 95.0023V27.8516L4.65505 55.5894C4.16799 55.9892 3.78178 56.4694 3.52008 57.0008C3.25837 57.5322 3.12667 58.1036 3.13303 58.6799V123.999Z" fill="#6678FF"/>
<path d="M9.62459 88.5177C11.2316 88.5177 12.5343 86.0408 12.5343 82.9854C12.5343 79.93 11.2316 77.4531 9.62459 77.4531C8.01758 77.4531 6.71484 79.93 6.71484 82.9854C6.71484 86.0408 8.01758 88.5177 9.62459 88.5177Z" fill="#4040B7"/>
</svg>
