<svg width="32" height="33" viewBox="0 0 32 33" fill="none" xmlns="http://www.w3.org/2000/svg">
<path d="M13.334 26.9042H18.6354C18.4439 26.4136 18.2943 25.9076 18.1883 25.3917C17.607 22.5965 18.3096 20.0502 18.6354 19.0547H13.334C13.7044 20.6118 14.0813 23.0688 13.5895 25.7683C13.5192 26.1703 13.4298 26.5532 13.334 26.9042Z" fill="#4040B7"/>
<path d="M28.3012 6.09961H3.37827C2.78211 6.09961 2.29883 6.58247 2.29883 7.17812V22.1879C2.29883 22.7836 2.78211 23.2664 3.37827 23.2664H28.3012C28.8974 23.2664 29.3807 22.7836 29.3807 22.1879V7.17812C29.3807 6.58247 28.8974 6.09961 28.3012 6.09961Z" fill="#5050E5"/>
<path d="M28.11 6.60938H3.63413C3.03797 6.60938 2.55469 7.09224 2.55469 7.68789V21.84C2.55469 22.4356 3.03797 22.9185 3.63413 22.9185H28.11C28.7061 22.9185 29.1894 22.4356 29.1894 21.84V7.68789C29.1894 7.09224 28.7061 6.60938 28.11 6.60938Z" fill="#221A7E"/>
<path opacity="0.22" d="M10.8134 6.60938C9.9 8.01335 8.95469 9.39181 7.98383 10.7575C6.22734 13.2336 4.39421 15.6587 2.55469 18.0709V21.8425C2.55514 21.9754 2.57892 22.1072 2.62495 22.2318L3.87046 20.5343C5.02867 18.9516 6.13366 17.3392 7.18543 15.6969C9.12714 12.6848 10.9922 9.62155 12.9403 6.60938H10.8134Z" fill="white"/>
<path opacity="0.22" d="M21.1229 6.60938C19.9093 8.59409 18.7533 10.6107 17.6035 12.6337C15.6491 16.099 13.7201 19.5962 11.5293 22.9211H15.0359C16.1345 21.3639 17.2139 19.794 18.1784 18.1539C20.3948 14.3504 22.4004 10.432 24.5848 6.60938H21.1229Z" fill="white"/>
<path opacity="0.22" d="M25.6134 6.60938C24.3551 8.7983 23.1543 11.0255 21.9408 13.2464C20.8485 15.263 19.7372 17.2732 18.5683 19.2452C17.821 20.5088 16.9843 21.7213 16.1348 22.9211H17.936L20.7208 17.7072C22.7008 14.0058 24.6745 10.3065 26.6418 6.60938H25.6134Z" fill="white"/>
<path d="M2.29885 20.3301V22.1872C2.298 22.329 2.32534 22.4697 2.37929 22.6009C2.43323 22.7321 2.51271 22.8514 2.61312 22.9517C2.71352 23.052 2.83286 23.1314 2.9642 23.1853C3.09555 23.2392 3.2363 23.2665 3.37829 23.2657H28.3012C28.4432 23.2665 28.584 23.2392 28.7153 23.1853C28.8467 23.1314 28.966 23.052 29.0664 22.9517C29.1668 22.8514 29.2463 22.7321 29.3002 22.6009C29.3542 22.4697 29.3815 22.329 29.3807 22.1872V20.3301H2.29885Z" fill="#5959FF"/>
<path d="M29.6679 9.0332H24.2883C23.3438 9.0332 22.5781 9.79888 22.5781 10.7434V16.123C22.5781 17.0675 23.3438 17.8332 24.2883 17.8332H29.6679C30.6124 17.8332 31.3781 17.0675 31.3781 16.123V10.7434C31.3781 9.79888 30.6124 9.0332 29.6679 9.0332Z" fill="#5050E5"/>
<path d="M8.50222 14.4551H1.36428C0.807127 14.4551 0.355469 14.9046 0.355469 15.4591V18.4289C0.355469 18.9834 0.807127 19.4329 1.36428 19.4329H8.50222C9.05937 19.4329 9.51102 18.9834 9.51102 18.4289V15.4591C9.51102 14.9046 9.05937 14.4551 8.50222 14.4551Z" fill="#5050E5"/>
<path d="M30.289 8.41016H24.9094C23.9649 8.41016 23.1992 9.18357 23.1992 10.1376V15.5716C23.1992 16.5256 23.9649 17.299 24.9094 17.299H30.289C31.2335 17.299 31.9992 16.5256 31.9992 15.5716V10.1376C31.9992 9.18357 31.2335 8.41016 30.289 8.41016Z" fill="#6678FF"/>
<g opacity="0.66">
<path d="M12.9527 11.1412L12.876 11.0965C12.5659 10.922 12.2293 10.7991 11.8796 10.7327C11.7182 10.6976 11.5527 10.6847 11.3878 10.6944C11.3463 10.6968 11.3054 10.7054 11.2664 10.72C11.235 10.7331 11.2067 10.7527 11.1834 10.7774L11.1706 10.7902L11.1515 10.8093C11.1454 10.8255 11.1368 10.8406 11.1259 10.854V10.8859C11.1259 10.8987 11.1195 10.905 11.1195 10.9178C11.1122 10.9361 11.1079 10.9555 11.1067 10.9752C11.1004 10.988 11.1004 10.9816 11.1004 11.0008V11.0327C11.1004 11.0582 11.094 11.0773 11.094 11.1029C11.0951 11.1541 11.0993 11.2053 11.1067 11.256C11.1187 11.3505 11.1358 11.4442 11.1578 11.5368L11.2345 11.7921C11.285 11.9566 11.3491 12.1167 11.4261 12.2707C11.4644 12.3409 11.5028 12.4111 11.5475 12.4813H11.6177C11.7391 12.4749 11.7391 12.6664 11.6177 12.6728C11.5674 12.6773 11.5167 12.6685 11.4708 12.6472C11.449 12.639 11.4293 12.6259 11.4133 12.609C11.3589 12.5385 11.3138 12.4612 11.2792 12.3792C11.1793 12.1971 11.1001 12.0045 11.0429 11.8049C10.9726 11.5983 10.9275 11.384 10.9087 11.1667C10.896 10.9561 10.9279 10.72 11.1067 10.5859C11.204 10.525 11.3179 10.4959 11.4325 10.503C11.6215 10.5 11.8101 10.5192 11.9946 10.5604C12.3653 10.6433 12.7208 10.7833 13.0485 10.9752C13.1507 11.0391 13.0549 11.205 12.9527 11.1412Z" fill="#4040B7"/>
<path d="M19.9212 14.989C19.9103 15.2193 19.8673 15.447 19.7935 15.6655C19.5699 16.3164 19.0717 16.8205 18.4713 17.1588C17.8709 17.497 17.0534 17.7267 16.3061 17.8097C15.5203 17.8952 14.7262 17.8651 13.9492 17.7204C13.5982 17.6569 13.2539 17.5608 12.9208 17.4332C12.7803 17.3821 12.6462 17.3183 12.4993 17.2545C12.3275 17.1666 12.1611 17.0686 12.0011 16.9609C11.5786 16.6748 11.2621 16.2577 11.1005 15.7739C10.9408 15.2762 10.9727 14.7529 11.0813 14.2487C11.1709 13.7867 11.3257 13.3398 11.5412 12.9213C11.7676 12.4831 12.0606 12.0827 12.4099 11.7343C13.1316 11.0196 14.0833 10.5473 15.1053 10.4899C15.9548 10.4452 16.8043 10.6749 17.5452 11.0898C17.7508 11.1994 17.9473 11.3253 18.1328 11.4663H18.152L18.1775 11.4918C18.2542 11.5492 18.3244 11.6131 18.3947 11.6769C18.5822 11.8493 18.7572 12.0349 18.9184 12.2321C19.5316 13.0043 19.9787 13.9934 19.9212 14.989Z" fill="#5959FF"/>
<path d="M20.1191 14.7535C20.1191 14.7089 20.1127 14.6706 20.1127 14.6259C20.0743 13.9686 19.8316 13.3176 19.4995 12.756L19.4356 12.6476L19.3143 12.4625C18.9642 11.9383 18.5151 11.4874 17.9921 11.1351L17.9793 11.1223L17.7941 11.0075H17.7813L17.5578 10.8798C17.014 10.5877 16.4205 10.3995 15.8077 10.3246C15.3137 10.272 14.8143 10.3066 14.3322 10.4267C14.1824 10.4639 14.0352 10.5108 13.8915 10.5671C13.5973 10.6769 13.3148 10.8158 13.0484 10.9819L12.8759 11.1032L12.8376 11.1287C12.3298 11.5005 11.8983 11.9663 11.5666 12.5008L11.4644 12.6667C11.2992 12.954 11.1643 13.2577 11.062 13.5729C10.991 13.7926 10.9334 14.0164 10.8895 14.243C10.8373 14.4822 10.8074 14.7258 10.8001 14.9705C10.7814 15.5631 10.9712 16.1435 11.3366 16.6106C11.6177 16.9616 11.9881 17.2169 12.3841 17.4147C12.692 17.566 13.0126 17.6899 13.3422 17.7848C13.7415 17.8948 14.1498 17.9696 14.5622 18.0082L14.7538 18.0273L14.9071 18.0401L15.4181 18.0529H15.7183C16.523 18.0273 17.3406 17.887 18.0879 17.5742L18.3179 17.4658L18.535 17.3573C18.97 17.1242 19.3474 16.7972 19.64 16.4L19.7167 16.2788C19.7352 16.2579 19.7503 16.2342 19.7614 16.2086C19.8492 16.0565 19.922 15.8962 19.9785 15.7299C20.08 15.4147 20.1276 15.0846 20.1191 14.7535ZM19.9211 14.9896C19.9101 15.22 19.8671 15.4476 19.7933 15.6661C19.7456 15.8031 19.6858 15.9355 19.6145 16.0618L19.5378 16.1958C19.2662 16.5991 18.9 16.9299 18.4712 17.1594C18.4244 17.1908 18.3753 17.2186 18.3242 17.2424L18.2476 17.2807L18.2157 17.2934L18.1773 17.3126L18.1582 17.3254L18.1199 17.3445L18.0688 17.3636H18.056L17.9474 17.4083L17.8452 17.4466H17.826L17.7622 17.4721H17.7175L17.6664 17.4913L17.6153 17.5104L17.5003 17.5487H17.4939L17.3981 17.5742L17.3534 17.587H17.3342L17.264 17.6062L17.1745 17.6253L17.1171 17.6381L17.034 17.6572L16.9702 17.67H16.9638L16.8743 17.6827H16.8552L16.7274 17.7083H16.7211L16.6189 17.721H16.6125L16.5678 17.7338H16.4847L16.3953 17.7466L16.3059 17.7593C15.8603 17.8039 15.412 17.8167 14.9646 17.7976C14.8049 17.7912 14.6516 17.7785 14.4983 17.7593C14.3131 17.7402 14.1278 17.7083 13.949 17.6764C13.598 17.6129 13.2537 17.5168 12.9207 17.3892C12.7801 17.3381 12.646 17.2743 12.4991 17.2105C12.3273 17.1226 12.161 17.0246 12.0009 16.9169C11.5784 16.6308 11.2619 16.2136 11.1003 15.7299C10.9406 15.2322 10.9725 14.7089 11.0811 14.2047C11.1714 13.7437 11.3239 13.2972 11.5346 12.8773C11.7655 12.4403 12.0604 12.0402 12.4097 11.6903C13.1314 10.9755 14.0831 10.5033 15.1051 10.4459C15.8623 10.4255 16.6121 10.5991 17.2831 10.95L17.5258 11.0777H17.545L17.6344 11.1351L17.7302 11.1861L17.7813 11.2181H17.7877L17.8708 11.2755L17.9346 11.3202L17.9921 11.3585H17.9985L18.0624 11.4031L18.1326 11.4542H18.1518L18.1773 11.4797C18.254 11.5371 18.3242 11.601 18.3945 11.6648C18.582 11.8372 18.757 12.0228 18.9183 12.22C19.4676 12.9028 19.8891 13.7707 19.9274 14.6642V14.7982C19.9296 14.8621 19.9274 14.926 19.9211 14.9896Z" fill="#4040B7"/>
<path d="M12.8763 11.0965L12.838 11.122C12.3302 11.4938 11.8987 11.9596 11.5669 12.4941H11.5414C11.4967 12.4239 11.4583 12.3537 11.42 12.2835C11.3431 12.1295 11.279 11.9694 11.2284 11.8048L11.1518 11.5496C11.1297 11.457 11.1126 11.3632 11.1007 11.2688C11.0932 11.218 11.089 11.1669 11.0879 11.1156C11.0879 11.0901 11.0943 11.0709 11.0943 11.0454V11.0135C11.0943 10.9944 11.0943 11.0007 11.1007 10.988C11.1018 10.9683 11.1061 10.9489 11.1134 10.9305C11.1134 10.9178 11.1198 10.9114 11.1198 10.8986V10.8795C11.1307 10.8661 11.1393 10.851 11.1454 10.8348L11.1645 10.8157L11.1773 10.8029C11.2007 10.7782 11.2289 10.7586 11.2603 10.7455C11.2993 10.7309 11.3402 10.7223 11.3817 10.72C11.5466 10.7102 11.7121 10.7231 11.8735 10.7582C12.2239 10.8159 12.5626 10.9302 12.8763 11.0965Z" fill="#6678FF"/>
<path d="M12.1151 14.7793C12.9391 14.8558 13.6417 14.6708 13.9866 14.524C15.1107 14.039 15.858 12.4116 15.7495 10.5099C15.5354 10.4844 15.3195 10.478 15.1043 10.4907C14.0824 10.5482 13.1307 11.0204 12.4089 11.7352C12.0597 12.0836 11.7666 12.484 11.5403 12.9222C11.3248 13.3406 11.17 13.7876 11.0804 14.2496C11.0612 14.3389 11.0421 14.4283 11.0293 14.524C11.3784 14.6564 11.7435 14.7422 12.1151 14.7793Z" fill="#6678FF"/>
<path d="M19.85 11.2694C19.8322 11.4032 19.8044 11.5354 19.7669 11.6651C19.6879 11.9431 19.5719 12.2092 19.422 12.4564H19.3582L19.3134 12.4692C18.9633 11.945 18.5142 11.4941 17.9913 11.1418L17.9785 11.129C18.4031 10.8753 18.8786 10.7184 19.3709 10.6695C19.4795 10.6568 19.6136 10.6376 19.7222 10.6823C19.8308 10.727 19.8564 10.8099 19.8691 10.912C19.8811 11.0314 19.8746 11.152 19.85 11.2694Z" fill="#6678FF"/>
<path d="M20.0674 11.0276C20.0538 11.3375 19.9913 11.6434 19.8821 11.9338C19.8297 12.0801 19.7678 12.223 19.6969 12.3613L19.5756 12.5656C19.55 12.6039 19.5245 12.6485 19.467 12.6485H19.3584C19.3375 12.6479 19.3175 12.6404 19.3013 12.6274C19.285 12.6143 19.2735 12.5963 19.2684 12.5761C19.2634 12.5559 19.2651 12.5345 19.2732 12.5154C19.2814 12.4962 19.2956 12.4802 19.3137 12.4698L19.3584 12.4571H19.4223C19.5721 12.2099 19.6881 11.9437 19.7672 11.6657C19.8046 11.5361 19.8324 11.4038 19.8502 11.2701C19.8755 11.1506 19.882 11.0278 19.8694 10.9063C19.8566 10.8042 19.8183 10.7149 19.7225 10.6766C19.6266 10.6383 19.4797 10.651 19.3712 10.6638C18.8788 10.7127 18.4034 10.8696 17.9787 11.1233C17.9296 11.1493 17.8826 11.1792 17.8382 11.2126C17.8209 11.2228 17.8008 11.2273 17.7807 11.2254C17.7704 11.2242 17.7604 11.2207 17.7516 11.2152C17.7428 11.2097 17.7353 11.2023 17.7296 11.1935C17.7196 11.1836 17.7119 11.1716 17.7071 11.1584C17.7022 11.1452 17.7003 11.1311 17.7015 11.1171C17.7028 11.1031 17.707 11.0895 17.7141 11.0774C17.7212 11.0652 17.7308 11.0547 17.7424 11.0467L17.7935 11.0084C18.077 10.8339 18.3818 10.6966 18.7005 10.6C18.8493 10.5562 19.0008 10.5221 19.154 10.4979C19.3012 10.4688 19.4511 10.4559 19.6011 10.4596C19.748 10.4724 19.8885 10.517 19.9779 10.6447C20.0674 10.7723 20.0674 10.8999 20.0674 11.0276Z" fill="#4040B7"/>
<path d="M19.6086 13.2035L19.4872 13.127L18.0501 13.6822C17.9543 13.7205 17.8457 13.7715 17.8457 13.8481C17.8457 13.9247 17.916 13.9566 18.0054 13.9757C18.0937 13.9929 18.1841 13.9972 18.2736 13.9885C18.5982 13.9776 18.921 13.937 19.2381 13.8672C19.4744 13.8034 19.698 13.7013 19.8385 13.5609C19.7683 13.4397 19.6852 13.3248 19.6086 13.2035Z" fill="#4040B7"/>
<path d="M19.8826 13.968L19.8251 13.9297L18.388 14.4849C18.2922 14.5232 18.1836 14.5742 18.1836 14.6508C18.1836 14.7274 18.2602 14.7593 18.3433 14.7848C18.4319 14.7998 18.5223 14.8019 18.6115 14.7912C18.9373 14.7721 19.2694 14.7529 19.576 14.67C19.7178 14.6323 19.855 14.5788 19.9848 14.5104C19.9637 14.3274 19.9295 14.1461 19.8826 13.968Z" fill="#4040B7"/>
<path d="M15.3857 15.0598C15.3882 15.044 15.3948 15.0292 15.4049 15.0169C15.415 15.0045 15.4282 14.9951 15.4432 14.9896C15.4487 14.9857 15.455 14.9831 15.4617 14.982C15.4683 14.9809 15.4751 14.9813 15.4815 14.9832C15.4998 14.983 15.5176 14.9892 15.5317 15.001C15.5457 15.0127 15.5551 15.029 15.5582 15.047C15.5643 15.0565 15.5665 15.0679 15.5646 15.0789C15.5584 15.1465 15.5692 15.2146 15.5959 15.277C15.6227 15.3394 15.6646 15.3942 15.7179 15.4363C15.8041 15.5062 15.9138 15.5404 16.0245 15.532C16.134 15.518 16.2343 15.4633 16.3055 15.3789C16.3399 15.3362 16.3655 15.2872 16.3809 15.2347C16.3962 15.1821 16.401 15.127 16.3949 15.0726C16.39 15.0178 16.3738 14.9646 16.3474 14.9163C16.3211 14.868 16.285 14.8256 16.2416 14.7918C16.2324 14.7842 16.2247 14.7749 16.2191 14.7644C16.2135 14.7539 16.21 14.7424 16.2088 14.7306C16.2076 14.7187 16.2088 14.7068 16.2122 14.6954C16.2156 14.684 16.2213 14.6733 16.2289 14.6641C16.2364 14.6549 16.2457 14.6473 16.2562 14.6416C16.2667 14.636 16.2782 14.6325 16.2901 14.6313C16.3019 14.6301 16.3139 14.6313 16.3253 14.6347C16.3367 14.6382 16.3474 14.6438 16.3566 14.6514C16.4776 14.7528 16.5553 14.8966 16.5738 15.0534C16.5884 15.2101 16.5402 15.3662 16.4396 15.4874C16.3409 15.6084 16.1989 15.6863 16.0436 15.7043H15.9031C15.7939 15.6877 15.6907 15.6438 15.6029 15.5767C15.5537 15.5339 15.5107 15.4845 15.4752 15.4299C15.4098 15.3179 15.3787 15.1892 15.3857 15.0598Z" fill="#221A7E"/>
<path d="M14.5763 14.6839C14.585 14.6759 14.5953 14.6696 14.6065 14.6655C14.6177 14.6615 14.6296 14.6597 14.6415 14.6603C14.6534 14.6609 14.665 14.6638 14.6758 14.669C14.6865 14.6742 14.6961 14.6814 14.704 14.6903C14.7116 14.6989 14.7173 14.709 14.7207 14.7199C14.7242 14.7308 14.7254 14.7424 14.7242 14.7537C14.723 14.7651 14.7194 14.7762 14.7138 14.7861C14.7081 14.7961 14.7004 14.8047 14.6912 14.8116C14.6397 14.8574 14.6 14.915 14.5755 14.9794C14.551 15.0439 14.5425 15.1133 14.5507 15.1817C14.5569 15.236 14.5743 15.2884 14.6018 15.3356C14.6293 15.3829 14.6663 15.4239 14.7104 15.4561C14.7527 15.4911 14.8017 15.5171 14.8544 15.5325C14.9072 15.5479 14.9625 15.5523 15.017 15.5455C15.1251 15.5324 15.2237 15.4774 15.2916 15.3923C15.3265 15.3487 15.3524 15.2986 15.3678 15.2449C15.3831 15.1912 15.3876 15.1351 15.381 15.0796V15.0541C15.3844 15.0384 15.3922 15.0241 15.4035 15.0127C15.4149 15.0014 15.4292 14.9936 15.4449 14.9903C15.4449 14.9839 15.4513 14.9839 15.4577 14.9839C15.4795 14.9818 15.5013 14.9878 15.519 15.0008C15.5366 15.0137 15.5489 15.0327 15.5535 15.0541C15.5744 15.1827 15.5471 15.3145 15.4769 15.4242L15.4321 15.4944C15.3331 15.6169 15.1899 15.6955 15.0334 15.7134C14.8769 15.7314 14.7196 15.6871 14.5954 15.5901C14.5282 15.5352 14.4737 15.4664 14.4356 15.3884C14.3976 15.3104 14.377 15.225 14.3751 15.1383C14.3733 15.0515 14.3903 14.9654 14.4251 14.8859C14.4598 14.8063 14.5114 14.7352 14.5763 14.6776V14.6839Z" fill="#221A7E"/>
<path d="M16.1719 12.7116C16.1718 12.6839 16.1824 12.6572 16.2014 12.6371C16.2204 12.6169 16.2464 12.6048 16.2741 12.6031C16.3035 12.6031 16.3318 12.6143 16.3532 12.6345C16.3746 12.6547 16.3874 12.6823 16.389 12.7116V13.2094C16.3886 13.2812 16.4031 13.3524 16.4317 13.4183C16.4603 13.4843 16.5023 13.5435 16.5551 13.5923C16.6058 13.6413 16.6659 13.6795 16.7317 13.7048C16.7976 13.73 16.8679 13.7416 16.9383 13.7391C17.0096 13.7391 17.0801 13.7248 17.1457 13.697C17.2113 13.6692 17.2707 13.6285 17.3201 13.5772C17.3696 13.526 17.4083 13.4653 17.4338 13.3988C17.4592 13.3323 17.4711 13.2614 17.4685 13.1902V12.6925C17.4685 12.6637 17.4799 12.6361 17.5003 12.6158C17.5206 12.5954 17.5483 12.584 17.5771 12.584C17.6048 12.5839 17.6315 12.5945 17.6517 12.6135C17.6719 12.6325 17.684 12.6584 17.6856 12.6861V13.1902C17.6873 13.2891 17.6695 13.3874 17.6332 13.4794C17.5969 13.5714 17.5428 13.6554 17.474 13.7265C17.4052 13.7976 17.323 13.8545 17.2322 13.8939C17.1414 13.9333 17.0437 13.9544 16.9447 13.9561H16.8298C16.6687 13.9362 16.5185 13.8645 16.4018 13.7518C16.3296 13.6837 16.272 13.6016 16.2325 13.5105C16.193 13.4195 16.1724 13.3214 16.1719 13.2222V12.7116Z" fill="#221A7E"/>
<path d="M13.1895 12.7565C13.1895 12.7278 13.2009 12.7002 13.2213 12.6798C13.2416 12.6595 13.2692 12.6481 13.298 12.6481C13.3268 12.6481 13.3545 12.6595 13.3748 12.6798C13.3952 12.7002 13.4066 12.7278 13.4066 12.7565V13.2543C13.4089 13.3254 13.4254 13.3952 13.455 13.4599C13.4846 13.5245 13.5268 13.5826 13.5791 13.6308C13.6564 13.7029 13.753 13.7509 13.8572 13.7688C13.9614 13.7868 14.0685 13.774 14.1655 13.732C14.2625 13.69 14.3451 13.6206 14.4032 13.5323C14.4612 13.4441 14.4923 13.3408 14.4924 13.2352L14.4797 12.7374C14.4812 12.7091 14.4931 12.6824 14.5132 12.6624C14.5332 12.6424 14.56 12.6304 14.5883 12.6289C14.616 12.6289 14.6427 12.6394 14.6629 12.6584C14.6831 12.6774 14.6952 12.7034 14.6968 12.731L14.7096 13.2352C14.7091 13.4333 14.6312 13.6234 14.4924 13.7649C14.3568 13.9063 14.171 13.9888 13.9751 13.9946H13.8473C13.6914 13.9743 13.546 13.905 13.4322 13.7968C13.3588 13.7288 13.2996 13.647 13.258 13.5561C13.2163 13.4652 13.193 13.367 13.1895 13.2671V12.7565Z" fill="#221A7E"/>
<path d="M15.0809 14.1227C15.1471 14.1056 15.2169 14.1093 15.281 14.1332C15.345 14.1572 15.4 14.2004 15.4386 14.2568C15.4386 14.2601 15.4399 14.2634 15.4423 14.2658C15.4447 14.2682 15.448 14.2695 15.4514 14.2695C15.4642 14.2767 15.4792 14.2788 15.4935 14.2752C15.5078 14.2716 15.5201 14.2628 15.528 14.2504C15.5648 14.193 15.6179 14.1478 15.6804 14.1206C15.7429 14.0933 15.8122 14.0852 15.8793 14.0972C15.9609 14.121 16.0299 14.1757 16.0716 14.2496C16.1134 14.3235 16.1246 14.4108 16.1029 14.4929C16.0645 14.6397 15.7643 14.9588 15.5599 15.0481H15.5536L15.4769 15.0609C15.447 15.0648 15.4166 15.0626 15.3875 15.0545H15.3811C15.1831 14.9843 14.8765 14.6716 14.8446 14.5248C14.8279 14.4405 14.8427 14.353 14.8863 14.2789C14.9298 14.2048 14.9991 14.1492 15.0809 14.1227Z" fill="#221A7E"/>
</g>
<path d="M7.92381 13.6543H0.965079C0.432081 13.6543 0 14.0926 0 14.6333V17.742C0 18.2827 0.432081 18.721 0.965079 18.721H7.92381C8.45681 18.721 8.88889 18.2827 8.88889 17.742V14.6333C8.88889 14.0926 8.45681 13.6543 7.92381 13.6543Z" fill="#6678FF"/>
<path d="M28.8992 13.6382C28.8992 14.0798 28.3322 14.4297 27.6234 14.4297C26.9147 14.4297 26.3477 14.0798 26.3477 13.6382C26.3477 13.3466 26.6061 13.0967 26.9814 12.9551C27.0117 12.8065 27.0918 12.6726 27.2086 12.5757C27.3253 12.4788 27.4716 12.4245 27.6234 12.4219C27.7756 12.423 27.9227 12.4767 28.0398 12.5739C28.1568 12.6711 28.2366 12.8058 28.2655 12.9551C28.649 13.0967 28.8992 13.3466 28.8992 13.6382Z" fill="white"/>
<path d="M26.4473 12.9889C26.3365 13.0376 26.211 13.0413 26.0975 12.9994C25.9839 12.9574 25.8911 12.873 25.8386 12.764C25.8154 12.7093 25.8032 12.6506 25.8027 12.5912C25.8023 12.5318 25.8137 12.4729 25.8362 12.4179C25.8586 12.3629 25.8918 12.3129 25.9337 12.2708C25.9757 12.2286 26.0255 12.1952 26.0804 12.1725C26.19 12.121 26.3154 12.1149 26.4294 12.1555C26.5435 12.196 26.6368 12.28 26.6891 12.3891C26.7364 12.5007 26.7375 12.6265 26.6922 12.7389C26.6469 12.8513 26.5588 12.9412 26.4473 12.9889Z" fill="white"/>
<path d="M29.2325 12.9889C29.1216 13.0376 28.9962 13.0413 28.8826 12.9994C28.769 12.9574 28.6762 12.873 28.6238 12.764C28.6005 12.7093 28.5883 12.6506 28.5879 12.5912C28.5875 12.5318 28.5988 12.4729 28.6213 12.4179C28.6438 12.3629 28.677 12.3129 28.7189 12.2708C28.7608 12.2286 28.8107 12.1952 28.8656 12.1725C28.9751 12.121 29.1006 12.1149 29.2146 12.1555C29.3286 12.196 29.422 12.28 29.4743 12.3891C29.5216 12.5007 29.5227 12.6265 29.4773 12.7389C29.432 12.8513 29.344 12.9412 29.2325 12.9889Z" fill="white"/>
<path d="M28.3811 12.2135C28.3266 12.2451 28.266 12.2649 28.2033 12.2716C28.1406 12.2783 28.0772 12.2718 28.0172 12.2525C27.9572 12.2332 27.902 12.2015 27.855 12.1594C27.808 12.1174 27.7704 12.066 27.7446 12.0086C27.7188 11.9511 27.7053 11.8888 27.7051 11.8259C27.7049 11.7629 27.7179 11.7005 27.7433 11.6429C27.7687 11.5852 27.806 11.5336 27.8527 11.4912C27.8993 11.4489 27.9544 11.4168 28.0143 11.3971C28.1238 11.3456 28.2492 11.3395 28.3633 11.3801C28.4773 11.4207 28.5706 11.5046 28.6229 11.6137C28.6702 11.7253 28.6713 11.8511 28.626 11.9635C28.5807 12.0759 28.4926 12.1658 28.3811 12.2135Z" fill="white"/>
<path d="M27.2229 12.214C27.1684 12.2456 27.1078 12.2654 27.0451 12.2721C26.9824 12.2788 26.919 12.2723 26.859 12.253C26.799 12.2336 26.7437 12.2019 26.6968 12.1599C26.6498 12.1179 26.6122 12.0665 26.5864 12.009C26.5606 11.9516 26.5471 11.8893 26.5469 11.8263C26.5467 11.7633 26.5597 11.701 26.5851 11.6434C26.6105 11.5857 26.6478 11.534 26.6945 11.4917C26.7411 11.4494 26.7962 11.4173 26.856 11.3975C26.9095 11.3711 26.9677 11.3557 27.0273 11.3523C27.0868 11.3489 27.1464 11.3576 27.2025 11.3778C27.2586 11.398 27.31 11.4294 27.3536 11.47C27.3973 11.5107 27.4322 11.5597 27.4564 11.6141C27.4812 11.6687 27.4948 11.7277 27.4965 11.7877C27.4982 11.8476 27.4878 11.9073 27.4661 11.9632C27.4443 12.0191 27.4116 12.07 27.3698 12.1131C27.3281 12.1562 27.2781 12.1905 27.2229 12.214Z" fill="white"/>
<path d="M7.53136 14.4551H1.359C1.14887 14.4551 0.978516 14.6342 0.978516 14.8551C0.978516 15.076 1.14887 15.2551 1.359 15.2551H7.53136C7.7415 15.2551 7.91185 15.076 7.91185 14.8551C7.91185 14.6342 7.7415 14.4551 7.53136 14.4551Z" fill="white"/>
<path d="M7.53136 15.7891H1.359C1.14887 15.7891 0.978516 15.9681 0.978516 16.1891C0.978516 16.41 1.14887 16.5891 1.359 16.5891H7.53136C7.7415 16.5891 7.91185 16.41 7.91185 16.1891C7.91185 15.9681 7.7415 15.7891 7.53136 15.7891Z" fill="white"/>
<path d="M4.33003 17.1211H1.36033C1.14946 17.1211 0.978516 17.2803 0.978516 17.4766C0.978516 17.673 1.14946 17.8322 1.36033 17.8322H4.33003C4.5409 17.8322 4.71185 17.673 4.71185 17.4766C4.71185 17.2803 4.5409 17.1211 4.33003 17.1211Z" fill="white"/>
</svg>
